<svg xmlns="http://www.w3.org/2000/svg" xmlns:xlink="http://www.w3.org/1999/xlink" width="2000" zoomAndPan="magnify" viewBox="0 0 1500 1499.999933" height="2000" preserveAspectRatio="xMidYMid meet" version="1.0"><defs><clipPath id="2dc9798472"><path d="M 43.929688 370 L 771 370 L 771 1397.886719 L 43.929688 1397.886719 Z M 43.929688 370 " clip-rule="nonzero"/></clipPath><clipPath id="e9a10f88ae"><path d="M 728 370 L 1455 370 L 1455 1397.886719 L 728 1397.886719 Z M 728 370 " clip-rule="nonzero"/></clipPath><clipPath id="7c51cbf498"><path d="M 43.929688 102 L 1456.179688 102 L 1456.179688 413 L 43.929688 413 Z M 43.929688 102 " clip-rule="nonzero"/></clipPath></defs><path stroke-linecap="butt" transform="matrix(-0.216974, -0.717929, 0.717929, -0.216974, 708.146228, 692.816056)" fill="none" stroke-linejoin="miter" d="M -0.000877719 1.999658 L 25.795137 1.998838 " stroke="#000000" stroke-width="4" stroke-opacity="1" stroke-miterlimit="4"/><g clip-path="url(#2dc9798472)"><path fill="#000000" d="M 749.3125 1397.066406 C 746.398438 1397.074219 743.609375 1396.488281 740.949219 1395.308594 L 56.402344 1094.78125 C 55.480469 1094.375 54.589844 1093.910156 53.738281 1093.375 C 52.882812 1092.84375 52.070312 1092.25 51.304688 1091.601562 C 50.535156 1090.949219 49.816406 1090.25 49.152344 1089.496094 C 48.484375 1088.742188 47.875 1087.941406 47.324219 1087.101562 C 46.773438 1086.257812 46.289062 1085.378906 45.863281 1084.46875 C 45.441406 1083.554688 45.085938 1082.617188 44.796875 1081.652344 C 44.511719 1080.6875 44.292969 1079.707031 44.148438 1078.710938 C 44.003906 1077.714844 43.929688 1076.714844 43.929688 1075.707031 L 43.929688 391.335938 C 43.929688 390.90625 43.945312 390.472656 43.96875 390.042969 C 43.996094 389.613281 44.035156 389.1875 44.089844 388.757812 C 44.144531 388.332031 44.210938 387.90625 44.289062 387.484375 C 44.371094 387.0625 44.460938 386.640625 44.566406 386.222656 C 44.675781 385.804688 44.792969 385.390625 44.925781 384.980469 C 45.054688 384.570312 45.199219 384.167969 45.355469 383.765625 C 45.511719 383.363281 45.679688 382.96875 45.863281 382.578125 C 46.042969 382.1875 46.238281 381.800781 46.441406 381.425781 C 46.648438 381.046875 46.863281 380.671875 47.089844 380.308594 C 47.320312 379.941406 47.558594 379.585938 47.808594 379.234375 C 48.058594 378.882812 48.320312 378.542969 48.589844 378.207031 C 48.863281 377.875 49.144531 377.546875 49.4375 377.230469 C 49.726562 376.914062 50.027344 376.605469 50.339844 376.308594 C 50.648438 376.011719 50.96875 375.722656 51.296875 375.445312 C 51.628906 375.167969 51.964844 374.898438 52.308594 374.640625 C 52.65625 374.382812 53.007812 374.136719 53.367188 373.902344 C 53.726562 373.667969 54.097656 373.441406 54.46875 373.230469 C 54.84375 373.015625 55.226562 372.816406 55.613281 372.628906 C 56 372.4375 56.390625 372.261719 56.789062 372.097656 C 57.1875 371.929688 57.589844 371.777344 57.996094 371.640625 C 58.40625 371.5 58.816406 371.371094 59.230469 371.257812 C 59.644531 371.144531 60.0625 371.042969 60.484375 370.953125 C 60.90625 370.867188 61.332031 370.789062 61.757812 370.726562 C 62.183594 370.664062 62.609375 370.617188 63.039062 370.582031 C 63.46875 370.546875 63.898438 370.523438 64.328125 370.515625 C 64.761719 370.503906 65.191406 370.507812 65.621094 370.527344 C 66.050781 370.546875 66.480469 370.578125 66.910156 370.621094 C 67.335938 370.664062 67.765625 370.722656 68.1875 370.792969 C 68.613281 370.863281 69.035156 370.949219 69.453125 371.042969 C 69.875 371.140625 70.289062 371.25 70.703125 371.375 C 71.117188 371.496094 71.523438 371.632812 71.929688 371.78125 C 72.332031 371.929688 72.734375 372.089844 73.128906 372.261719 L 757.675781 672.789062 C 758.597656 673.195312 759.484375 673.664062 760.339844 674.195312 C 761.191406 674.726562 762.003906 675.320312 762.773438 675.96875 C 763.539062 676.621094 764.257812 677.320312 764.925781 678.078125 C 765.589844 678.832031 766.199219 679.628906 766.75 680.472656 C 767.300781 681.3125 767.789062 682.191406 768.210938 683.105469 C 768.632812 684.015625 768.988281 684.957031 769.277344 685.921875 C 769.566406 686.882812 769.78125 687.863281 769.925781 688.859375 C 770.070312 689.855469 770.144531 690.855469 770.144531 691.863281 L 770.144531 1376.234375 C 770.144531 1376.917969 770.113281 1377.597656 770.042969 1378.277344 C 769.976562 1378.957031 769.878906 1379.628906 769.746094 1380.300781 C 769.613281 1380.96875 769.445312 1381.628906 769.246094 1382.28125 C 769.050781 1382.933594 768.820312 1383.578125 768.558594 1384.207031 C 768.296875 1384.835938 768.007812 1385.453125 767.683594 1386.054688 C 767.363281 1386.65625 767.011719 1387.242188 766.632812 1387.808594 C 766.253906 1388.375 765.847656 1388.921875 765.414062 1389.449219 C 764.984375 1389.976562 764.523438 1390.480469 764.042969 1390.964844 C 763.558594 1391.445312 763.054688 1391.902344 762.527344 1392.335938 C 762 1392.769531 761.453125 1393.175781 760.886719 1393.554688 C 760.316406 1393.933594 759.734375 1394.285156 759.132812 1394.605469 C 758.53125 1394.925781 757.914062 1395.21875 757.285156 1395.480469 C 756.652344 1395.742188 756.011719 1395.96875 755.359375 1396.167969 C 754.707031 1396.367188 754.042969 1396.53125 753.375 1396.664062 C 752.707031 1396.796875 752.03125 1396.898438 751.351562 1396.964844 C 750.675781 1397.03125 749.992188 1397.066406 749.3125 1397.066406 Z M 85.597656 1062.019531 L 728.476562 1344.21875 L 728.476562 705.34375 L 85.597656 423.144531 Z M 85.597656 1062.019531 " fill-opacity="1" fill-rule="nonzero"/></g><g clip-path="url(#e9a10f88ae)"><path fill="#000000" d="M 749.3125 1397.066406 C 748.125 1397.0625 746.945312 1396.964844 745.777344 1396.761719 C 744.605469 1396.558594 743.460938 1396.261719 742.34375 1395.863281 C 741.226562 1395.464844 740.148438 1394.976562 739.113281 1394.394531 C 738.082031 1393.8125 737.101562 1393.148438 736.179688 1392.402344 C 735.261719 1391.652344 734.410156 1390.832031 733.628906 1389.9375 C 732.847656 1389.046875 732.148438 1388.09375 731.53125 1387.078125 C 730.914062 1386.066406 730.386719 1385.007812 729.949219 1383.90625 C 729.511719 1382.800781 729.171875 1381.667969 728.929688 1380.507812 C 728.683594 1379.347656 728.542969 1378.171875 728.5 1376.988281 C 728.457031 1375.800781 728.515625 1374.621094 728.671875 1373.445312 C 728.832031 1372.269531 729.089844 1371.117188 729.445312 1369.984375 C 729.800781 1368.851562 730.25 1367.757812 730.796875 1366.703125 C 731.339844 1365.648438 731.96875 1364.648438 732.679688 1363.699219 C 733.394531 1362.753906 734.183594 1361.871094 735.050781 1361.058594 C 735.914062 1360.246094 736.84375 1359.511719 737.832031 1358.859375 C 738.820312 1358.207031 739.859375 1357.640625 740.949219 1357.164062 L 1413.023438 1062.019531 L 1413.023438 423.144531 L 757.675781 710.816406 C 757.046875 711.105469 756.40625 711.363281 755.753906 711.585938 C 755.101562 711.8125 754.441406 712.003906 753.769531 712.164062 C 753.097656 712.320312 752.417969 712.445312 751.734375 712.539062 C 751.050781 712.628906 750.363281 712.6875 749.675781 712.710938 C 748.984375 712.734375 748.296875 712.722656 747.609375 712.679688 C 746.917969 712.632812 746.234375 712.554688 745.554688 712.441406 C 744.871094 712.328125 744.199219 712.179688 743.53125 712 C 742.867188 711.820312 742.210938 711.609375 741.566406 711.363281 C 740.921875 711.117188 740.289062 710.839844 739.671875 710.535156 C 739.054688 710.226562 738.453125 709.886719 737.871094 709.519531 C 737.285156 709.152344 736.722656 708.757812 736.175781 708.332031 C 735.632812 707.910156 735.109375 707.460938 734.609375 706.984375 C 734.109375 706.507812 733.632812 706.011719 733.183594 705.488281 C 732.734375 704.964844 732.308594 704.421875 731.914062 703.855469 C 731.519531 703.289062 731.148438 702.707031 730.8125 702.105469 C 730.472656 701.503906 730.164062 700.886719 729.890625 700.257812 C 729.613281 699.625 729.367188 698.980469 729.152344 698.324219 C 728.941406 697.667969 728.761719 697.003906 728.613281 696.328125 C 728.464844 695.65625 728.355469 694.976562 728.273438 694.289062 C 728.195312 693.605469 728.148438 692.917969 728.136719 692.226562 C 728.128906 691.539062 728.152344 690.847656 728.207031 690.160156 C 728.265625 689.472656 728.355469 688.789062 728.480469 688.113281 C 728.609375 687.433594 728.765625 686.761719 728.957031 686.101562 C 729.148438 685.4375 729.375 684.785156 729.632812 684.144531 C 729.886719 683.503906 730.175781 682.878906 730.496094 682.265625 C 730.8125 681.65625 731.164062 681.0625 731.539062 680.484375 C 731.917969 679.90625 732.324219 679.347656 732.757812 678.8125 C 733.191406 678.277344 733.648438 677.761719 734.132812 677.269531 C 734.621094 676.777344 735.125 676.3125 735.65625 675.871094 C 736.1875 675.429688 736.738281 675.019531 737.3125 674.632812 C 737.882812 674.246094 738.472656 673.886719 739.082031 673.5625 C 739.6875 673.234375 740.3125 672.9375 740.949219 672.671875 L 1425.496094 372.144531 C 1425.890625 371.96875 1426.289062 371.808594 1426.695312 371.660156 C 1427.101562 371.511719 1427.511719 371.375 1427.925781 371.253906 C 1428.339844 371.128906 1428.757812 371.019531 1429.179688 370.921875 C 1429.597656 370.824219 1430.023438 370.742188 1430.449219 370.671875 C 1430.875 370.601562 1431.300781 370.542969 1431.730469 370.5 C 1432.160156 370.457031 1432.59375 370.425781 1433.023438 370.40625 C 1433.453125 370.390625 1433.886719 370.386719 1434.320312 370.394531 C 1434.75 370.40625 1435.179688 370.429688 1435.613281 370.464844 C 1436.042969 370.5 1436.472656 370.550781 1436.898438 370.613281 C 1437.324219 370.675781 1437.75 370.753906 1438.171875 370.84375 C 1438.59375 370.929688 1439.015625 371.035156 1439.429688 371.148438 C 1439.847656 371.265625 1440.257812 371.394531 1440.667969 371.535156 C 1441.074219 371.675781 1441.480469 371.828125 1441.878906 371.996094 C 1442.277344 372.160156 1442.667969 372.339844 1443.054688 372.53125 C 1443.445312 372.722656 1443.824219 372.921875 1444.199219 373.136719 C 1444.574219 373.351562 1444.941406 373.578125 1445.304688 373.816406 C 1445.664062 374.050781 1446.019531 374.300781 1446.363281 374.558594 C 1446.707031 374.820312 1447.046875 375.089844 1447.375 375.367188 C 1447.703125 375.648438 1448.023438 375.9375 1448.332031 376.238281 C 1448.644531 376.539062 1448.945312 376.847656 1449.238281 377.167969 C 1449.527344 377.484375 1449.808594 377.8125 1450.078125 378.148438 C 1450.351562 378.484375 1450.609375 378.832031 1450.859375 379.183594 C 1451.109375 379.535156 1451.347656 379.894531 1451.574219 380.261719 C 1451.804688 380.628906 1452.019531 381.003906 1452.222656 381.382812 C 1452.425781 381.765625 1452.617188 382.152344 1452.796875 382.542969 C 1452.980469 382.9375 1453.144531 383.332031 1453.300781 383.738281 C 1453.457031 384.140625 1453.597656 384.546875 1453.730469 384.957031 C 1453.859375 385.371094 1453.976562 385.785156 1454.078125 386.203125 C 1454.183594 386.625 1454.273438 387.046875 1454.351562 387.46875 C 1454.429688 387.894531 1454.492188 388.320312 1454.546875 388.75 C 1454.597656 389.179688 1454.632812 389.609375 1454.660156 390.039062 C 1454.683594 390.472656 1454.695312 390.902344 1454.691406 391.335938 L 1454.691406 1075.707031 C 1454.691406 1076.714844 1454.617188 1077.714844 1454.472656 1078.710938 C 1454.328125 1079.707031 1454.113281 1080.6875 1453.824219 1081.652344 C 1453.535156 1082.617188 1453.179688 1083.554688 1452.757812 1084.46875 C 1452.335938 1085.378906 1451.847656 1086.257812 1451.296875 1087.101562 C 1450.746094 1087.941406 1450.136719 1088.742188 1449.472656 1089.496094 C 1448.804688 1090.25 1448.085938 1090.949219 1447.320312 1091.601562 C 1446.550781 1092.25 1445.738281 1092.84375 1444.886719 1093.375 C 1444.03125 1093.910156 1443.144531 1094.375 1442.222656 1094.78125 L 757.675781 1395.308594 C 755.007812 1396.480469 752.222656 1397.0625 749.3125 1397.066406 Z M 749.3125 1397.066406 " fill-opacity="1" fill-rule="nonzero"/></g><g clip-path="url(#7c51cbf498)"><path fill="#000000" d="M 64.765625 412.164062 C 63.558594 412.164062 62.363281 412.0625 61.175781 411.855469 C 59.988281 411.648438 58.828125 411.339844 57.695312 410.929688 C 56.5625 410.523438 55.46875 410.019531 54.425781 409.421875 C 53.378906 408.824219 52.390625 408.140625 51.460938 407.371094 C 50.535156 406.605469 49.679688 405.761719 48.898438 404.84375 C 48.117188 403.925781 47.421875 402.949219 46.808594 401.910156 C 46.195312 400.875 45.679688 399.789062 45.253906 398.664062 C 44.832031 397.535156 44.507812 396.378906 44.285156 395.195312 C 44.058594 394.011719 43.941406 392.816406 43.925781 391.613281 C 43.910156 390.40625 43.996094 389.210938 44.1875 388.019531 C 44.378906 386.832031 44.671875 385.667969 45.066406 384.527344 C 45.460938 383.390625 45.949219 382.292969 46.53125 381.242188 C 47.117188 380.1875 47.789062 379.191406 48.542969 378.253906 C 49.300781 377.316406 50.132812 376.449219 51.039062 375.65625 C 51.945312 374.863281 52.914062 374.15625 53.945312 373.53125 C 54.976562 372.90625 56.050781 372.371094 57.175781 371.933594 L 741.722656 104.136719 C 744.160156 103.167969 746.6875 102.683594 749.3125 102.683594 C 751.933594 102.683594 754.464844 103.167969 756.898438 104.136719 L 1441.445312 371.933594 C 1442.128906 372.148438 1442.796875 372.394531 1443.453125 372.675781 C 1444.105469 372.957031 1444.746094 373.269531 1445.371094 373.617188 C 1445.992188 373.964844 1446.597656 374.34375 1447.179688 374.75 C 1447.765625 375.160156 1448.328125 375.597656 1448.867188 376.0625 C 1449.40625 376.53125 1449.921875 377.023438 1450.410156 377.542969 C 1450.898438 378.0625 1451.359375 378.605469 1451.792969 379.171875 C 1452.226562 379.738281 1452.628906 380.324219 1453 380.933594 C 1453.371094 381.542969 1453.714844 382.167969 1454.023438 382.8125 C 1454.332031 383.453125 1454.605469 384.109375 1454.84375 384.78125 C 1455.085938 385.453125 1455.292969 386.136719 1455.464844 386.828125 C 1455.632812 387.519531 1455.769531 388.21875 1455.867188 388.925781 C 1455.96875 389.632812 1456.03125 390.339844 1456.054688 391.054688 C 1456.082031 391.765625 1456.070312 392.476562 1456.023438 393.191406 C 1455.976562 393.902344 1455.894531 394.609375 1455.773438 395.3125 C 1455.65625 396.015625 1455.5 396.710938 1455.308594 397.394531 C 1455.117188 398.082031 1454.890625 398.757812 1454.628906 399.421875 C 1454.371094 400.085938 1454.078125 400.734375 1453.75 401.367188 C 1453.421875 402.003906 1453.0625 402.617188 1452.671875 403.214844 C 1452.28125 403.8125 1451.863281 404.386719 1451.414062 404.941406 C 1450.964844 405.496094 1450.488281 406.023438 1449.984375 406.527344 C 1449.480469 407.03125 1448.949219 407.511719 1448.398438 407.960938 C 1447.84375 408.410156 1447.269531 408.832031 1446.675781 409.222656 C 1446.078125 409.617188 1445.464844 409.976562 1444.832031 410.304688 C 1444.199219 410.632812 1443.550781 410.929688 1442.886719 411.191406 C 1442.222656 411.453125 1441.546875 411.679688 1440.859375 411.871094 C 1440.171875 412.0625 1439.480469 412.21875 1438.777344 412.339844 C 1438.074219 412.460938 1437.367188 412.546875 1436.652344 412.597656 C 1435.941406 412.644531 1435.230469 412.65625 1434.515625 412.632812 C 1433.804688 412.609375 1433.09375 412.546875 1432.386719 412.449219 C 1431.679688 412.351562 1430.980469 412.21875 1430.289062 412.050781 C 1429.597656 411.878906 1428.914062 411.675781 1428.242188 411.4375 C 1427.570312 411.195312 1426.910156 410.921875 1426.269531 410.617188 L 749.3125 145.734375 L 72.355469 410.558594 C 69.925781 411.574219 67.394531 412.113281 64.765625 412.164062 Z M 64.765625 412.164062 " fill-opacity="1" fill-rule="nonzero"/></g><path fill="#000000" d="M 1075.273438 569.480469 C 1072.238281 569.488281 1069.339844 568.851562 1066.582031 567.574219 L 416.917969 268.953125 C 416.296875 268.667969 415.695312 268.351562 415.105469 268.007812 C 414.515625 267.664062 413.945312 267.292969 413.390625 266.890625 C 412.835938 266.492188 412.304688 266.0625 411.796875 265.613281 C 411.285156 265.160156 410.796875 264.683594 410.332031 264.183594 C 409.867188 263.679688 409.429688 263.160156 409.015625 262.617188 C 408.605469 262.070312 408.21875 261.507812 407.863281 260.929688 C 407.503906 260.347656 407.175781 259.75 406.878906 259.136719 C 406.578125 258.523438 406.3125 257.894531 406.074219 257.253906 C 405.835938 256.613281 405.632812 255.964844 405.460938 255.304688 C 405.285156 254.644531 405.144531 253.976562 405.039062 253.304688 C 404.929688 252.628906 404.855469 251.953125 404.816406 251.269531 C 404.773438 250.589844 404.765625 249.90625 404.792969 249.226562 C 404.820312 248.542969 404.878906 247.863281 404.972656 247.1875 C 405.0625 246.511719 405.191406 245.84375 405.347656 245.179688 C 405.507812 244.515625 405.699219 243.859375 405.921875 243.214844 C 406.144531 242.570312 406.398438 241.9375 406.683594 241.316406 C 406.96875 240.699219 407.285156 240.09375 407.628906 239.503906 C 407.972656 238.914062 408.347656 238.34375 408.746094 237.792969 C 409.148438 237.238281 409.574219 236.707031 410.027344 236.199219 C 410.480469 235.6875 410.957031 235.199219 411.457031 234.738281 C 411.960938 234.273438 412.480469 233.835938 413.027344 233.421875 C 413.570312 233.011719 414.132812 232.625 414.714844 232.269531 C 415.296875 231.910156 415.894531 231.585938 416.507812 231.285156 C 417.121094 230.988281 417.75 230.71875 418.390625 230.484375 C 419.03125 230.246094 419.679688 230.042969 420.339844 229.871094 C 421 229.695312 421.667969 229.558594 422.34375 229.449219 C 423.015625 229.34375 423.695312 229.269531 424.375 229.230469 C 425.058594 229.1875 425.738281 229.179688 426.421875 229.207031 C 427.105469 229.234375 427.78125 229.292969 428.460938 229.386719 C 429.136719 229.480469 429.804688 229.605469 430.46875 229.765625 C 431.132812 229.925781 431.789062 230.117188 432.433594 230.339844 C 433.078125 230.5625 433.710938 230.816406 434.332031 231.101562 L 1083.996094 529.726562 C 1085.066406 530.21875 1086.089844 530.800781 1087.0625 531.464844 C 1088.035156 532.132812 1088.945312 532.875 1089.792969 533.695312 C 1090.640625 534.515625 1091.410156 535.402344 1092.109375 536.355469 C 1092.804688 537.308594 1093.414062 538.3125 1093.941406 539.367188 C 1094.46875 540.421875 1094.902344 541.515625 1095.242188 542.644531 C 1095.582031 543.773438 1095.824219 544.925781 1095.96875 546.09375 C 1096.113281 547.265625 1096.15625 548.441406 1096.101562 549.617188 C 1096.046875 550.796875 1095.894531 551.960938 1095.640625 553.113281 C 1095.390625 554.265625 1095.042969 555.386719 1094.597656 556.480469 C 1094.15625 557.574219 1093.621094 558.621094 1093 559.625 C 1092.378906 560.625 1091.675781 561.570312 1090.894531 562.453125 C 1090.113281 563.335938 1089.261719 564.148438 1088.34375 564.886719 C 1087.425781 565.625 1086.449219 566.28125 1085.417969 566.855469 C 1084.386719 567.425781 1083.316406 567.910156 1082.203125 568.300781 C 1081.089844 568.691406 1079.953125 568.988281 1078.789062 569.183594 C 1077.625 569.382812 1076.453125 569.480469 1075.273438 569.480469 Z M 1075.273438 569.480469 " fill-opacity="1" fill-rule="nonzero"/><path fill="#000000" d="M 925.773438 1160.570312 C 924.578125 1160.570312 923.390625 1160.464844 922.210938 1160.261719 C 921.035156 1160.058594 919.882812 1159.753906 918.753906 1159.347656 C 917.628906 1158.945312 916.542969 1158.449219 915.503906 1157.859375 C 914.464844 1157.269531 913.480469 1156.59375 912.554688 1155.835938 C 911.632812 1155.078125 910.777344 1154.242188 910 1153.335938 C 909.21875 1152.429688 908.519531 1151.464844 907.90625 1150.4375 C 907.289062 1149.414062 906.769531 1148.339844 906.339844 1147.226562 C 905.910156 1146.109375 905.578125 1144.964844 905.34375 1143.789062 C 905.113281 1142.617188 904.980469 1141.433594 904.953125 1140.238281 C 904.925781 1139.042969 905 1137.851562 905.175781 1136.667969 C 905.351562 1135.484375 905.628906 1134.328125 906.003906 1133.191406 C 906.378906 1132.054688 906.851562 1130.960938 907.414062 1129.90625 C 907.980469 1128.851562 908.632812 1127.855469 909.367188 1126.910156 C 910.105469 1125.96875 910.917969 1125.097656 911.804688 1124.292969 C 912.691406 1123.492188 913.640625 1122.769531 914.652344 1122.132812 C 915.664062 1121.492188 916.722656 1120.945312 917.828125 1120.488281 L 1212.480469 998.847656 C 1213.113281 998.585938 1213.753906 998.355469 1214.410156 998.15625 C 1215.0625 997.957031 1215.722656 997.792969 1216.394531 997.65625 C 1217.066406 997.523438 1217.738281 997.421875 1218.421875 997.355469 C 1219.101562 997.289062 1219.78125 997.253906 1220.464844 997.253906 C 1221.148438 997.25 1221.832031 997.285156 1222.511719 997.351562 C 1223.191406 997.417969 1223.867188 997.515625 1224.535156 997.648438 C 1225.207031 997.78125 1225.871094 997.945312 1226.523438 998.144531 C 1227.179688 998.34375 1227.820312 998.570312 1228.453125 998.832031 C 1229.085938 999.09375 1229.703125 999.382812 1230.304688 999.707031 C 1230.910156 1000.027344 1231.496094 1000.378906 1232.0625 1000.757812 C 1232.632812 1001.136719 1233.179688 1001.542969 1233.710938 1001.972656 C 1234.238281 1002.40625 1234.742188 1002.863281 1235.226562 1003.347656 C 1235.710938 1003.832031 1236.171875 1004.335938 1236.605469 1004.863281 C 1237.039062 1005.390625 1237.445312 1005.9375 1237.828125 1006.507812 C 1238.207031 1007.074219 1238.558594 1007.660156 1238.882812 1008.261719 C 1239.203125 1008.863281 1239.496094 1009.480469 1239.757812 1010.113281 C 1240.019531 1010.742188 1240.25 1011.386719 1240.449219 1012.039062 C 1240.648438 1012.691406 1240.816406 1013.355469 1240.949219 1014.023438 C 1241.085938 1014.695312 1241.183594 1015.371094 1241.253906 1016.050781 C 1241.320312 1016.730469 1241.355469 1017.410156 1241.355469 1018.09375 C 1241.355469 1018.777344 1241.324219 1019.457031 1241.257812 1020.140625 C 1241.191406 1020.820312 1241.089844 1021.496094 1240.960938 1022.164062 C 1240.828125 1022.835938 1240.660156 1023.496094 1240.464844 1024.152344 C 1240.265625 1024.804688 1240.035156 1025.449219 1239.777344 1026.078125 C 1239.515625 1026.710938 1239.222656 1027.328125 1238.902344 1027.929688 C 1238.582031 1028.535156 1238.230469 1029.121094 1237.851562 1029.6875 C 1237.472656 1030.257812 1237.066406 1030.804688 1236.632812 1031.335938 C 1236.199219 1031.863281 1235.742188 1032.367188 1235.257812 1032.851562 C 1234.777344 1033.335938 1234.269531 1033.796875 1233.742188 1034.230469 C 1233.214844 1034.664062 1232.667969 1035.070312 1232.097656 1035.449219 C 1231.53125 1035.832031 1230.945312 1036.183594 1230.34375 1036.503906 C 1229.742188 1036.828125 1229.125 1037.121094 1228.492188 1037.382812 L 933.839844 1159.023438 C 931.257812 1160.078125 928.566406 1160.59375 925.773438 1160.570312 Z M 925.773438 1160.570312 " fill-opacity="1" fill-rule="nonzero"/></svg>