<svg xmlns="http://www.w3.org/2000/svg" xmlns:xlink="http://www.w3.org/1999/xlink" width="2000" zoomAndPan="magnify" viewBox="0 0 1500 1499.999933" height="2000" preserveAspectRatio="xMidYMid meet" version="1.0"><defs><clipPath id="352ca2a9bf"><path d="M 16.976562 16.976562 L 1478 16.976562 L 1478 1478 L 16.976562 1478 Z M 16.976562 16.976562 " clip-rule="nonzero"/></clipPath></defs><g clip-path="url(#352ca2a9bf)"><path fill="#000000" d="M 534.421875 1111.429688 C 568.917969 1121.757812 603.976562 1129.523438 639.605469 1134.734375 C 675.234375 1139.941406 711.050781 1142.539062 747.058594 1142.519531 C 755.496094 1142.410156 763.929688 1142.164062 772.359375 1141.777344 C 780.789062 1141.390625 789.210938 1140.867188 797.621094 1140.207031 C 806.035156 1139.546875 814.433594 1138.746094 822.820312 1137.8125 C 831.207031 1136.875 839.574219 1135.800781 847.925781 1134.59375 C 856.277344 1133.382812 864.605469 1132.035156 872.910156 1130.554688 C 881.21875 1129.070312 889.5 1127.453125 897.753906 1125.699219 C 906.007812 1123.945312 914.230469 1122.058594 922.421875 1120.035156 C 930.613281 1118.011719 938.773438 1115.855469 946.894531 1113.566406 C 955.015625 1111.273438 963.097656 1108.851562 971.140625 1106.296875 C 979.183594 1103.742188 987.179688 1101.058594 995.132812 1098.242188 C 1003.089844 1095.425781 1010.996094 1092.480469 1018.851562 1089.40625 C 1026.710938 1086.332031 1034.515625 1083.128906 1042.269531 1079.796875 C 1050.023438 1076.464844 1057.71875 1073.007812 1065.359375 1069.425781 C 1073 1065.84375 1080.578125 1062.136719 1088.097656 1058.308594 C 1095.617188 1054.476562 1103.070312 1050.523438 1110.460938 1046.449219 C 1117.847656 1042.375 1125.167969 1038.179688 1132.421875 1033.867188 C 1139.671875 1029.550781 1146.851562 1025.121094 1153.960938 1020.570312 C 1161.066406 1016.019531 1168.097656 1011.355469 1175.050781 1006.578125 C 1182.003906 1001.796875 1188.878906 996.90625 1195.675781 991.902344 C 1202.46875 986.898438 1209.179688 981.78125 1215.804688 976.558594 C 1222.429688 971.335938 1228.972656 966.003906 1235.421875 960.566406 C 1241.875 955.128906 1248.238281 949.585938 1254.507812 943.9375 C 1260.777344 938.292969 1266.957031 932.542969 1273.039062 926.695312 C 1279.121094 920.847656 1285.105469 914.902344 1290.992188 908.855469 C 1296.882812 902.8125 1302.667969 896.671875 1308.355469 890.4375 C 1314.042969 884.203125 1319.625 877.878906 1325.105469 871.460938 C 1330.585938 865.046875 1335.960938 858.539062 1341.226562 851.949219 C 1346.492188 845.355469 1351.652344 838.679688 1356.699219 831.917969 C 1361.75 825.15625 1366.683594 818.3125 1371.507812 811.390625 C 1376.332031 804.46875 1381.042969 797.46875 1385.636719 790.390625 C 1390.234375 783.3125 1394.710938 776.160156 1399.074219 768.9375 C 1403.433594 761.714844 1407.675781 754.421875 1411.800781 747.058594 C 1397.398438 722.015625 1381.707031 697.804688 1364.730469 674.429688 C 1347.753906 651.050781 1329.589844 628.640625 1310.230469 607.199219 C 1290.871094 585.753906 1270.429688 565.394531 1248.90625 546.125 C 1227.386719 526.851562 1204.902344 508.777344 1181.457031 491.894531 C 1180.644531 491.316406 1179.867188 490.699219 1179.113281 490.042969 C 1178.363281 489.386719 1177.648438 488.695312 1176.964844 487.96875 C 1176.28125 487.242188 1175.636719 486.484375 1175.027344 485.695312 C 1174.421875 484.90625 1173.851562 484.085938 1173.324219 483.242188 C 1172.796875 482.398438 1172.3125 481.527344 1171.867188 480.632812 C 1171.425781 479.742188 1171.027344 478.828125 1170.675781 477.898438 C 1170.320312 476.964844 1170.015625 476.015625 1169.753906 475.054688 C 1169.496094 474.09375 1169.28125 473.121094 1169.117188 472.136719 C 1168.953125 471.152344 1168.839844 470.164062 1168.769531 469.171875 C 1168.703125 468.175781 1168.683594 467.179688 1168.714844 466.183594 C 1168.746094 465.1875 1168.824219 464.195312 1168.953125 463.207031 C 1169.082031 462.21875 1169.257812 461.238281 1169.480469 460.269531 C 1169.707031 459.296875 1169.976562 458.339844 1170.292969 457.394531 C 1170.613281 456.449219 1170.976562 455.523438 1171.386719 454.613281 C 1171.792969 453.703125 1172.246094 452.820312 1172.742188 451.953125 C 1173.242188 451.089844 1173.777344 450.25 1174.355469 449.441406 C 1174.933594 448.628906 1175.550781 447.847656 1176.207031 447.097656 C 1176.863281 446.34375 1177.554688 445.628906 1178.277344 444.945312 C 1179.003906 444.261719 1179.761719 443.617188 1180.550781 443.007812 C 1181.339844 442.398438 1182.15625 441.828125 1183.003906 441.300781 C 1183.847656 440.773438 1184.714844 440.285156 1185.609375 439.84375 C 1186.503906 439.398438 1187.414062 439 1188.347656 438.648438 C 1189.277344 438.292969 1190.226562 437.988281 1191.1875 437.726562 C 1192.148438 437.464844 1193.121094 437.253906 1194.105469 437.085938 C 1195.085938 436.921875 1196.078125 436.804688 1197.070312 436.738281 C 1198.066406 436.667969 1199.0625 436.652344 1200.058594 436.679688 C 1201.054688 436.710938 1202.046875 436.789062 1203.035156 436.914062 C 1204.023438 437.042969 1205.003906 437.21875 1205.972656 437.441406 C 1206.945312 437.664062 1207.902344 437.9375 1208.847656 438.253906 C 1209.792969 438.570312 1210.71875 438.933594 1211.628906 439.34375 C 1212.539062 439.75 1213.425781 440.203125 1214.289062 440.699219 C 1215.15625 441.195312 1215.992188 441.730469 1216.804688 442.308594 C 1230.011719 451.820312 1242.941406 461.691406 1255.597656 471.925781 C 1268.253906 482.15625 1280.613281 492.730469 1292.683594 503.648438 C 1304.75 514.566406 1316.503906 525.8125 1327.949219 537.382812 C 1339.390625 548.957031 1350.5 560.839844 1361.28125 573.027344 C 1372.066406 585.21875 1382.5 597.699219 1392.585938 610.46875 C 1402.675781 623.242188 1412.398438 636.28125 1421.761719 649.59375 C 1431.125 662.90625 1440.109375 676.464844 1448.714844 690.277344 C 1457.324219 704.089844 1465.542969 718.128906 1473.367188 732.394531 C 1473.984375 733.515625 1474.527344 734.667969 1474.996094 735.855469 C 1475.46875 737.039062 1475.863281 738.253906 1476.179688 739.488281 C 1476.496094 740.726562 1476.734375 741.976562 1476.894531 743.242188 C 1477.054688 744.511719 1477.136719 745.78125 1477.136719 747.058594 C 1477.136719 748.335938 1477.054688 749.605469 1476.894531 750.871094 C 1476.734375 752.140625 1476.496094 753.390625 1476.179688 754.628906 C 1475.863281 755.863281 1475.46875 757.074219 1474.996094 758.261719 C 1474.527344 759.449219 1473.984375 760.601562 1473.367188 761.722656 C 1468.992188 769.914062 1464.480469 778.035156 1459.828125 786.078125 C 1455.179688 794.121094 1450.398438 802.085938 1445.484375 809.972656 C 1440.570312 817.855469 1435.527344 825.65625 1430.351562 833.371094 C 1425.179688 841.085938 1419.875 848.714844 1414.449219 856.253906 C 1409.019531 863.792969 1403.464844 871.238281 1397.789062 878.59375 C 1392.109375 885.949219 1386.3125 893.203125 1380.390625 900.363281 C 1374.472656 907.523438 1368.433594 914.585938 1362.28125 921.542969 C 1356.125 928.503906 1349.855469 935.355469 1343.472656 942.105469 C 1337.085938 948.855469 1330.59375 955.496094 1323.988281 962.03125 C 1317.382812 968.5625 1310.667969 974.984375 1303.847656 981.292969 C 1297.03125 987.601562 1290.105469 993.796875 1283.082031 999.875 C 1276.054688 1005.953125 1268.929688 1011.910156 1261.703125 1017.75 C 1254.476562 1023.589844 1247.15625 1029.308594 1239.742188 1034.90625 C 1232.324219 1040.5 1224.816406 1045.972656 1217.21875 1051.316406 C 1209.621094 1056.664062 1201.933594 1061.878906 1194.160156 1066.96875 C 1186.390625 1072.058594 1178.535156 1077.015625 1170.59375 1081.84375 C 1162.65625 1086.667969 1154.640625 1091.363281 1146.546875 1095.921875 C 1138.453125 1100.480469 1130.28125 1104.90625 1122.039062 1109.191406 C 1113.796875 1113.476562 1105.488281 1117.625 1097.105469 1121.636719 C 1088.726562 1125.644531 1080.28125 1129.515625 1071.769531 1133.242188 C 1063.261719 1136.96875 1054.691406 1140.554688 1046.0625 1143.996094 C 1037.429688 1147.4375 1028.746094 1150.734375 1020.007812 1153.886719 C 1011.269531 1157.039062 1002.480469 1160.042969 993.640625 1162.902344 C 984.800781 1165.761719 975.914062 1168.472656 966.984375 1171.03125 C 958.054688 1173.59375 949.082031 1176.007812 940.074219 1178.269531 C 931.0625 1180.53125 922.015625 1182.644531 912.933594 1184.605469 C 903.855469 1186.566406 894.742188 1188.375 885.601562 1190.03125 C 876.460938 1191.691406 867.292969 1193.195312 858.101562 1194.546875 C 848.910156 1195.894531 839.699219 1197.09375 830.464844 1198.136719 C 821.234375 1199.179688 811.988281 1200.070312 802.726562 1200.804688 C 793.464844 1201.539062 784.195312 1202.121094 774.914062 1202.546875 C 765.632812 1202.972656 756.347656 1203.246094 747.058594 1203.359375 C 708.09375 1203.371094 669.332031 1200.550781 630.78125 1194.902344 C 592.226562 1189.257812 554.285156 1180.839844 516.960938 1169.65625 C 515.96875 1169.402344 514.992188 1169.101562 514.03125 1168.75 C 513.070312 1168.398438 512.128906 1168 511.207031 1167.554688 C 510.289062 1167.109375 509.390625 1166.617188 508.519531 1166.082031 C 507.648438 1165.546875 506.804688 1164.96875 505.992188 1164.347656 C 505.179688 1163.726562 504.402344 1163.066406 503.65625 1162.363281 C 502.90625 1161.664062 502.199219 1160.929688 501.527344 1160.160156 C 500.855469 1159.386719 500.222656 1158.582031 499.632812 1157.75 C 499.039062 1156.914062 498.492188 1156.050781 497.988281 1155.160156 C 497.484375 1154.269531 497.027344 1153.355469 496.617188 1152.421875 C 496.203125 1151.484375 495.839844 1150.527344 495.523438 1149.554688 C 495.207031 1148.582031 494.941406 1147.59375 494.726562 1146.59375 C 494.511719 1145.59375 494.347656 1144.585938 494.230469 1143.570312 C 494.117188 1142.554688 494.054688 1141.535156 494.042969 1140.511719 C 494.03125 1139.488281 494.070312 1138.464844 494.164062 1137.449219 C 494.253906 1136.429688 494.398438 1135.417969 494.59375 1134.414062 C 494.785156 1133.40625 495.03125 1132.414062 495.324219 1131.433594 C 495.617188 1130.457031 495.960938 1129.492188 496.351562 1128.546875 C 496.742188 1127.601562 497.179688 1126.679688 497.664062 1125.777344 C 498.148438 1124.875 498.675781 1124 499.25 1123.152344 C 499.820312 1122.304688 500.433594 1121.488281 501.089844 1120.703125 C 501.746094 1119.914062 502.4375 1119.164062 503.167969 1118.449219 C 503.898438 1117.734375 504.664062 1117.054688 505.460938 1116.417969 C 506.261719 1115.777344 507.089844 1115.179688 507.949219 1114.625 C 508.808594 1114.070312 509.695312 1113.558594 510.605469 1113.09375 C 511.515625 1112.625 512.449219 1112.207031 513.402344 1111.835938 C 514.355469 1111.464844 515.324219 1111.140625 516.308594 1110.867188 C 517.296875 1110.59375 518.292969 1110.367188 519.300781 1110.195312 C 520.308594 1110.019531 521.324219 1109.898438 522.34375 1109.828125 C 523.363281 1109.757812 524.386719 1109.738281 525.410156 1109.769531 C 526.429688 1109.800781 527.449219 1109.882812 528.464844 1110.019531 C 529.476562 1110.152344 530.484375 1110.339844 531.476562 1110.574219 C 532.472656 1110.808594 533.453125 1111.09375 534.421875 1111.429688 Z M 997.539062 362.304688 C 997.824219 361.351562 998.058594 360.386719 998.25 359.410156 C 998.441406 358.433594 998.582031 357.449219 998.675781 356.457031 C 998.769531 355.46875 998.816406 354.472656 998.8125 353.480469 C 998.808594 352.484375 998.753906 351.492188 998.652344 350.5 C 998.554688 349.511719 998.402344 348.527344 998.207031 347.554688 C 998.007812 346.578125 997.765625 345.613281 997.472656 344.664062 C 997.179688 343.710938 996.839844 342.777344 996.457031 341.859375 C 996.074219 340.941406 995.644531 340.042969 995.175781 339.167969 C 994.703125 338.292969 994.1875 337.441406 993.632812 336.613281 C 993.078125 335.789062 992.484375 334.992188 991.851562 334.226562 C 991.214844 333.457031 990.546875 332.722656 989.839844 332.019531 C 989.136719 331.320312 988.398438 330.652344 987.625 330.023438 C 986.855469 329.394531 986.054688 328.804688 985.226562 328.253906 C 984.398438 327.703125 983.542969 327.195312 982.664062 326.726562 C 981.785156 326.261719 980.886719 325.839844 979.964844 325.460938 C 979.046875 325.082031 978.109375 324.75 977.15625 324.460938 C 939.832031 313.273438 901.890625 304.855469 863.335938 299.210938 C 824.785156 293.5625 786.023438 290.742188 747.058594 290.757812 C 737.769531 290.871094 728.484375 291.144531 719.203125 291.570312 C 709.921875 291.996094 700.652344 292.574219 691.390625 293.3125 C 682.128906 294.046875 672.882812 294.933594 663.648438 295.980469 C 654.417969 297.023438 645.207031 298.21875 636.015625 299.570312 C 626.824219 300.921875 617.65625 302.425781 608.515625 304.082031 C 599.375 305.742188 590.261719 307.550781 581.179688 309.511719 C 572.101562 311.472656 563.054688 313.582031 554.042969 315.847656 C 545.03125 318.109375 536.0625 320.519531 527.132812 323.082031 C 518.203125 325.644531 509.316406 328.355469 500.476562 331.214844 C 491.636719 334.074219 482.847656 337.078125 474.109375 340.230469 C 465.371094 343.382812 456.683594 346.679688 448.054688 350.121094 C 439.425781 353.5625 430.855469 357.148438 422.347656 360.875 C 413.835938 364.601562 405.390625 368.472656 397.011719 372.480469 C 388.628906 376.492188 380.320312 380.636719 372.078125 384.925781 C 363.832031 389.210938 355.664062 393.636719 347.570312 398.195312 C 339.476562 402.753906 331.460938 407.445312 323.519531 412.273438 C 315.582031 417.101562 307.726562 422.058594 299.953125 427.148438 C 292.183594 432.238281 284.496094 437.453125 276.898438 442.800781 C 269.300781 448.144531 261.792969 453.613281 254.375 459.210938 C 246.960938 464.808594 239.640625 470.523438 232.414062 476.367188 C 225.1875 482.207031 218.0625 488.164062 211.035156 494.242188 C 204.011719 500.320312 197.085938 506.515625 190.265625 512.824219 C 183.449219 519.132812 176.734375 525.554688 170.128906 532.085938 C 163.523438 538.617188 157.027344 545.261719 150.644531 552.011719 C 144.261719 558.757812 137.992188 565.613281 131.835938 572.574219 C 125.679688 579.53125 119.644531 586.589844 113.722656 593.75 C 107.804688 600.910156 102.007812 608.167969 96.328125 615.523438 C 90.652344 622.875 85.097656 630.324219 79.667969 637.863281 C 74.238281 645.402344 68.9375 653.027344 63.761719 660.746094 C 58.589844 668.460938 53.542969 676.261719 48.628906 684.144531 C 43.714844 692.03125 38.933594 699.996094 34.285156 708.039062 C 29.636719 716.082031 25.125 724.203125 20.746094 732.394531 C 20.132812 733.515625 19.589844 734.667969 19.117188 735.855469 C 18.648438 737.039062 18.253906 738.253906 17.9375 739.488281 C 17.621094 740.726562 17.378906 741.976562 17.21875 743.242188 C 17.0625 744.511719 16.980469 745.78125 16.980469 747.058594 C 16.980469 748.335938 17.0625 749.605469 17.21875 750.871094 C 17.378906 752.140625 17.621094 753.390625 17.9375 754.628906 C 18.253906 755.863281 18.648438 757.074219 19.117188 758.261719 C 19.589844 759.449219 20.132812 760.601562 20.746094 761.722656 C 28.574219 775.988281 36.792969 790.027344 45.398438 803.839844 C 54.007812 817.652344 62.992188 831.210938 72.355469 844.523438 C 81.71875 857.835938 91.441406 870.875 101.53125 883.648438 C 111.617188 896.417969 122.050781 908.898438 132.832031 921.089844 C 143.613281 933.277344 154.726562 945.160156 166.167969 956.730469 C 177.613281 968.304688 189.367188 979.550781 201.433594 990.46875 C 213.503906 1001.386719 225.863281 1011.960938 238.519531 1022.191406 C 251.175781 1032.421875 264.105469 1042.296875 277.3125 1051.808594 C 278.121094 1052.386719 278.960938 1052.921875 279.824219 1053.421875 C 280.691406 1053.917969 281.578125 1054.371094 282.488281 1054.777344 C 283.394531 1055.1875 284.324219 1055.550781 285.269531 1055.871094 C 286.214844 1056.1875 287.171875 1056.460938 288.144531 1056.683594 C 289.117188 1056.90625 290.097656 1057.082031 291.085938 1057.210938 C 292.074219 1057.339844 293.066406 1057.417969 294.0625 1057.449219 C 295.058594 1057.476562 296.054688 1057.460938 297.050781 1057.390625 C 298.046875 1057.324219 299.035156 1057.207031 300.019531 1057.042969 C 301 1056.878906 301.976562 1056.664062 302.9375 1056.40625 C 303.898438 1056.144531 304.847656 1055.835938 305.78125 1055.484375 C 306.710938 1055.128906 307.625 1054.730469 308.519531 1054.289062 C 309.410156 1053.84375 310.28125 1053.359375 311.125 1052.832031 C 311.972656 1052.300781 312.789062 1051.734375 313.578125 1051.125 C 314.367188 1050.515625 315.125 1049.871094 315.851562 1049.1875 C 316.578125 1048.503906 317.269531 1047.785156 317.925781 1047.035156 C 318.582031 1046.28125 319.199219 1045.5 319.777344 1044.6875 C 320.355469 1043.875 320.894531 1043.039062 321.390625 1042.171875 C 321.886719 1041.308594 322.339844 1040.421875 322.75 1039.511719 C 323.160156 1038.601562 323.523438 1037.675781 323.839844 1036.730469 C 324.160156 1035.785156 324.429688 1034.828125 324.652344 1033.855469 C 324.878906 1032.882812 325.054688 1031.902344 325.179688 1030.914062 C 325.308594 1029.925781 325.386719 1028.933594 325.417969 1027.9375 C 325.449219 1026.9375 325.429688 1025.945312 325.363281 1024.949219 C 325.292969 1023.953125 325.179688 1022.964844 325.011719 1021.980469 C 324.847656 1020.996094 324.636719 1020.023438 324.375 1019.0625 C 324.113281 1018.097656 323.808594 1017.152344 323.453125 1016.21875 C 323.101562 1015.289062 322.703125 1014.375 322.257812 1013.480469 C 321.816406 1012.585938 321.328125 1011.71875 320.800781 1010.871094 C 320.273438 1010.027344 319.703125 1009.210938 319.09375 1008.421875 C 318.484375 1007.628906 317.839844 1006.871094 317.15625 1006.148438 C 316.472656 1005.421875 315.753906 1004.730469 315.003906 1004.074219 C 314.253906 1003.417969 313.472656 1002.800781 312.660156 1002.222656 C 289.214844 985.339844 266.730469 967.265625 245.207031 947.992188 C 223.6875 928.722656 203.246094 908.363281 183.886719 886.917969 C 164.527344 865.472656 146.359375 843.0625 129.386719 819.6875 C 112.410156 796.3125 96.71875 772.101562 82.316406 747.058594 C 86.441406 739.695312 90.683594 732.402344 95.042969 725.179688 C 99.40625 717.953125 103.882812 710.804688 108.476562 703.726562 C 113.074219 696.648438 117.785156 689.648438 122.609375 682.726562 C 127.433594 675.804688 132.367188 668.960938 137.417969 662.199219 C 142.464844 655.4375 147.625 648.761719 152.890625 642.167969 C 158.15625 635.574219 163.53125 629.070312 169.011719 622.652344 C 174.492188 616.238281 180.074219 609.914062 185.761719 603.679688 C 191.449219 597.445312 197.234375 591.304688 203.125 585.261719 C 209.011719 579.214844 214.996094 573.269531 221.078125 567.421875 C 227.160156 561.570312 233.339844 555.824219 239.609375 550.179688 C 245.878906 544.53125 252.242188 538.988281 258.695312 533.550781 C 265.144531 528.113281 271.683594 522.78125 278.3125 517.558594 C 284.9375 512.332031 291.648438 507.21875 298.441406 502.214844 C 305.238281 497.210938 312.109375 492.320312 319.066406 487.539062 C 326.019531 482.757812 333.050781 478.09375 340.15625 473.546875 C 347.265625 468.996094 354.441406 464.566406 361.695312 460.25 C 368.945312 455.9375 376.269531 451.742188 383.65625 447.667969 C 391.046875 443.59375 398.5 439.640625 406.019531 435.808594 C 413.539062 431.980469 421.117188 428.273438 428.757812 424.691406 C 436.398438 421.105469 444.09375 417.648438 451.847656 414.320312 C 459.601562 410.988281 467.40625 407.785156 475.261719 404.710938 C 483.121094 401.636719 491.027344 398.691406 498.980469 395.875 C 506.9375 393.058594 514.933594 390.371094 522.976562 387.816406 C 531.019531 385.261719 539.101562 382.839844 547.222656 380.550781 C 555.34375 378.261719 563.5 376.105469 571.695312 374.082031 C 579.886719 372.058594 588.109375 370.171875 596.363281 368.417969 C 604.617188 366.664062 612.898438 365.046875 621.203125 363.5625 C 629.511719 362.082031 637.839844 360.734375 646.191406 359.523438 C 654.542969 358.3125 662.910156 357.242188 671.296875 356.304688 C 679.683594 355.367188 688.082031 354.570312 696.496094 353.910156 C 704.90625 353.246094 713.328125 352.722656 721.757812 352.339844 C 730.1875 351.953125 738.621094 351.707031 747.058594 351.597656 C 783.066406 351.578125 818.882812 354.171875 854.511719 359.382812 C 890.140625 364.59375 925.199219 372.359375 959.695312 382.6875 C 960.648438 382.972656 961.613281 383.207031 962.589844 383.398438 C 963.566406 383.589844 964.550781 383.730469 965.542969 383.824219 C 966.53125 383.917969 967.523438 383.964844 968.519531 383.960938 C 969.515625 383.957031 970.507812 383.902344 971.5 383.804688 C 972.488281 383.703125 973.472656 383.550781 974.445312 383.355469 C 975.421875 383.15625 976.386719 382.914062 977.335938 382.621094 C 978.289062 382.328125 979.222656 381.992188 980.140625 381.605469 C 981.058594 381.222656 981.957031 380.792969 982.832031 380.324219 C 983.707031 379.851562 984.558594 379.335938 985.386719 378.78125 C 986.210938 378.226562 987.007812 377.632812 987.773438 377 C 988.542969 376.363281 989.277344 375.695312 989.980469 374.988281 C 990.679688 374.285156 991.34375 373.546875 991.976562 372.773438 C 992.605469 372.003906 993.195312 371.203125 993.746094 370.375 C 994.296875 369.546875 994.804688 368.691406 995.269531 367.8125 C 995.738281 366.933594 996.160156 366.035156 996.539062 365.113281 C 996.917969 364.195312 997.25 363.257812 997.539062 362.304688 Z M 747.058594 534.117188 C 765.621094 534.144531 783.871094 536.535156 801.816406 541.296875 C 802.777344 541.550781 803.75 541.761719 804.734375 541.921875 C 805.71875 542.082031 806.707031 542.191406 807.703125 542.257812 C 808.699219 542.320312 809.695312 542.332031 810.691406 542.300781 C 811.6875 542.265625 812.679688 542.179688 813.667969 542.050781 C 814.65625 541.917969 815.632812 541.738281 816.605469 541.507812 C 817.574219 541.28125 818.53125 541.003906 819.476562 540.683594 C 820.417969 540.359375 821.34375 539.992188 822.25 539.578125 C 823.15625 539.164062 824.042969 538.710938 824.90625 538.207031 C 825.765625 537.707031 826.601562 537.167969 827.410156 536.585938 C 828.222656 536.003906 829 535.382812 829.746094 534.722656 C 830.496094 534.066406 831.210938 533.371094 831.890625 532.640625 C 832.570312 531.914062 833.210938 531.152344 833.816406 530.359375 C 834.421875 529.566406 834.988281 528.75 835.511719 527.902344 C 836.039062 527.054688 836.519531 526.183594 836.957031 525.285156 C 837.398438 524.390625 837.792969 523.476562 838.140625 522.542969 C 838.488281 521.609375 838.792969 520.660156 839.046875 519.699219 C 839.304688 518.734375 839.511719 517.761719 839.671875 516.777344 C 839.832031 515.792969 839.945312 514.804688 840.007812 513.808594 C 840.070312 512.8125 840.085938 511.820312 840.050781 510.824219 C 840.015625 509.828125 839.933594 508.835938 839.800781 507.847656 C 839.667969 506.859375 839.488281 505.878906 839.261719 504.910156 C 839.03125 503.9375 838.757812 502.980469 838.433594 502.039062 C 838.113281 501.09375 837.746094 500.167969 837.332031 499.261719 C 836.917969 498.355469 836.460938 497.46875 835.960938 496.609375 C 835.460938 495.746094 834.917969 494.910156 834.335938 494.101562 C 833.753906 493.292969 833.132812 492.511719 832.476562 491.765625 C 831.816406 491.015625 831.121094 490.304688 830.394531 489.621094 C 829.664062 488.941406 828.90625 488.300781 828.113281 487.695312 C 827.320312 487.089844 826.5 486.523438 825.652344 486 C 824.804688 485.476562 823.933594 484.992188 823.039062 484.554688 C 822.144531 484.117188 821.230469 483.722656 820.296875 483.371094 C 819.363281 483.023438 818.414062 482.71875 817.449219 482.464844 C 811.675781 480.917969 805.859375 479.5625 800 478.398438 C 794.136719 477.234375 788.242188 476.261719 782.316406 475.480469 C 776.394531 474.703125 770.449219 474.117188 764.484375 473.730469 C 758.519531 473.339844 752.550781 473.144531 746.574219 473.144531 C 740.597656 473.148438 734.628906 473.34375 728.664062 473.738281 C 722.703125 474.128906 716.757812 474.714844 710.832031 475.496094 C 704.90625 476.277344 699.015625 477.253906 693.152344 478.421875 C 687.292969 479.585938 681.476562 480.945312 675.703125 482.492188 C 669.933594 484.042969 664.214844 485.777344 658.558594 487.699219 C 652.898438 489.621094 647.308594 491.726562 641.789062 494.015625 C 636.269531 496.304688 630.828125 498.773438 625.46875 501.417969 C 620.109375 504.0625 614.84375 506.878906 609.667969 509.867188 C 604.492188 512.859375 599.421875 516.015625 594.453125 519.335938 C 589.484375 522.65625 584.632812 526.140625 579.890625 529.777344 C 575.152344 533.417969 570.535156 537.210938 566.042969 541.152344 C 561.550781 545.09375 557.195312 549.179688 552.96875 553.40625 C 548.746094 557.632812 544.664062 561.992188 540.726562 566.488281 C 536.785156 570.984375 533 575.601562 529.363281 580.34375 C 525.726562 585.085938 522.25 589.945312 518.929688 594.914062 C 515.613281 599.882812 512.460938 604.957031 509.476562 610.136719 C 506.488281 615.3125 503.675781 620.582031 501.035156 625.941406 C 498.394531 631.304688 495.929688 636.746094 493.644531 642.265625 C 491.363281 647.789062 489.261719 653.378906 487.339844 659.039062 C 485.421875 664.699219 483.691406 670.417969 482.148438 676.191406 C 480.601562 681.964844 479.25 687.78125 478.085938 693.644531 C 476.921875 699.503906 475.953125 705.398438 475.175781 711.324219 C 474.398438 717.25 473.816406 723.195312 473.429688 729.160156 C 473.039062 735.121094 472.847656 741.09375 472.851562 747.070312 C 472.855469 753.046875 473.054688 759.015625 473.449219 764.976562 C 473.839844 770.941406 474.429688 776.886719 475.214844 782.808594 C 475.996094 788.734375 476.972656 794.628906 478.140625 800.488281 C 479.3125 806.347656 480.671875 812.164062 482.21875 817.9375 C 482.648438 819.542969 483.207031 821.105469 483.894531 822.621094 C 484.578125 824.136719 485.382812 825.589844 486.304688 826.972656 C 487.230469 828.355469 488.257812 829.65625 489.394531 830.871094 C 490.53125 832.085938 491.761719 833.199219 493.082031 834.214844 C 494.398438 835.226562 495.792969 836.125 497.261719 836.910156 C 498.726562 837.695312 500.25 838.355469 501.824219 838.890625 C 503.398438 839.425781 505.007812 839.828125 506.648438 840.101562 C 508.289062 840.371094 509.941406 840.507812 511.605469 840.507812 C 514.28125 840.480469 516.914062 840.15625 519.515625 839.535156 C 520.476562 839.277344 521.425781 838.972656 522.359375 838.621094 C 523.292969 838.269531 524.203125 837.871094 525.097656 837.429688 C 525.992188 836.988281 526.859375 836.503906 527.707031 835.976562 C 528.554688 835.449219 529.371094 834.882812 530.160156 834.273438 C 530.953125 833.667969 531.710938 833.023438 532.4375 832.339844 C 533.164062 831.65625 533.855469 830.941406 534.511719 830.191406 C 535.167969 829.441406 535.785156 828.660156 536.367188 827.851562 C 536.945312 827.039062 537.484375 826.203125 537.980469 825.339844 C 538.480469 824.472656 538.933594 823.589844 539.34375 822.679688 C 539.753906 821.769531 540.117188 820.84375 540.4375 819.902344 C 540.757812 818.957031 541.03125 818 541.253906 817.027344 C 541.480469 816.058594 541.65625 815.078125 541.785156 814.089844 C 541.914062 813.101562 541.996094 812.109375 542.027344 811.113281 C 542.058594 810.117188 542.039062 809.121094 541.972656 808.125 C 541.90625 807.132812 541.789062 806.140625 541.628906 805.160156 C 541.464844 804.175781 541.25 803.203125 540.992188 802.242188 C 539.945312 798.308594 539.011719 794.351562 538.191406 790.367188 C 537.371094 786.382812 536.664062 782.375 536.074219 778.351562 C 535.480469 774.324219 535.007812 770.285156 534.648438 766.234375 C 534.285156 762.179688 534.042969 758.121094 533.914062 754.054688 C 533.789062 749.988281 533.777344 745.921875 533.882812 741.855469 C 533.984375 737.789062 534.207031 733.726562 534.546875 729.671875 C 534.882812 725.617188 535.335938 721.574219 535.90625 717.546875 C 536.472656 713.519531 537.15625 709.511719 537.957031 705.519531 C 538.753906 701.53125 539.664062 697.566406 540.691406 693.628906 C 541.714844 689.695312 542.851562 685.789062 544.101562 681.917969 C 545.351562 678.042969 546.707031 674.210938 548.175781 670.417969 C 549.644531 666.621094 551.21875 662.871094 552.902344 659.167969 C 554.585938 655.464844 556.371094 651.8125 558.265625 648.210938 C 560.15625 644.605469 562.148438 641.0625 564.242188 637.574219 C 566.339844 634.085938 568.53125 630.660156 570.820312 627.300781 C 573.113281 623.9375 575.496094 620.644531 577.976562 617.417969 C 580.457031 614.191406 583.023438 611.039062 585.683594 607.960938 C 588.34375 604.882812 591.089844 601.882812 593.921875 598.960938 C 596.753906 596.039062 599.664062 593.199219 602.660156 590.445312 C 605.652344 587.691406 608.722656 585.023438 611.871094 582.441406 C 615.015625 579.863281 618.234375 577.375 621.523438 574.980469 C 624.8125 572.585938 628.167969 570.289062 631.585938 568.085938 C 635.007812 565.882812 638.488281 563.777344 642.027344 561.773438 C 645.570312 559.769531 649.164062 557.871094 652.8125 556.070312 C 656.464844 554.273438 660.160156 552.582031 663.910156 550.996094 C 667.65625 549.410156 671.445312 547.929688 675.273438 546.5625 C 679.105469 545.191406 682.972656 543.933594 686.875 542.785156 C 690.78125 541.636719 694.710938 540.601562 698.675781 539.679688 C 702.636719 538.753906 706.621094 537.945312 710.632812 537.25 C 714.640625 536.554688 718.664062 535.976562 722.707031 535.511719 C 726.75 535.046875 730.800781 534.699219 734.863281 534.464844 C 738.925781 534.234375 742.988281 534.117188 747.058594 534.117188 Z M 747.058594 960 C 728.351562 960.003906 709.957031 957.609375 691.875 952.820312 C 690.914062 952.5625 689.9375 952.351562 688.953125 952.191406 C 687.96875 952.03125 686.980469 951.917969 685.984375 951.851562 C 684.988281 951.789062 683.992188 951.773438 682.996094 951.808594 C 681.996094 951.839844 681.003906 951.921875 680.015625 952.054688 C 679.027344 952.1875 678.046875 952.363281 677.074219 952.59375 C 676.105469 952.820312 675.148438 953.09375 674.203125 953.417969 C 673.257812 953.738281 672.332031 954.105469 671.421875 954.519531 C 670.515625 954.933594 669.628906 955.390625 668.765625 955.890625 C 667.902344 956.390625 667.066406 956.929688 666.257812 957.511719 C 665.445312 958.09375 664.667969 958.714844 663.917969 959.375 C 663.167969 960.035156 662.453125 960.726562 661.773438 961.457031 C 661.09375 962.1875 660.449219 962.945312 659.84375 963.738281 C 659.238281 964.53125 658.671875 965.351562 658.144531 966.199219 C 657.621094 967.046875 657.140625 967.921875 656.699219 968.816406 C 656.257812 969.710938 655.863281 970.625 655.515625 971.5625 C 655.164062 972.496094 654.863281 973.445312 654.605469 974.410156 C 654.351562 975.371094 654.140625 976.347656 653.980469 977.332031 C 653.820312 978.316406 653.710938 979.308594 653.644531 980.300781 C 653.582031 981.296875 653.570312 982.292969 653.605469 983.292969 C 653.640625 984.289062 653.722656 985.28125 653.855469 986.269531 C 653.988281 987.257812 654.167969 988.238281 654.398438 989.210938 C 654.625 990.179688 654.902344 991.136719 655.226562 992.082031 C 655.546875 993.027344 655.917969 993.953125 656.332031 994.859375 C 656.746094 995.765625 657.203125 996.652344 657.703125 997.515625 C 658.203125 998.378906 658.746094 999.214844 659.332031 1000.023438 C 659.914062 1000.832031 660.535156 1001.609375 661.195312 1002.359375 C 661.855469 1003.109375 662.550781 1003.820312 663.28125 1004.5 C 664.011719 1005.179688 664.773438 1005.824219 665.566406 1006.429688 C 666.359375 1007.035156 667.179688 1007.597656 668.027344 1008.121094 C 668.875 1008.648438 669.75 1009.128906 670.644531 1009.566406 C 671.542969 1010.003906 672.457031 1010.398438 673.390625 1010.746094 C 674.324219 1011.09375 675.277344 1011.398438 676.242188 1011.652344 C 681.289062 1012.992188 686.375 1014.191406 691.492188 1015.242188 C 696.613281 1016.292969 701.757812 1017.195312 706.925781 1017.953125 C 712.097656 1018.707031 717.285156 1019.316406 722.488281 1019.777344 C 727.695312 1020.238281 732.90625 1020.546875 738.128906 1020.710938 C 743.351562 1020.871094 748.578125 1020.882812 753.800781 1020.746094 C 759.023438 1020.613281 764.238281 1020.324219 769.445312 1019.890625 C 774.652344 1019.457031 779.84375 1018.875 785.015625 1018.140625 C 790.191406 1017.410156 795.339844 1016.53125 800.464844 1015.503906 C 805.585938 1014.480469 810.675781 1013.308594 815.734375 1011.992188 C 820.789062 1010.675781 825.804688 1009.214844 830.777344 1007.613281 C 835.75 1006.007812 840.675781 1004.265625 845.546875 1002.378906 C 850.421875 1000.492188 855.238281 998.472656 859.996094 996.3125 C 864.753906 994.152344 869.445312 991.855469 874.070312 989.429688 C 878.699219 987 883.253906 984.441406 887.734375 981.753906 C 892.214844 979.0625 896.613281 976.25 900.933594 973.308594 C 905.253906 970.367188 909.484375 967.308594 913.628906 964.125 C 917.773438 960.941406 921.824219 957.644531 925.777344 954.230469 C 929.734375 950.816406 933.589844 947.292969 937.34375 943.660156 C 941.097656 940.023438 944.746094 936.285156 948.289062 932.441406 C 951.828125 928.601562 955.257812 924.660156 958.570312 920.621094 C 961.886719 916.582031 965.085938 912.453125 968.164062 908.230469 C 971.242188 904.007812 974.199219 899.703125 977.03125 895.3125 C 979.867188 890.921875 982.570312 886.453125 985.148438 881.910156 C 987.726562 877.363281 990.171875 872.75 992.488281 868.0625 C 994.800781 863.378906 996.980469 858.632812 999.023438 853.824219 C 1001.0625 849.011719 1002.96875 844.148438 1004.730469 839.230469 C 1006.496094 834.3125 1008.121094 829.347656 1009.601562 824.335938 C 1011.082031 819.324219 1012.417969 814.277344 1013.609375 809.1875 C 1014.800781 804.101562 1015.847656 798.984375 1016.746094 793.835938 C 1017.644531 788.6875 1018.398438 783.519531 1019 778.332031 C 1019.605469 773.140625 1020.0625 767.9375 1020.367188 762.71875 C 1020.675781 757.503906 1020.832031 752.285156 1020.839844 747.058594 C 1020.863281 723.046875 1017.78125 699.441406 1011.589844 676.238281 C 1011.347656 675.261719 1011.058594 674.300781 1010.71875 673.351562 C 1010.378906 672.40625 1009.992188 671.476562 1009.5625 670.566406 C 1009.132812 669.65625 1008.65625 668.769531 1008.136719 667.90625 C 1007.617188 667.042969 1007.054688 666.210938 1006.453125 665.402344 C 1005.851562 664.59375 1005.210938 663.820312 1004.53125 663.078125 C 1003.851562 662.332031 1003.136719 661.625 1002.386719 660.953125 C 1001.640625 660.28125 1000.859375 659.648438 1000.046875 659.050781 C 999.234375 658.457031 998.394531 657.902344 997.527344 657.390625 C 996.660156 656.882812 995.769531 656.414062 994.855469 655.992188 C 993.941406 655.566406 993.007812 655.191406 992.054688 654.859375 C 991.105469 654.53125 990.140625 654.246094 989.160156 654.011719 C 988.183594 653.777344 987.191406 653.59375 986.195312 653.457031 C 985.199219 653.320312 984.195312 653.234375 983.191406 653.195312 C 982.183594 653.160156 981.179688 653.171875 980.171875 653.234375 C 979.167969 653.296875 978.167969 653.410156 977.175781 653.574219 C 976.179688 653.734375 975.199219 653.945312 974.226562 654.207031 C 973.25 654.464844 972.292969 654.773438 971.351562 655.128906 C 970.410156 655.484375 969.488281 655.882812 968.585938 656.332031 C 967.683594 656.777344 966.804688 657.265625 965.949219 657.800781 C 965.097656 658.335938 964.269531 658.910156 963.472656 659.523438 C 962.675781 660.140625 961.914062 660.792969 961.179688 661.484375 C 960.449219 662.175781 959.753906 662.902344 959.09375 663.664062 C 958.433594 664.425781 957.8125 665.214844 957.234375 666.039062 C 956.652344 666.859375 956.113281 667.710938 955.617188 668.585938 C 955.117188 669.460938 954.667969 670.359375 954.257812 671.28125 C 953.851562 672.203125 953.488281 673.140625 953.175781 674.097656 C 952.859375 675.054688 952.59375 676.023438 952.375 677.007812 C 952.160156 677.988281 951.988281 678.980469 951.871094 679.980469 C 951.75 680.980469 951.679688 681.984375 951.660156 682.992188 C 951.640625 683.996094 951.671875 685.003906 951.75 686.007812 C 951.828125 687.011719 951.957031 688.007812 952.136719 689 C 952.316406 689.988281 952.542969 690.96875 952.820312 691.9375 C 953.871094 695.867188 954.8125 699.820312 955.636719 703.804688 C 956.464844 707.785156 957.175781 711.789062 957.773438 715.808594 C 958.371094 719.832031 958.851562 723.871094 959.214844 727.921875 C 959.582031 731.972656 959.832031 736.027344 959.964844 740.09375 C 960.097656 744.160156 960.113281 748.222656 960.011719 752.289062 C 959.914062 756.355469 959.699219 760.414062 959.363281 764.46875 C 959.03125 768.519531 958.585938 772.5625 958.019531 776.589844 C 957.457031 780.617188 956.777344 784.625 955.984375 788.613281 C 955.191406 792.601562 954.28125 796.566406 953.261719 800.503906 C 952.242188 804.4375 951.109375 808.34375 949.863281 812.214844 C 948.621094 816.085938 947.265625 819.921875 945.800781 823.714844 C 944.335938 827.507812 942.765625 831.257812 941.085938 834.960938 C 939.410156 838.667969 937.625 842.320312 935.738281 845.921875 C 933.847656 849.523438 931.859375 853.070312 929.765625 856.558594 C 927.675781 860.046875 925.488281 863.46875 923.199219 866.832031 C 920.910156 870.195312 918.53125 873.488281 916.054688 876.714844 C 913.578125 879.941406 911.011719 883.09375 908.351562 886.175781 C 905.695312 889.253906 902.953125 892.253906 900.125 895.175781 C 897.296875 898.097656 894.386719 900.9375 891.394531 903.691406 C 888.402344 906.445312 885.335938 909.113281 882.191406 911.691406 C 879.046875 914.273438 875.828125 916.757812 872.542969 919.15625 C 869.257812 921.550781 865.902344 923.847656 862.484375 926.050781 C 859.066406 928.253906 855.585938 930.359375 852.046875 932.363281 C 848.507812 934.367188 844.914062 936.265625 841.265625 938.0625 C 837.621094 939.863281 833.921875 941.554688 830.175781 943.140625 C 826.433594 944.726562 822.644531 946.203125 818.816406 947.574219 C 814.984375 948.941406 811.121094 950.199219 807.21875 951.347656 C 803.316406 952.496094 799.386719 953.53125 795.425781 954.453125 C 791.464844 955.375 787.480469 956.183594 783.472656 956.875 C 779.464844 957.570312 775.441406 958.148438 771.402344 958.613281 C 767.359375 959.074219 763.308594 959.421875 759.25 959.652344 C 755.1875 959.886719 751.125 960 747.058594 960 Z M 1425.183594 25.859375 L 25.859375 1425.183594 C 25.152344 1425.890625 24.484375 1426.628906 23.851562 1427.398438 C 23.21875 1428.167969 22.625 1428.96875 22.070312 1429.800781 C 21.515625 1430.628906 21.003906 1431.484375 20.535156 1432.363281 C 20.0625 1433.242188 19.636719 1434.144531 19.253906 1435.066406 C 18.875 1435.988281 18.539062 1436.925781 18.25 1437.878906 C 17.957031 1438.832031 17.714844 1439.800781 17.523438 1440.777344 C 17.328125 1441.757812 17.179688 1442.742188 17.082031 1443.734375 C 16.984375 1444.726562 16.9375 1445.722656 16.9375 1446.722656 C 16.9375 1447.71875 16.984375 1448.714844 17.082031 1449.707031 C 17.179688 1450.699219 17.328125 1451.683594 17.523438 1452.664062 C 17.714844 1453.640625 17.957031 1454.609375 18.25 1455.5625 C 18.539062 1456.515625 18.875 1457.457031 19.253906 1458.375 C 19.636719 1459.296875 20.0625 1460.199219 20.535156 1461.078125 C 21.003906 1461.957031 21.515625 1462.8125 22.070312 1463.644531 C 22.625 1464.472656 23.21875 1465.273438 23.851562 1466.042969 C 24.484375 1466.816406 25.152344 1467.554688 25.859375 1468.257812 C 26.5625 1468.964844 27.300781 1469.632812 28.074219 1470.265625 C 28.84375 1470.898438 29.644531 1471.492188 30.472656 1472.046875 C 31.304688 1472.601562 32.15625 1473.113281 33.039062 1473.582031 C 33.917969 1474.054688 34.816406 1474.480469 35.738281 1474.859375 C 36.660156 1475.242188 37.597656 1475.578125 38.554688 1475.867188 C 39.507812 1476.15625 40.476562 1476.398438 41.453125 1476.59375 C 42.433594 1476.789062 43.417969 1476.933594 44.410156 1477.03125 C 45.402344 1477.128906 46.398438 1477.179688 47.394531 1477.179688 C 48.394531 1477.179688 49.386719 1477.128906 50.382812 1477.03125 C 51.375 1476.933594 52.359375 1476.789062 53.335938 1476.59375 C 54.316406 1476.398438 55.28125 1476.15625 56.238281 1475.867188 C 57.191406 1475.578125 58.128906 1475.242188 59.050781 1474.859375 C 59.972656 1474.480469 60.875 1474.054688 61.753906 1473.582031 C 62.632812 1473.113281 63.488281 1472.601562 64.316406 1472.046875 C 65.148438 1471.492188 65.945312 1470.898438 66.71875 1470.265625 C 67.488281 1469.632812 68.226562 1468.964844 68.933594 1468.257812 L 1468.257812 68.933594 C 1468.964844 68.226562 1469.632812 67.488281 1470.265625 66.71875 C 1470.898438 65.945312 1471.492188 65.148438 1472.046875 64.316406 C 1472.601562 63.488281 1473.113281 62.632812 1473.582031 61.753906 C 1474.054688 60.875 1474.480469 59.972656 1474.859375 59.050781 C 1475.242188 58.128906 1475.578125 57.191406 1475.867188 56.238281 C 1476.15625 55.28125 1476.398438 54.316406 1476.59375 53.335938 C 1476.789062 52.359375 1476.933594 51.375 1477.03125 50.378906 C 1477.128906 49.386719 1477.179688 48.394531 1477.179688 47.394531 C 1477.179688 46.398438 1477.128906 45.402344 1477.03125 44.410156 C 1476.933594 43.417969 1476.789062 42.429688 1476.59375 41.453125 C 1476.398438 40.476562 1476.15625 39.507812 1475.867188 38.554688 C 1475.578125 37.597656 1475.242188 36.660156 1474.859375 35.738281 C 1474.480469 34.816406 1474.054688 33.917969 1473.582031 33.039062 C 1473.113281 32.15625 1472.601562 31.304688 1472.046875 30.472656 C 1471.492188 29.644531 1470.898438 28.84375 1470.265625 28.074219 C 1469.632812 27.300781 1468.964844 26.5625 1468.257812 25.859375 C 1467.554688 25.152344 1466.816406 24.484375 1466.042969 23.851562 C 1465.273438 23.21875 1464.472656 22.625 1463.644531 22.070312 C 1462.8125 21.515625 1461.957031 21.003906 1461.078125 20.535156 C 1460.199219 20.0625 1459.296875 19.636719 1458.375 19.253906 C 1457.457031 18.875 1456.515625 18.539062 1455.5625 18.25 C 1454.609375 17.957031 1453.640625 17.714844 1452.664062 17.523438 C 1451.683594 17.328125 1450.699219 17.179688 1449.707031 17.082031 C 1448.714844 16.984375 1447.71875 16.9375 1446.722656 16.9375 C 1445.722656 16.9375 1444.726562 16.984375 1443.734375 17.082031 C 1442.742188 17.179688 1441.757812 17.328125 1440.777344 17.523438 C 1439.800781 17.714844 1438.832031 17.957031 1437.878906 18.25 C 1436.925781 18.539062 1435.988281 18.875 1435.066406 19.253906 C 1434.144531 19.636719 1433.242188 20.0625 1432.363281 20.535156 C 1431.484375 21.003906 1430.628906 21.515625 1429.800781 22.070312 C 1428.96875 22.625 1428.167969 23.21875 1427.398438 23.851562 C 1426.628906 24.484375 1425.890625 25.152344 1425.183594 25.859375 Z M 1425.183594 25.859375 " fill-opacity="1" fill-rule="nonzero"/></g></svg>