<svg xmlns="http://www.w3.org/2000/svg" xmlns:xlink="http://www.w3.org/1999/xlink" width="800" zoomAndPan="magnify" viewBox="0 0 600 599.999999" height="800" preserveAspectRatio="xMidYMid meet" version="1.0"><defs><clipPath id="ad22fdea7c"><path d="M 63 8.636719 L 538.804688 8.636719 L 538.804688 589 L 63 589 Z M 63 8.636719 " clip-rule="nonzero"/></clipPath></defs><g clip-path="url(#ad22fdea7c)"><path fill="#000000" d="M 301.25 8.636719 C 315.808594 8.636719 327.613281 20.441406 327.613281 35.003906 L 327.613281 498.722656 L 493.511719 332.785156 C 503.808594 322.484375 520.492188 322.484375 530.789062 332.785156 C 535.9375 337.9375 538.515625 344.683594 538.515625 351.429688 C 538.515625 358.175781 535.9375 364.921875 530.789062 370.074219 L 319.886719 581.023438 C 309.589844 591.324219 292.90625 591.324219 282.609375 581.023438 L 71.707031 370.074219 C 61.410156 359.773438 61.410156 343.085938 71.707031 332.785156 C 82.007812 322.484375 98.6875 322.484375 108.988281 332.785156 L 274.886719 498.722656 L 274.886719 35.003906 C 274.886719 20.441406 286.691406 8.636719 301.25 8.636719 Z M 301.25 8.636719 " fill-opacity="1" fill-rule="nonzero"/></g></svg>