<svg xmlns="http://www.w3.org/2000/svg" xmlns:xlink="http://www.w3.org/1999/xlink" width="800" zoomAndPan="magnify" viewBox="0 0 600 599.999999" height="800" preserveAspectRatio="xMidYMid meet" version="1.0"><defs><clipPath id="5b3cfbd391"><path d="M 63 8.636719 L 538.804688 8.636719 L 538.804688 589 L 63 589 Z M 63 8.636719 " clip-rule="nonzero"/></clipPath></defs><g clip-path="url(#5b3cfbd391)"><path fill="#ffffff" d="M 301.3125 8.613281 C 315.878906 8.613281 327.683594 20.417969 327.683594 34.980469 L 327.683594 498.71875 L 493.628906 332.777344 C 503.929688 322.476562 520.617188 322.476562 530.917969 332.777344 C 536.066406 337.925781 538.644531 344.671875 538.644531 351.421875 C 538.644531 358.167969 536.066406 364.914062 530.917969 370.0625 L 319.957031 581.023438 C 309.65625 591.324219 292.96875 591.324219 282.671875 581.023438 L 71.710938 370.0625 C 61.410156 359.765625 61.410156 343.078125 71.710938 332.777344 C 82.011719 322.476562 98.699219 322.476562 109 332.777344 L 274.945312 498.71875 L 274.945312 34.980469 C 274.945312 20.417969 286.75 8.613281 301.3125 8.613281 Z M 301.3125 8.613281 " fill-opacity="1" fill-rule="nonzero"/></g></svg>