<svg xmlns="http://www.w3.org/2000/svg" xmlns:xlink="http://www.w3.org/1999/xlink" width="2000" zoomAndPan="magnify" viewBox="0 0 1500 1499.999933" height="2000" preserveAspectRatio="xMidYMid meet" version="1.0"><defs><clipPath id="bd04c5a36f"><path d="M 10.132812 296.832031 L 1489.882812 296.832031 L 1489.882812 1202.832031 L 10.132812 1202.832031 Z M 10.132812 296.832031 " clip-rule="nonzero"/></clipPath></defs><g clip-path="url(#bd04c5a36f)"><path fill="#000000" d="M 1307.511719 816.058594 C 1310.035156 814.441406 1312.515625 812.757812 1314.949219 811.007812 C 1317.378906 809.261719 1319.765625 807.445312 1322.101562 805.570312 C 1324.4375 803.691406 1326.722656 801.753906 1328.957031 799.753906 C 1331.1875 797.753906 1333.363281 795.695312 1335.488281 793.578125 C 1337.609375 791.464844 1339.671875 789.292969 1341.679688 787.0625 C 1343.683594 784.835938 1345.628906 782.558594 1347.511719 780.226562 C 1349.394531 777.894531 1351.214844 775.515625 1352.972656 773.085938 C 1354.726562 770.660156 1356.417969 768.183594 1358.039062 765.667969 C 1359.664062 763.148438 1361.21875 760.585938 1362.703125 757.984375 C 1364.191406 755.382812 1365.605469 752.742188 1366.949219 750.0625 C 1368.292969 747.386719 1369.566406 744.671875 1370.765625 741.925781 C 1371.964844 739.179688 1373.089844 736.402344 1374.140625 733.597656 C 1375.191406 730.789062 1376.164062 727.957031 1377.0625 725.097656 C 1377.960938 722.242188 1378.78125 719.359375 1379.527344 716.457031 C 1380.269531 713.554688 1380.933594 710.632812 1381.523438 707.695312 C 1382.109375 704.757812 1382.617188 701.804688 1383.046875 698.839844 C 1383.476562 695.875 1383.828125 692.898438 1384.097656 689.914062 C 1384.367188 686.929688 1384.554688 683.941406 1384.664062 680.945312 C 1384.773438 677.953125 1384.800781 674.957031 1384.75 671.960938 C 1384.699219 668.964844 1384.570312 665.972656 1384.355469 662.980469 C 1384.144531 659.992188 1383.855469 657.011719 1383.480469 654.039062 C 1383.109375 651.066406 1382.660156 648.105469 1382.128906 645.15625 C 1381.601562 642.207031 1380.992188 639.273438 1380.304688 636.355469 C 1379.617188 633.4375 1378.851562 630.542969 1378.007812 627.667969 C 1377.164062 624.792969 1376.246094 621.941406 1375.25 619.113281 C 1374.253906 616.289062 1373.183594 613.492188 1372.039062 610.722656 C 1370.894531 607.953125 1369.675781 605.214844 1368.382812 602.511719 C 1367.089844 599.808594 1365.726562 597.140625 1364.292969 594.511719 C 1362.855469 591.878906 1361.351562 589.289062 1359.777344 586.738281 C 1358.203125 584.1875 1356.5625 581.683594 1354.855469 579.21875 C 1353.144531 576.757812 1351.371094 574.34375 1349.535156 571.976562 C 1347.695312 569.609375 1345.796875 567.292969 1343.835938 565.027344 C 1341.871094 562.761719 1339.851562 560.550781 1337.769531 558.394531 C 1335.691406 556.238281 1333.550781 554.136719 1331.359375 552.09375 C 1329.167969 550.050781 1326.917969 548.070312 1324.621094 546.144531 C 1322.320312 544.222656 1319.972656 542.363281 1317.574219 540.566406 C 1315.171875 538.773438 1312.726562 537.039062 1310.234375 535.375 C 1307.742188 533.710938 1305.210938 532.113281 1302.632812 530.582031 C 1300.054688 529.050781 1297.4375 527.59375 1294.78125 526.203125 C 1292.125 524.8125 1289.433594 523.496094 1286.707031 522.25 C 1283.980469 521.007812 1281.222656 519.835938 1278.433594 518.738281 C 1275.644531 517.640625 1272.828125 516.617188 1269.984375 515.671875 C 1267.140625 514.722656 1264.273438 513.855469 1261.382812 513.058594 C 1258.492188 512.265625 1255.582031 511.550781 1252.652344 510.914062 C 1249.722656 510.277344 1246.777344 509.71875 1243.820312 509.238281 C 1240.859375 508.761719 1237.890625 508.359375 1234.910156 508.039062 C 1231.929688 507.71875 1228.945312 507.480469 1225.949219 507.316406 C 1222.957031 507.15625 1219.960938 507.078125 1216.964844 507.078125 C 1213.964844 507.078125 1210.972656 507.15625 1207.976562 507.316406 C 1204.984375 507.480469 1201.996094 507.71875 1199.015625 508.039062 C 1196.035156 508.359375 1193.066406 508.761719 1190.109375 509.238281 C 1187.148438 509.71875 1184.203125 510.277344 1181.277344 510.914062 C 1178.347656 511.550781 1175.4375 512.265625 1172.546875 513.058594 C 1169.65625 513.855469 1166.789062 514.722656 1163.945312 515.671875 C 1161.101562 516.617188 1158.285156 517.640625 1155.492188 518.738281 C 1152.703125 519.835938 1149.945312 521.007812 1147.21875 522.25 C 1144.492188 523.496094 1141.804688 524.8125 1139.148438 526.203125 C 1136.492188 527.59375 1133.875 529.054688 1131.296875 530.582031 C 1128.71875 532.113281 1126.183594 533.710938 1123.691406 535.375 C 1121.199219 537.039062 1118.753906 538.773438 1116.355469 540.566406 C 1113.957031 542.363281 1111.605469 544.222656 1109.308594 546.148438 C 1107.007812 548.070312 1104.761719 550.050781 1102.570312 552.09375 C 1100.375 554.136719 1098.238281 556.238281 1096.15625 558.394531 C 1094.078125 560.550781 1092.054688 562.761719 1090.09375 565.027344 C 1088.132812 567.292969 1086.230469 569.609375 1084.394531 571.976562 C 1082.554688 574.34375 1080.78125 576.757812 1079.074219 579.21875 C 1077.367188 581.683594 1075.726562 584.1875 1074.152344 586.738281 C 1072.578125 589.289062 1071.074219 591.878906 1069.636719 594.511719 C 1068.203125 597.140625 1066.839844 599.808594 1065.546875 602.511719 C 1064.253906 605.214844 1063.035156 607.953125 1061.890625 610.722656 C 1060.742188 613.492188 1059.671875 616.289062 1058.675781 619.113281 C 1057.683594 621.941406 1056.761719 624.792969 1055.921875 627.667969 C 1055.078125 630.542969 1054.3125 633.4375 1053.625 636.355469 C 1052.9375 639.273438 1052.328125 642.207031 1051.796875 645.15625 C 1051.269531 648.105469 1050.816406 651.066406 1050.445312 654.039062 C 1050.074219 657.011719 1049.78125 659.992188 1049.570312 662.984375 C 1049.359375 665.972656 1049.226562 668.964844 1049.175781 671.960938 C 1049.125 674.957031 1049.15625 677.953125 1049.265625 680.945312 C 1049.375 683.941406 1049.5625 686.929688 1049.832031 689.914062 C 1050.101562 692.898438 1050.453125 695.875 1050.882812 698.839844 C 1051.308594 701.804688 1051.816406 704.757812 1052.40625 707.695312 C 1052.992188 710.632812 1053.660156 713.554688 1054.402344 716.457031 C 1055.148438 719.359375 1055.96875 722.242188 1056.867188 725.097656 C 1057.765625 727.957031 1058.738281 730.789062 1059.789062 733.597656 C 1060.839844 736.402344 1061.964844 739.179688 1063.164062 741.925781 C 1064.363281 744.671875 1065.632812 747.386719 1066.976562 750.0625 C 1068.324219 752.742188 1069.738281 755.382812 1071.222656 757.984375 C 1072.710938 760.585938 1074.265625 763.148438 1075.886719 765.667969 C 1077.511719 768.183594 1079.199219 770.660156 1080.957031 773.085938 C 1082.710938 775.515625 1084.53125 777.894531 1086.417969 780.226562 C 1088.300781 782.558594 1090.242188 784.835938 1092.25 787.0625 C 1094.253906 789.292969 1096.320312 791.464844 1098.441406 793.578125 C 1100.5625 795.695312 1102.742188 797.753906 1104.972656 799.753906 C 1107.207031 801.753906 1109.488281 803.691406 1111.828125 805.570312 C 1114.164062 807.445312 1116.546875 809.261719 1118.980469 811.007812 C 1121.414062 812.757812 1123.894531 814.441406 1126.417969 816.058594 C 1114.25 819.3125 1102.410156 823.488281 1090.898438 828.585938 C 1079.382812 833.683594 1068.335938 839.644531 1057.75 846.464844 C 1054.976562 841.894531 1052.09375 837.394531 1049.09375 832.96875 C 1046.097656 828.546875 1042.988281 824.199219 1039.769531 819.929688 C 1036.554688 815.660156 1033.230469 811.476562 1029.800781 807.371094 C 1026.375 803.269531 1022.84375 799.257812 1019.214844 795.332031 C 1015.585938 791.410156 1011.859375 787.578125 1008.035156 783.84375 C 1004.210938 780.105469 1000.296875 776.46875 996.289062 772.925781 C 992.285156 769.386719 988.191406 765.949219 984.011719 762.617188 C 979.832031 759.285156 975.574219 756.054688 971.230469 752.9375 C 966.890625 749.816406 962.472656 746.808594 957.976562 743.910156 C 953.484375 741.015625 948.921875 738.230469 944.289062 735.566406 C 939.65625 732.898438 934.957031 730.347656 930.195312 727.917969 C 925.433594 725.484375 920.613281 723.175781 915.738281 720.984375 C 910.859375 718.796875 905.929688 716.734375 900.945312 714.792969 C 895.964844 712.851562 890.9375 711.035156 885.863281 709.347656 C 880.789062 707.660156 875.675781 706.101562 870.527344 704.671875 C 865.375 703.242188 860.1875 701.941406 854.972656 700.769531 C 858.417969 698.851562 861.804688 696.839844 865.140625 694.734375 C 868.476562 692.628906 871.75 690.433594 874.964844 688.148438 C 878.175781 685.863281 881.328125 683.492188 884.410156 681.035156 C 887.492188 678.578125 890.507812 676.039062 893.453125 673.417969 C 896.398438 670.792969 899.265625 668.09375 902.0625 665.3125 C 904.859375 662.53125 907.578125 659.675781 910.21875 656.746094 C 912.855469 653.820312 915.414062 650.820312 917.886719 647.75 C 920.363281 644.679688 922.75 641.546875 925.054688 638.34375 C 927.355469 635.144531 929.570312 631.882812 931.695312 628.5625 C 933.816406 625.238281 935.847656 621.863281 937.785156 618.429688 C 939.726562 614.996094 941.566406 611.511719 943.316406 607.976562 C 945.0625 604.441406 946.710938 600.863281 948.261719 597.238281 C 949.8125 593.613281 951.261719 589.949219 952.609375 586.242188 C 953.960938 582.539062 955.207031 578.800781 956.351562 575.027344 C 957.496094 571.253906 958.535156 567.453125 959.472656 563.625 C 960.40625 559.796875 961.238281 555.941406 961.960938 552.066406 C 962.683594 548.191406 963.300781 544.300781 963.8125 540.390625 C 964.324219 536.480469 964.726562 532.5625 965.019531 528.628906 C 965.316406 524.699219 965.503906 520.761719 965.582031 516.820312 C 965.660156 512.878906 965.632812 508.9375 965.496094 505 C 965.359375 501.058594 965.113281 497.125 964.757812 493.199219 C 964.40625 489.273438 963.945312 485.359375 963.378906 481.457031 C 962.808594 477.554688 962.136719 473.671875 961.355469 469.808594 C 960.574219 465.945312 959.6875 462.105469 958.695312 458.289062 C 957.703125 454.472656 956.609375 450.6875 955.410156 446.933594 C 954.207031 443.175781 952.90625 439.457031 951.503906 435.773438 C 950.097656 432.089844 948.59375 428.445312 946.992188 424.84375 C 945.386719 421.242188 943.6875 417.6875 941.886719 414.179688 C 940.089844 410.671875 938.195312 407.214844 936.207031 403.8125 C 934.21875 400.40625 932.136719 397.058594 929.964844 393.769531 C 927.792969 390.480469 925.53125 387.25 923.183594 384.085938 C 920.832031 380.917969 918.398438 377.820312 915.878906 374.785156 C 913.359375 371.753906 910.757812 368.792969 908.074219 365.902344 C 905.390625 363.011719 902.632812 360.195312 899.796875 357.457031 C 896.960938 354.71875 894.050781 352.0625 891.066406 349.480469 C 888.085938 346.902344 885.03125 344.40625 881.914062 341.996094 C 878.792969 339.582031 875.609375 337.257812 872.363281 335.023438 C 869.117188 332.785156 865.808594 330.636719 862.445312 328.582031 C 859.078125 326.527344 855.660156 324.566406 852.1875 322.695312 C 848.714844 320.828125 845.191406 319.054688 841.625 317.382812 C 838.054688 315.707031 834.441406 314.128906 830.785156 312.652344 C 827.125 311.175781 823.433594 309.800781 819.699219 308.527344 C 815.96875 307.253906 812.203125 306.082031 808.40625 305.011719 C 804.609375 303.945312 800.789062 302.984375 796.9375 302.125 C 793.089844 301.265625 789.21875 300.515625 785.328125 299.867188 C 781.4375 299.222656 777.535156 298.683594 773.613281 298.253906 C 769.695312 297.820312 765.765625 297.496094 761.828125 297.28125 C 757.890625 297.066406 753.949219 296.957031 750.003906 296.957031 C 746.0625 296.957031 742.121094 297.066406 738.183594 297.28125 C 734.242188 297.496094 730.316406 297.820312 726.394531 298.253906 C 722.476562 298.683594 718.570312 299.222656 714.679688 299.867188 C 710.789062 300.515625 706.917969 301.265625 703.070312 302.125 C 699.21875 302.984375 695.398438 303.945312 691.601562 305.011719 C 687.804688 306.082031 684.039062 307.253906 680.308594 308.527344 C 676.578125 309.800781 672.882812 311.175781 669.226562 312.652344 C 665.570312 314.128906 661.957031 315.707031 658.386719 317.382812 C 654.816406 319.058594 651.292969 320.828125 647.820312 322.695312 C 644.347656 324.566406 640.929688 326.527344 637.5625 328.582031 C 634.199219 330.636719 630.894531 332.785156 627.644531 335.023438 C 624.398438 337.257812 621.214844 339.582031 618.09375 341.996094 C 614.976562 344.40625 611.925781 346.902344 608.941406 349.480469 C 605.957031 352.0625 603.050781 354.71875 600.210938 357.457031 C 597.375 360.195312 594.617188 363.011719 591.933594 365.902344 C 589.25 368.792969 586.652344 371.753906 584.128906 374.785156 C 581.609375 377.820312 579.175781 380.917969 576.828125 384.085938 C 574.476562 387.25 572.214844 390.480469 570.042969 393.769531 C 567.871094 397.058594 565.789062 400.40625 563.800781 403.8125 C 561.8125 407.214844 559.921875 410.671875 558.121094 414.179688 C 556.320312 417.6875 554.621094 421.242188 553.015625 424.84375 C 551.414062 428.445312 549.910156 432.089844 548.503906 435.773438 C 547.101562 439.457031 545.800781 443.179688 544.601562 446.933594 C 543.402344 450.6875 542.304688 454.472656 541.3125 458.289062 C 540.320312 462.105469 539.433594 465.945312 538.652344 469.808594 C 537.871094 473.675781 537.199219 477.554688 536.628906 481.457031 C 536.0625 485.359375 535.601562 489.273438 535.25 493.199219 C 534.894531 497.125 534.652344 501.058594 534.515625 505 C 534.375 508.9375 534.347656 512.878906 534.425781 516.820312 C 534.507812 520.761719 534.691406 524.699219 534.988281 528.628906 C 535.285156 532.5625 535.6875 536.480469 536.195312 540.390625 C 536.707031 544.300781 537.324219 548.191406 538.046875 552.066406 C 538.773438 555.941406 539.601562 559.796875 540.539062 563.625 C 541.472656 567.453125 542.511719 571.257812 543.65625 575.027344 C 544.800781 578.800781 546.046875 582.539062 547.398438 586.246094 C 548.746094 589.949219 550.195312 593.613281 551.746094 597.238281 C 553.296875 600.863281 554.945312 604.441406 556.695312 607.976562 C 558.441406 611.511719 560.285156 614.996094 562.222656 618.429688 C 564.160156 621.863281 566.191406 625.238281 568.316406 628.5625 C 570.4375 631.882812 572.652344 635.144531 574.953125 638.34375 C 577.257812 641.546875 579.644531 644.679688 582.121094 647.75 C 584.59375 650.820312 587.152344 653.820312 589.792969 656.746094 C 592.429688 659.675781 595.148438 662.53125 597.945312 665.3125 C 600.742188 668.09375 603.613281 670.792969 606.554688 673.417969 C 609.5 676.039062 612.515625 678.578125 615.597656 681.035156 C 618.683594 683.492188 621.832031 685.863281 625.046875 688.148438 C 628.257812 690.433594 631.535156 692.628906 634.867188 694.734375 C 638.203125 696.839844 641.59375 698.851562 645.035156 700.769531 C 639.820312 701.941406 634.636719 703.242188 629.484375 704.671875 C 624.332031 706.101562 619.21875 707.660156 614.144531 709.347656 C 609.070312 711.035156 604.042969 712.851562 599.0625 714.792969 C 594.082031 716.734375 589.152344 718.796875 584.273438 720.984375 C 579.394531 723.175781 574.574219 725.484375 569.8125 727.917969 C 565.050781 730.347656 560.355469 732.898438 555.71875 735.566406 C 551.085938 738.230469 546.523438 741.015625 542.03125 743.910156 C 537.539062 746.808594 533.121094 749.816406 528.777344 752.9375 C 524.4375 756.058594 520.175781 759.285156 515.996094 762.617188 C 511.816406 765.949219 507.722656 769.386719 503.71875 772.929688 C 499.710938 776.46875 495.796875 780.105469 491.972656 783.84375 C 488.152344 787.578125 484.425781 791.410156 480.792969 795.332031 C 477.164062 799.257812 473.632812 803.269531 470.207031 807.371094 C 466.777344 811.476562 463.457031 815.660156 460.238281 819.929688 C 457.019531 824.199219 453.914062 828.546875 450.914062 832.96875 C 447.914062 837.394531 445.03125 841.894531 442.257812 846.464844 C 431.675781 839.640625 420.625 833.675781 409.109375 828.578125 C 397.59375 823.476562 385.753906 819.296875 373.589844 816.042969 C 376.113281 814.425781 378.589844 812.742188 381.023438 810.992188 C 383.457031 809.242188 385.84375 807.429688 388.179688 805.550781 C 390.515625 803.675781 392.800781 801.734375 395.03125 799.734375 C 397.265625 797.738281 399.441406 795.679688 401.5625 793.5625 C 403.6875 791.445312 405.75 789.273438 407.757812 787.046875 C 409.761719 784.820312 411.707031 782.542969 413.589844 780.210938 C 415.472656 777.878906 417.292969 775.5 419.050781 773.070312 C 420.804688 770.640625 422.496094 768.167969 424.117188 765.648438 C 425.742188 763.128906 427.296875 760.570312 428.78125 757.964844 C 430.269531 755.363281 431.683594 752.722656 433.027344 750.046875 C 434.371094 747.367188 435.644531 744.65625 436.84375 741.910156 C 438.042969 739.164062 439.167969 736.386719 440.214844 733.578125 C 441.265625 730.773438 442.242188 727.941406 443.140625 725.082031 C 444.039062 722.222656 444.859375 719.34375 445.601562 716.441406 C 446.347656 713.535156 447.011719 710.617188 447.601562 707.675781 C 448.1875 704.738281 448.695312 701.789062 449.125 698.820312 C 449.554688 695.855469 449.902344 692.882812 450.171875 689.898438 C 450.441406 686.914062 450.632812 683.921875 450.742188 680.929688 C 450.851562 677.933594 450.878906 674.9375 450.828125 671.941406 C 450.777344 668.945312 450.644531 665.953125 450.433594 662.964844 C 450.222656 659.976562 449.929688 656.996094 449.558594 654.019531 C 449.1875 651.046875 448.738281 648.085938 448.207031 645.136719 C 447.675781 642.1875 447.066406 639.253906 446.378906 636.339844 C 445.691406 633.421875 444.929688 630.527344 444.085938 627.648438 C 443.242188 624.773438 442.324219 621.921875 441.328125 619.097656 C 440.332031 616.269531 439.261719 613.472656 438.117188 610.703125 C 436.972656 607.933594 435.75 605.199219 434.460938 602.496094 C 433.167969 599.789062 431.804688 597.125 430.367188 594.492188 C 428.933594 591.863281 427.429688 589.273438 425.855469 586.722656 C 424.28125 584.171875 422.640625 581.664062 420.929688 579.203125 C 419.222656 576.742188 417.449219 574.328125 415.613281 571.960938 C 413.773438 569.59375 411.875 567.277344 409.910156 565.011719 C 407.949219 562.746094 405.929688 560.535156 403.847656 558.375 C 401.765625 556.21875 399.628906 554.121094 397.4375 552.078125 C 395.242188 550.035156 392.996094 548.050781 390.699219 546.128906 C 388.398438 544.207031 386.046875 542.347656 383.648438 540.550781 C 381.25 538.753906 378.804688 537.023438 376.3125 535.359375 C 373.820312 533.691406 371.285156 532.09375 368.707031 530.566406 C 366.132812 529.035156 363.515625 527.574219 360.859375 526.1875 C 358.203125 524.796875 355.511719 523.480469 352.785156 522.234375 C 350.058594 520.988281 347.300781 519.816406 344.511719 518.71875 C 341.722656 517.621094 338.90625 516.601562 336.0625 515.652344 C 333.21875 514.707031 330.351562 513.835938 327.460938 513.042969 C 324.570312 512.25 321.660156 511.535156 318.730469 510.898438 C 315.800781 510.261719 312.855469 509.703125 309.898438 509.222656 C 306.9375 508.742188 303.96875 508.34375 300.988281 508.023438 C 298.007812 507.703125 295.019531 507.460938 292.027344 507.300781 C 289.035156 507.140625 286.039062 507.058594 283.042969 507.058594 C 280.042969 507.058594 277.046875 507.140625 274.054688 507.300781 C 271.0625 507.460938 268.074219 507.703125 265.09375 508.023438 C 262.113281 508.34375 259.144531 508.742188 256.183594 509.222656 C 253.226562 509.703125 250.28125 510.261719 247.351562 510.898438 C 244.425781 511.535156 241.515625 512.25 238.625 513.042969 C 235.734375 513.835938 232.867188 514.707031 230.019531 515.652344 C 227.175781 516.601562 224.359375 517.621094 221.570312 518.71875 C 218.78125 519.816406 216.023438 520.988281 213.296875 522.234375 C 210.570312 523.480469 207.878906 524.796875 205.222656 526.1875 C 202.566406 527.574219 199.953125 529.035156 197.375 530.566406 C 194.796875 532.09375 192.261719 533.691406 189.769531 535.359375 C 187.277344 537.023438 184.832031 538.753906 182.433594 540.550781 C 180.035156 542.347656 177.683594 544.207031 175.386719 546.128906 C 173.085938 548.050781 170.839844 550.035156 168.644531 552.078125 C 166.453125 554.121094 164.316406 556.21875 162.234375 558.375 C 160.15625 560.535156 158.132812 562.746094 156.171875 565.011719 C 154.210938 567.277344 152.308594 569.59375 150.472656 571.960938 C 148.632812 574.328125 146.859375 576.742188 145.152344 579.203125 C 143.445312 581.664062 141.800781 584.171875 140.226562 586.722656 C 138.652344 589.273438 137.148438 591.863281 135.714844 594.492188 C 134.277344 597.125 132.914062 599.789062 131.621094 602.496094 C 130.332031 605.199219 129.113281 607.933594 127.964844 610.703125 C 126.820312 613.472656 125.75 616.269531 124.753906 619.097656 C 123.757812 621.921875 122.839844 624.773438 121.996094 627.648438 C 121.15625 630.527344 120.390625 633.421875 119.703125 636.339844 C 119.015625 639.253906 118.40625 642.1875 117.875 645.136719 C 117.34375 648.085938 116.894531 651.046875 116.523438 654.019531 C 116.152344 656.996094 115.859375 659.976562 115.648438 662.964844 C 115.4375 665.953125 115.304688 668.945312 115.253906 671.941406 C 115.203125 674.9375 115.230469 677.933594 115.339844 680.929688 C 115.449219 683.921875 115.640625 686.914062 115.910156 689.898438 C 116.179688 692.882812 116.527344 695.855469 116.957031 698.820312 C 117.386719 701.789062 117.894531 704.738281 118.484375 707.679688 C 119.070312 710.617188 119.734375 713.535156 120.480469 716.441406 C 121.222656 719.34375 122.042969 722.222656 122.941406 725.082031 C 123.839844 727.941406 124.816406 730.773438 125.867188 733.578125 C 126.917969 736.386719 128.042969 739.164062 129.238281 741.910156 C 130.4375 744.65625 131.710938 747.367188 133.054688 750.046875 C 134.398438 752.722656 135.816406 755.363281 137.300781 757.964844 C 138.789062 760.570312 140.34375 763.128906 141.964844 765.648438 C 143.589844 768.167969 145.277344 770.640625 147.035156 773.070312 C 148.789062 775.5 150.609375 777.878906 152.492188 780.210938 C 154.375 782.542969 156.320312 784.820312 158.328125 787.046875 C 160.332031 789.273438 162.394531 791.445312 164.519531 793.5625 C 166.640625 795.679688 168.816406 797.738281 171.050781 799.734375 C 173.28125 801.734375 175.566406 803.675781 177.902344 805.550781 C 180.238281 807.429688 182.625 809.242188 185.058594 810.992188 C 187.492188 812.742188 189.972656 814.425781 192.496094 816.042969 C 189.261719 816.910156 186.050781 817.839844 182.855469 818.839844 C 179.664062 819.835938 176.492188 820.898438 173.339844 822.027344 C 170.191406 823.15625 167.066406 824.34375 163.964844 825.601562 C 160.863281 826.855469 157.785156 828.175781 154.738281 829.554688 C 151.691406 830.933594 148.671875 832.378906 145.683594 833.882812 C 142.695312 835.386719 139.738281 836.949219 136.816406 838.574219 C 133.890625 840.199219 131 841.882812 128.144531 843.625 C 125.289062 845.367188 122.46875 847.167969 119.6875 849.027344 C 116.902344 850.886719 114.160156 852.800781 111.457031 854.769531 C 108.753906 856.738281 106.089844 858.765625 103.46875 860.84375 C 100.847656 862.921875 98.269531 865.054688 95.734375 867.238281 C 93.203125 869.421875 90.710938 871.65625 88.269531 873.941406 C 85.828125 876.226562 83.433594 878.5625 81.085938 880.945312 C 78.738281 883.328125 76.441406 885.761719 74.191406 888.238281 C 71.945312 890.714844 69.746094 893.238281 67.601562 895.804688 C 65.457031 898.371094 63.367188 900.980469 61.328125 903.632812 C 59.289062 906.285156 57.304688 908.980469 55.378906 911.714844 C 53.449219 914.449219 51.578125 917.21875 49.761719 920.03125 C 47.949219 922.839844 46.191406 925.683594 44.492188 928.566406 C 42.796875 931.449219 41.15625 934.363281 39.578125 937.3125 C 37.996094 940.261719 36.480469 943.242188 35.023438 946.253906 C 33.5625 949.261719 32.167969 952.300781 30.835938 955.371094 C 29.503906 958.4375 28.230469 961.53125 27.027344 964.652344 C 25.820312 967.769531 24.675781 970.914062 23.597656 974.082031 C 22.519531 977.246094 21.507812 980.433594 20.558594 983.640625 C 19.609375 986.847656 18.726562 990.074219 17.910156 993.320312 C 17.097656 996.5625 16.347656 999.820312 15.664062 1003.09375 C 14.980469 1006.371094 14.363281 1009.65625 13.816406 1012.957031 C 13.265625 1016.257812 12.785156 1019.566406 12.375 1022.882812 C 11.960938 1026.203125 11.613281 1029.53125 11.335938 1032.863281 C 11.058594 1036.195312 10.851562 1039.535156 10.710938 1042.875 C 10.570312 1046.21875 10.496094 1049.5625 10.492188 1052.90625 L 10.492188 1185.4375 C 10.492188 1186.007812 10.519531 1186.578125 10.578125 1187.148438 C 10.632812 1187.714844 10.714844 1188.28125 10.828125 1188.84375 C 10.941406 1189.402344 11.078125 1189.957031 11.246094 1190.503906 C 11.410156 1191.050781 11.601562 1191.589844 11.820312 1192.117188 C 12.042969 1192.644531 12.285156 1193.164062 12.554688 1193.667969 C 12.824219 1194.171875 13.117188 1194.660156 13.4375 1195.136719 C 13.753906 1195.613281 14.09375 1196.070312 14.457031 1196.511719 C 14.820312 1196.957031 15.203125 1197.378906 15.609375 1197.785156 C 16.011719 1198.1875 16.4375 1198.570312 16.878906 1198.933594 C 17.320312 1199.296875 17.78125 1199.636719 18.257812 1199.953125 C 18.730469 1200.273438 19.222656 1200.566406 19.726562 1200.835938 C 20.230469 1201.105469 20.746094 1201.351562 21.277344 1201.570312 C 21.804688 1201.789062 22.34375 1201.980469 22.890625 1202.144531 C 23.4375 1202.3125 23.992188 1202.449219 24.554688 1202.5625 C 25.113281 1202.675781 25.679688 1202.757812 26.25 1202.8125 C 26.820312 1202.871094 27.390625 1202.898438 27.960938 1202.898438 L 1472.054688 1202.898438 C 1472.625 1202.898438 1473.195312 1202.871094 1473.765625 1202.8125 C 1474.335938 1202.757812 1474.898438 1202.675781 1475.460938 1202.5625 C 1476.023438 1202.449219 1476.578125 1202.3125 1477.125 1202.144531 C 1477.671875 1201.980469 1478.210938 1201.789062 1478.738281 1201.570312 C 1479.265625 1201.351562 1479.785156 1201.105469 1480.289062 1200.835938 C 1480.792969 1200.566406 1481.28125 1200.273438 1481.757812 1199.953125 C 1482.234375 1199.636719 1482.691406 1199.296875 1483.136719 1198.933594 C 1483.578125 1198.570312 1484 1198.1875 1484.40625 1197.785156 C 1484.808594 1197.378906 1485.195312 1196.957031 1485.558594 1196.511719 C 1485.917969 1196.070312 1486.261719 1195.613281 1486.578125 1195.136719 C 1486.894531 1194.660156 1487.191406 1194.171875 1487.460938 1193.667969 C 1487.730469 1193.164062 1487.972656 1192.644531 1488.191406 1192.117188 C 1488.410156 1191.589844 1488.605469 1191.050781 1488.769531 1190.503906 C 1488.9375 1189.957031 1489.074219 1189.402344 1489.1875 1188.84375 C 1489.296875 1188.28125 1489.382812 1187.714844 1489.4375 1187.148438 C 1489.496094 1186.578125 1489.523438 1186.007812 1489.523438 1185.4375 L 1489.523438 1052.90625 C 1489.519531 1049.5625 1489.445312 1046.21875 1489.304688 1042.875 C 1489.164062 1039.535156 1488.953125 1036.195312 1488.675781 1032.863281 C 1488.398438 1029.53125 1488.050781 1026.203125 1487.640625 1022.886719 C 1487.226562 1019.566406 1486.746094 1016.257812 1486.195312 1012.957031 C 1485.648438 1009.660156 1485.03125 1006.371094 1484.347656 1003.097656 C 1483.664062 999.824219 1482.914062 996.566406 1482.097656 993.320312 C 1481.28125 990.078125 1480.398438 986.851562 1479.449219 983.644531 C 1478.503906 980.4375 1477.488281 977.25 1476.410156 974.085938 C 1475.332031 970.917969 1474.191406 967.773438 1472.984375 964.65625 C 1471.777344 961.535156 1470.503906 958.441406 1469.171875 955.375 C 1467.839844 952.308594 1466.445312 949.269531 1464.984375 946.257812 C 1463.527344 943.246094 1462.007812 940.265625 1460.429688 937.320312 C 1458.851562 934.371094 1457.210938 931.457031 1455.511719 928.574219 C 1453.8125 925.691406 1452.058594 922.847656 1450.242188 920.035156 C 1448.425781 917.226562 1446.554688 914.457031 1444.628906 911.722656 C 1442.699219 908.988281 1440.714844 906.296875 1438.679688 903.644531 C 1436.640625 900.992188 1434.546875 898.378906 1432.402344 895.8125 C 1430.257812 893.246094 1428.0625 890.726562 1425.8125 888.246094 C 1423.566406 885.769531 1421.269531 883.339844 1418.921875 880.957031 C 1416.574219 878.574219 1414.175781 876.238281 1411.734375 873.953125 C 1409.292969 871.667969 1406.804688 869.433594 1404.269531 867.25 C 1401.734375 865.066406 1399.15625 862.933594 1396.535156 860.855469 C 1393.914062 858.777344 1391.253906 856.753906 1388.546875 854.78125 C 1385.84375 852.8125 1383.101562 850.898438 1380.320312 849.039062 C 1377.535156 847.183594 1374.71875 845.382812 1371.859375 843.640625 C 1369.003906 841.898438 1366.113281 840.214844 1363.191406 838.589844 C 1360.265625 836.964844 1357.308594 835.402344 1354.320312 833.898438 C 1351.332031 832.394531 1348.3125 830.949219 1345.265625 829.570312 C 1342.21875 828.191406 1339.144531 826.871094 1336.042969 825.617188 C 1332.941406 824.363281 1329.816406 823.171875 1326.664062 822.042969 C 1323.515625 820.917969 1320.34375 819.855469 1317.148438 818.855469 C 1313.957031 817.859375 1310.742188 816.925781 1307.511719 816.058594 Z M 1084.097656 674.929688 C 1084.097656 672.757812 1084.152344 670.582031 1084.257812 668.414062 C 1084.367188 666.242188 1084.527344 664.074219 1084.738281 661.910156 C 1084.953125 659.75 1085.21875 657.59375 1085.535156 655.441406 C 1085.855469 653.292969 1086.226562 651.152344 1086.652344 649.019531 C 1087.074219 646.886719 1087.550781 644.765625 1088.082031 642.660156 C 1088.609375 640.550781 1089.1875 638.457031 1089.820312 636.375 C 1090.449219 634.296875 1091.132812 632.234375 1091.863281 630.1875 C 1092.597656 628.140625 1093.378906 626.113281 1094.210938 624.105469 C 1095.042969 622.097656 1095.925781 620.109375 1096.855469 618.144531 C 1097.785156 616.179688 1098.761719 614.238281 1099.785156 612.324219 C 1100.8125 610.40625 1101.882812 608.515625 1103 606.648438 C 1104.117188 604.785156 1105.28125 602.949219 1106.488281 601.144531 C 1107.695312 599.335938 1108.949219 597.558594 1110.242188 595.8125 C 1111.539062 594.066406 1112.875 592.355469 1114.253906 590.671875 C 1115.632812 588.992188 1117.054688 587.347656 1118.515625 585.738281 C 1119.972656 584.125 1121.472656 582.554688 1123.011719 581.015625 C 1124.546875 579.480469 1126.121094 577.980469 1127.734375 576.519531 C 1129.34375 575.0625 1130.988281 573.640625 1132.671875 572.261719 C 1134.351562 570.882812 1136.066406 569.546875 1137.8125 568.25 C 1139.558594 566.957031 1141.335938 565.707031 1143.140625 564.496094 C 1144.949219 563.289062 1146.785156 562.128906 1148.652344 561.007812 C 1150.515625 559.890625 1152.40625 558.820312 1154.324219 557.796875 C 1156.242188 556.769531 1158.183594 555.792969 1160.148438 554.863281 C 1162.113281 553.933594 1164.101562 553.054688 1166.109375 552.222656 C 1168.121094 551.390625 1170.148438 550.609375 1172.195312 549.875 C 1174.242188 549.144531 1176.304688 548.460938 1178.386719 547.828125 C 1180.46875 547.199219 1182.5625 546.617188 1184.671875 546.089844 C 1186.78125 545.5625 1188.902344 545.085938 1191.035156 544.660156 C 1193.167969 544.238281 1195.308594 543.863281 1197.460938 543.546875 C 1199.609375 543.226562 1201.765625 542.960938 1203.929688 542.746094 C 1206.09375 542.535156 1208.261719 542.375 1210.433594 542.265625 C 1212.605469 542.160156 1214.777344 542.105469 1216.953125 542.105469 C 1219.128906 542.105469 1221.300781 542.160156 1223.472656 542.265625 C 1225.644531 542.371094 1227.8125 542.53125 1229.976562 542.742188 C 1232.140625 542.957031 1234.296875 543.222656 1236.449219 543.539062 C 1238.601562 543.859375 1240.742188 544.230469 1242.875 544.652344 C 1245.007812 545.078125 1247.128906 545.554688 1249.238281 546.082031 C 1251.347656 546.609375 1253.441406 547.1875 1255.523438 547.820312 C 1257.601562 548.449219 1259.667969 549.128906 1261.714844 549.863281 C 1263.761719 550.59375 1265.789062 551.375 1267.800781 552.207031 C 1269.808594 553.039062 1271.796875 553.917969 1273.761719 554.847656 C 1275.726562 555.777344 1277.667969 556.753906 1279.585938 557.777344 C 1281.503906 558.800781 1283.394531 559.871094 1285.261719 560.988281 C 1287.125 562.105469 1288.964844 563.269531 1290.773438 564.476562 C 1292.578125 565.683594 1294.359375 566.933594 1296.105469 568.226562 C 1297.851562 569.523438 1299.566406 570.859375 1301.246094 572.238281 C 1302.925781 573.617188 1304.574219 575.035156 1306.183594 576.496094 C 1307.796875 577.953125 1309.371094 579.453125 1310.910156 580.988281 C 1312.445312 582.523438 1313.945312 584.097656 1315.40625 585.707031 C 1316.867188 587.320312 1318.285156 588.964844 1319.667969 590.644531 C 1321.046875 592.324219 1322.382812 594.035156 1323.679688 595.78125 C 1324.976562 597.527344 1326.226562 599.304688 1327.4375 601.109375 C 1328.644531 602.917969 1329.808594 604.753906 1330.925781 606.617188 C 1332.042969 608.480469 1333.117188 610.371094 1334.140625 612.289062 C 1335.167969 614.203125 1336.144531 616.144531 1337.074219 618.109375 C 1338.003906 620.074219 1338.886719 622.0625 1339.71875 624.070312 C 1340.550781 626.078125 1341.335938 628.105469 1342.066406 630.148438 C 1342.800781 632.195312 1343.484375 634.257812 1344.117188 636.339844 C 1344.746094 638.417969 1345.328125 640.511719 1345.855469 642.621094 C 1346.386719 644.730469 1346.863281 646.847656 1347.285156 648.980469 C 1347.710938 651.113281 1348.082031 653.253906 1348.402344 655.402344 C 1348.722656 657.554688 1348.988281 659.710938 1349.203125 661.871094 C 1349.417969 664.035156 1349.578125 666.203125 1349.683594 668.375 C 1349.792969 670.542969 1349.847656 672.71875 1349.847656 674.890625 C 1349.847656 677.0625 1349.796875 679.238281 1349.6875 681.40625 C 1349.582031 683.578125 1349.421875 685.746094 1349.210938 687.910156 C 1349 690.070312 1348.734375 692.226562 1348.414062 694.378906 C 1348.097656 696.527344 1347.726562 698.667969 1347.300781 700.800781 C 1346.878906 702.933594 1346.402344 705.054688 1345.875 707.164062 C 1345.347656 709.269531 1344.769531 711.367188 1344.136719 713.445312 C 1343.507812 715.527344 1342.828125 717.589844 1342.09375 719.636719 C 1341.363281 721.683594 1340.582031 723.710938 1339.75 725.71875 C 1338.917969 727.726562 1338.039062 729.714844 1337.109375 731.679688 C 1336.179688 733.644531 1335.203125 735.585938 1334.179688 737.503906 C 1333.15625 739.417969 1332.082031 741.3125 1330.964844 743.175781 C 1329.847656 745.039062 1328.6875 746.875 1327.480469 748.683594 C 1326.273438 750.492188 1325.019531 752.269531 1323.726562 754.015625 C 1322.433594 755.761719 1321.09375 757.476562 1319.714844 759.15625 C 1318.335938 760.835938 1316.917969 762.480469 1315.457031 764.09375 C 1314 765.703125 1312.5 767.277344 1310.964844 768.816406 C 1309.425781 770.351562 1307.851562 771.851562 1306.242188 773.3125 C 1304.632812 774.773438 1302.984375 776.191406 1301.304688 777.570312 C 1299.625 778.953125 1297.914062 780.289062 1296.167969 781.585938 C 1294.421875 782.878906 1292.644531 784.132812 1290.835938 785.339844 C 1289.027344 786.546875 1287.191406 787.710938 1285.328125 788.828125 C 1283.464844 789.949219 1281.574219 791.019531 1279.65625 792.042969 C 1277.738281 793.070312 1275.796875 794.046875 1273.832031 794.976562 C 1271.867188 795.90625 1269.878906 796.789062 1267.871094 797.621094 C 1265.863281 798.453125 1263.835938 799.238281 1261.789062 799.96875 C 1259.742188 800.703125 1257.675781 801.386719 1255.597656 802.019531 C 1253.515625 802.648438 1251.421875 803.230469 1249.3125 803.757812 C 1247.203125 804.289062 1245.082031 804.765625 1242.949219 805.191406 C 1240.816406 805.613281 1238.675781 805.988281 1236.527344 806.308594 C 1234.375 806.628906 1232.21875 806.894531 1230.054688 807.109375 C 1227.890625 807.320312 1225.722656 807.484375 1223.550781 807.589844 C 1221.378906 807.699219 1219.207031 807.753906 1217.03125 807.753906 L 1216.917969 807.753906 C 1214.746094 807.75 1212.574219 807.691406 1210.402344 807.582031 C 1208.230469 807.472656 1206.066406 807.3125 1203.902344 807.09375 C 1201.738281 806.878906 1199.582031 806.609375 1197.433594 806.289062 C 1195.285156 805.96875 1193.144531 805.59375 1191.011719 805.167969 C 1188.882812 804.742188 1186.761719 804.261719 1184.65625 803.730469 C 1182.546875 803.203125 1180.453125 802.621094 1178.375 801.988281 C 1176.296875 801.355469 1174.234375 800.671875 1172.1875 799.9375 C 1170.144531 799.203125 1168.117188 798.421875 1166.109375 797.585938 C 1164.101562 796.753906 1162.117188 795.871094 1160.152344 794.941406 C 1158.1875 794.011719 1156.25 793.035156 1154.332031 792.007812 C 1152.417969 790.984375 1150.527344 789.910156 1148.664062 788.792969 C 1146.800781 787.675781 1144.964844 786.511719 1143.160156 785.304688 C 1141.351562 784.097656 1139.578125 782.84375 1137.832031 781.550781 C 1136.085938 780.253906 1134.375 778.917969 1132.695312 777.539062 C 1131.015625 776.160156 1129.371094 774.742188 1127.761719 773.28125 C 1126.152344 771.820312 1124.578125 770.324219 1123.039062 768.789062 C 1121.503906 767.25 1120.007812 765.675781 1118.546875 764.066406 C 1117.089844 762.457031 1115.667969 760.8125 1114.289062 759.132812 C 1112.910156 757.453125 1111.574219 755.742188 1110.28125 753.996094 C 1108.984375 752.253906 1107.734375 750.476562 1106.527344 748.671875 C 1105.320312 746.863281 1104.15625 745.027344 1103.039062 743.167969 C 1101.921875 741.304688 1100.847656 739.414062 1099.824219 737.496094 C 1098.800781 735.582031 1097.820312 733.640625 1096.890625 731.679688 C 1095.960938 729.714844 1095.082031 727.730469 1094.246094 725.722656 C 1093.414062 723.714844 1092.632812 721.691406 1091.898438 719.644531 C 1091.164062 717.601562 1090.484375 715.539062 1089.851562 713.460938 C 1089.21875 711.382812 1088.636719 709.289062 1088.109375 707.179688 C 1087.578125 705.074219 1087.101562 702.957031 1086.675781 700.824219 C 1086.25 698.695312 1085.875 696.554688 1085.554688 694.40625 C 1085.234375 692.257812 1084.96875 690.101562 1084.753906 687.941406 C 1084.535156 685.777344 1084.375 683.613281 1084.265625 681.441406 C 1084.15625 679.273438 1084.101562 677.101562 1084.097656 674.929688 Z M 569.324219 512.59375 C 569.324219 509.640625 569.398438 506.683594 569.542969 503.734375 C 569.6875 500.78125 569.90625 497.832031 570.195312 494.890625 C 570.484375 491.949219 570.847656 489.015625 571.28125 486.09375 C 571.714844 483.167969 572.222656 480.257812 572.796875 477.359375 C 573.375 474.460938 574.023438 471.578125 574.742188 468.710938 C 575.460938 465.84375 576.25 462.996094 577.109375 460.167969 C 577.964844 457.335938 578.894531 454.53125 579.890625 451.75 C 580.886719 448.964844 581.949219 446.210938 583.082031 443.476562 C 584.214844 440.746094 585.414062 438.046875 586.675781 435.375 C 587.941406 432.703125 589.269531 430.0625 590.664062 427.457031 C 592.058594 424.847656 593.515625 422.277344 595.035156 419.742188 C 596.558594 417.207031 598.136719 414.710938 599.78125 412.253906 C 601.425781 409.796875 603.125 407.378906 604.886719 405.007812 C 606.648438 402.632812 608.46875 400.304688 610.34375 398.019531 C 612.222656 395.734375 614.152344 393.496094 616.136719 391.304688 C 618.125 389.117188 620.164062 386.976562 622.253906 384.886719 C 624.34375 382.796875 626.484375 380.757812 628.675781 378.773438 C 630.867188 376.789062 633.105469 374.859375 635.390625 372.984375 C 637.679688 371.109375 640.007812 369.292969 642.382812 367.53125 C 644.757812 365.769531 647.175781 364.070312 649.632812 362.425781 C 652.09375 360.785156 654.589844 359.203125 657.128906 357.683594 C 659.664062 356.164062 662.234375 354.707031 664.84375 353.316406 C 667.453125 351.921875 670.09375 350.59375 672.765625 349.332031 C 675.4375 348.066406 678.140625 346.871094 680.871094 345.738281 C 683.605469 344.609375 686.363281 343.542969 689.148438 342.546875 C 691.929688 341.554688 694.738281 340.625 697.566406 339.769531 C 700.398438 338.910156 703.246094 338.121094 706.113281 337.40625 C 708.984375 336.6875 711.867188 336.039062 714.769531 335.460938 C 717.667969 334.886719 720.582031 334.382812 723.503906 333.949219 C 726.429688 333.515625 729.363281 333.152344 732.308594 332.863281 C 735.25 332.574219 738.199219 332.355469 741.152344 332.210938 C 744.105469 332.066406 747.058594 331.992188 750.015625 331.992188 C 752.972656 331.996094 755.929688 332.066406 758.882812 332.210938 C 761.835938 332.355469 764.785156 332.574219 767.726562 332.863281 C 770.667969 333.15625 773.601562 333.515625 776.527344 333.949219 C 779.453125 334.382812 782.367188 334.890625 785.265625 335.464844 C 788.164062 336.042969 791.050781 336.691406 793.917969 337.410156 C 796.785156 338.128906 799.636719 338.914062 802.464844 339.773438 C 805.292969 340.632812 808.101562 341.558594 810.886719 342.554688 C 813.667969 343.550781 816.425781 344.613281 819.160156 345.746094 C 821.890625 346.878906 824.59375 348.074219 827.265625 349.339844 C 829.941406 350.601562 832.582031 351.929688 835.1875 353.324219 C 837.796875 354.71875 840.367188 356.175781 842.902344 357.695312 C 845.441406 359.214844 847.9375 360.796875 850.394531 362.4375 C 852.855469 364.078125 855.269531 365.78125 857.644531 367.542969 C 860.019531 369.304688 862.351562 371.121094 864.636719 372.996094 C 866.921875 374.871094 869.160156 376.800781 871.351562 378.789062 C 873.542969 380.773438 875.683594 382.808594 877.773438 384.898438 C 879.867188 386.992188 881.902344 389.128906 883.890625 391.320312 C 885.875 393.511719 887.804688 395.75 889.679688 398.035156 C 891.558594 400.320312 893.375 402.648438 895.136719 405.023438 C 896.898438 407.398438 898.601562 409.8125 900.242188 412.269531 C 901.886719 414.726562 903.46875 417.226562 904.988281 419.761719 C 906.507812 422.296875 907.964844 424.867188 909.359375 427.472656 C 910.753906 430.082031 912.082031 432.71875 913.34375 435.390625 C 914.609375 438.0625 915.808594 440.765625 916.9375 443.496094 C 918.070312 446.226562 919.132812 448.984375 920.128906 451.765625 C 921.125 454.550781 922.054688 457.355469 922.910156 460.183594 C 923.769531 463.011719 924.558594 465.863281 925.277344 468.730469 C 925.996094 471.597656 926.644531 474.480469 927.21875 477.378906 C 927.796875 480.277344 928.300781 483.1875 928.734375 486.113281 C 929.167969 489.035156 929.53125 491.96875 929.820312 494.910156 C 930.109375 497.851562 930.328125 500.800781 930.472656 503.75 C 930.617188 506.703125 930.691406 509.65625 930.691406 512.613281 C 930.691406 515.570312 930.617188 518.523438 930.472656 521.476562 C 930.328125 524.429688 930.109375 527.375 929.820312 530.316406 C 929.53125 533.257812 929.167969 536.191406 928.734375 539.113281 C 928.300781 542.039062 927.792969 544.949219 927.21875 547.847656 C 926.640625 550.75 925.992188 553.632812 925.273438 556.5 C 924.554688 559.367188 923.769531 562.214844 922.910156 565.042969 C 922.050781 567.871094 921.125 570.675781 920.128906 573.460938 C 919.132812 576.242188 918.066406 579 916.933594 581.730469 C 915.804688 584.460938 914.605469 587.164062 913.339844 589.835938 C 912.078125 592.507812 910.746094 595.148438 909.355469 597.753906 C 907.960938 600.359375 906.503906 602.929688 904.984375 605.464844 C 903.460938 608 901.882812 610.5 900.238281 612.957031 C 898.59375 615.414062 896.894531 617.828125 895.132812 620.203125 C 893.371094 622.578125 891.550781 624.90625 889.675781 627.191406 C 887.800781 629.476562 885.867188 631.714844 883.882812 633.90625 C 881.898438 636.09375 879.859375 638.234375 877.769531 640.324219 C 875.675781 642.414062 873.535156 644.453125 871.34375 646.4375 C 869.152344 648.421875 866.914062 650.351562 864.628906 652.226562 C 862.34375 654.101562 860.011719 655.921875 857.636719 657.679688 C 855.261719 659.441406 852.847656 661.144531 850.386719 662.785156 C 847.929688 664.429688 845.433594 666.007812 842.894531 667.527344 C 840.359375 669.046875 837.789062 670.503906 835.179688 671.898438 C 832.570312 673.292969 829.929688 674.621094 827.257812 675.882812 C 824.585938 677.148438 821.882812 678.34375 819.152344 679.476562 C 816.417969 680.605469 813.660156 681.671875 810.875 682.667969 C 808.09375 683.664062 805.285156 684.589844 802.457031 685.445312 C 799.625 686.304688 796.777344 687.09375 793.910156 687.8125 C 791.039062 688.53125 788.15625 689.175781 785.257812 689.753906 C 782.355469 690.332031 779.445312 690.835938 776.519531 691.269531 C 773.59375 691.703125 770.660156 692.066406 767.71875 692.355469 C 764.773438 692.644531 761.828125 692.863281 758.871094 693.007812 C 755.917969 693.152344 752.964844 693.222656 750.007812 693.222656 C 747.050781 693.222656 744.097656 693.144531 741.144531 692.996094 C 738.191406 692.847656 735.246094 692.628906 732.300781 692.335938 C 729.359375 692.042969 726.429688 691.679688 723.503906 691.242188 C 720.582031 690.804688 717.667969 690.296875 714.769531 689.71875 C 711.871094 689.140625 708.988281 688.492188 706.121094 687.769531 C 703.253906 687.050781 700.40625 686.261719 697.578125 685.402344 C 694.75 684.539062 691.945312 683.613281 689.160156 682.613281 C 686.378906 681.617188 683.621094 680.550781 680.890625 679.417969 C 678.160156 678.289062 675.460938 677.089844 672.789062 675.824219 C 670.117188 674.558594 667.476562 673.230469 664.871094 671.835938 C 662.261719 670.441406 659.691406 668.984375 657.15625 667.464844 C 654.621094 665.941406 652.125 664.363281 649.667969 662.71875 C 647.210938 661.078125 644.796875 659.375 642.421875 657.613281 C 640.046875 655.851562 637.71875 654.035156 635.433594 652.160156 C 633.148438 650.285156 630.910156 648.355469 628.71875 646.371094 C 626.53125 644.386719 624.390625 642.347656 622.300781 640.257812 C 620.207031 638.167969 618.171875 636.027344 616.1875 633.839844 C 614.199219 631.648438 612.269531 629.414062 610.394531 627.128906 C 608.519531 624.84375 606.699219 622.515625 604.9375 620.144531 C 603.175781 617.769531 601.476562 615.355469 599.832031 612.898438 C 598.1875 610.441406 596.605469 607.945312 595.085938 605.410156 C 593.566406 602.878906 592.109375 600.308594 590.714844 597.703125 C 589.320312 595.097656 587.988281 592.457031 586.722656 589.785156 C 585.460938 587.117188 584.261719 584.414062 583.128906 581.6875 C 581.996094 578.957031 580.929688 576.199219 579.933594 573.417969 C 578.933594 570.636719 578.007812 567.832031 577.144531 565.003906 C 576.285156 562.175781 575.496094 559.332031 574.777344 556.464844 C 574.054688 553.597656 573.40625 550.714844 572.828125 547.820312 C 572.246094 544.921875 571.742188 542.011719 571.304688 539.085938 C 570.867188 536.164062 570.503906 533.234375 570.210938 530.292969 C 569.917969 527.351562 569.699219 524.40625 569.550781 521.453125 C 569.402344 518.503906 569.328125 515.550781 569.324219 512.59375 Z M 150.167969 674.929688 C 150.167969 672.757812 150.222656 670.582031 150.328125 668.414062 C 150.433594 666.242188 150.59375 664.074219 150.808594 661.910156 C 151.019531 659.75 151.285156 657.59375 151.605469 655.441406 C 151.925781 653.292969 152.296875 651.152344 152.71875 649.019531 C 153.144531 646.886719 153.621094 644.765625 154.148438 642.660156 C 154.675781 640.550781 155.257812 638.457031 155.886719 636.375 C 156.519531 634.296875 157.199219 632.234375 157.933594 630.1875 C 158.664062 628.140625 159.449219 626.113281 160.28125 624.105469 C 161.113281 622.097656 161.992188 620.109375 162.921875 618.144531 C 163.851562 616.179688 164.828125 614.238281 165.855469 612.324219 C 166.878906 610.40625 167.949219 608.515625 169.066406 606.648438 C 170.1875 604.785156 171.347656 602.949219 172.558594 601.144531 C 173.765625 599.335938 175.015625 597.558594 176.3125 595.8125 C 177.605469 594.066406 178.945312 592.355469 180.324219 590.671875 C 181.703125 588.992188 183.121094 587.347656 184.582031 585.738281 C 186.042969 584.125 187.542969 582.554688 189.078125 581.015625 C 190.617188 579.480469 192.191406 577.980469 193.800781 576.519531 C 195.414062 575.0625 197.058594 573.640625 198.738281 572.261719 C 200.417969 570.882812 202.132812 569.546875 203.878906 568.25 C 205.625 566.957031 207.402344 565.707031 209.210938 564.496094 C 211.019531 563.289062 212.855469 562.128906 214.71875 561.007812 C 216.585938 559.890625 218.476562 558.820312 220.394531 557.796875 C 222.3125 556.769531 224.253906 555.792969 226.21875 554.863281 C 228.183594 553.933594 230.171875 553.054688 232.179688 552.222656 C 234.1875 551.390625 236.214844 550.609375 238.261719 549.875 C 240.308594 549.144531 242.375 548.460938 244.457031 547.828125 C 246.535156 547.199219 248.628906 546.617188 250.738281 546.089844 C 252.847656 545.5625 254.96875 545.085938 257.101562 544.660156 C 259.234375 544.238281 261.375 543.863281 263.527344 543.546875 C 265.679688 543.226562 267.835938 542.960938 270 542.746094 C 272.164062 542.535156 274.332031 542.375 276.503906 542.265625 C 278.675781 542.160156 280.847656 542.105469 283.023438 542.105469 C 285.195312 542.105469 287.371094 542.160156 289.542969 542.265625 C 291.714844 542.371094 293.882812 542.53125 296.042969 542.742188 C 298.207031 542.957031 300.367188 543.222656 302.515625 543.539062 C 304.667969 543.859375 306.808594 544.230469 308.941406 544.652344 C 311.074219 545.078125 313.195312 545.554688 315.304688 546.082031 C 317.414062 546.609375 319.511719 547.1875 321.589844 547.820312 C 323.671875 548.449219 325.734375 549.128906 327.78125 549.863281 C 329.832031 550.59375 331.859375 551.375 333.867188 552.207031 C 335.875 553.039062 337.863281 553.917969 339.828125 554.847656 C 341.796875 555.777344 343.738281 556.753906 345.65625 557.777344 C 347.574219 558.800781 349.464844 559.871094 351.328125 560.988281 C 353.195312 562.105469 355.03125 563.269531 356.839844 564.476562 C 358.648438 565.683594 360.425781 566.933594 362.171875 568.226562 C 363.917969 569.523438 365.632812 570.859375 367.3125 572.238281 C 368.996094 573.617188 370.640625 575.035156 372.253906 576.496094 C 373.863281 577.953125 375.4375 579.453125 376.976562 580.988281 C 378.515625 582.523438 380.015625 584.097656 381.476562 585.707031 C 382.933594 587.320312 384.355469 588.964844 385.734375 590.644531 C 387.113281 592.324219 388.453125 594.035156 389.75 595.78125 C 391.042969 597.527344 392.296875 599.304688 393.503906 601.109375 C 394.714844 602.917969 395.875 604.753906 396.996094 606.617188 C 398.113281 608.480469 399.183594 610.371094 400.210938 612.289062 C 401.234375 614.203125 402.214844 616.144531 403.144531 618.109375 C 404.074219 620.074219 404.957031 622.0625 405.789062 624.070312 C 406.621094 626.078125 407.402344 628.105469 408.136719 630.148438 C 408.871094 632.195312 409.550781 634.257812 410.183594 636.339844 C 410.816406 638.417969 411.394531 640.511719 411.925781 642.621094 C 412.453125 644.730469 412.929688 646.847656 413.355469 648.980469 C 413.78125 651.113281 414.152344 653.253906 414.472656 655.402344 C 414.792969 657.554688 415.058594 659.710938 415.273438 661.875 C 415.484375 664.035156 415.644531 666.203125 415.753906 668.375 C 415.859375 670.546875 415.914062 672.71875 415.914062 674.890625 C 415.917969 677.0625 415.863281 679.238281 415.757812 681.40625 C 415.652344 683.578125 415.492188 685.746094 415.28125 687.910156 C 415.066406 690.070312 414.800781 692.226562 414.484375 694.378906 C 414.164062 696.527344 413.792969 698.667969 413.371094 700.800781 C 412.945312 702.933594 412.472656 705.054688 411.945312 707.164062 C 411.414062 709.269531 410.835938 711.367188 410.207031 713.445312 C 409.574219 715.527344 408.894531 717.589844 408.164062 719.636719 C 407.429688 721.683594 406.648438 723.710938 405.816406 725.71875 C 404.984375 727.726562 404.105469 729.714844 403.175781 731.679688 C 402.25 733.644531 401.269531 735.585938 400.246094 737.503906 C 399.222656 739.417969 398.152344 741.3125 397.035156 743.175781 C 395.917969 745.039062 394.753906 746.875 393.546875 748.683594 C 392.339844 750.492188 391.089844 752.269531 389.792969 754.015625 C 388.5 755.761719 387.164062 757.476562 385.785156 759.15625 C 384.40625 760.835938 382.988281 762.480469 381.527344 764.09375 C 380.066406 765.703125 378.570312 767.277344 377.03125 768.816406 C 375.496094 770.351562 373.921875 771.851562 372.3125 773.3125 C 370.699219 774.773438 369.054688 776.191406 367.375 777.570312 C 365.695312 778.953125 363.980469 780.289062 362.234375 781.585938 C 360.488281 782.878906 358.710938 784.132812 356.90625 785.339844 C 355.097656 786.546875 353.261719 787.710938 351.398438 788.828125 C 349.53125 789.949219 347.640625 791.019531 345.722656 792.046875 C 343.808594 793.070312 341.867188 794.046875 339.898438 794.976562 C 337.933594 795.910156 335.949219 796.789062 333.941406 797.621094 C 331.929688 798.453125 329.902344 799.238281 327.855469 799.972656 C 325.808594 800.703125 323.746094 801.386719 321.664062 802.019531 C 319.585938 802.648438 317.488281 803.230469 315.378906 803.757812 C 313.273438 804.289062 311.152344 804.765625 309.019531 805.191406 C 306.886719 805.613281 304.746094 805.988281 302.59375 806.308594 C 300.441406 806.628906 298.285156 806.894531 296.121094 807.109375 C 293.957031 807.320312 291.789062 807.484375 289.617188 807.589844 C 287.445312 807.699219 285.273438 807.753906 283.101562 807.753906 L 282.984375 807.753906 C 280.8125 807.75 278.640625 807.691406 276.46875 807.582031 C 274.300781 807.472656 272.132812 807.3125 269.96875 807.09375 C 267.808594 806.878906 265.652344 806.609375 263.503906 806.289062 C 261.351562 805.96875 259.214844 805.59375 257.082031 805.167969 C 254.949219 804.742188 252.832031 804.261719 250.722656 803.730469 C 248.617188 803.203125 246.523438 802.621094 244.445312 801.988281 C 242.363281 801.355469 240.300781 800.671875 238.257812 799.9375 C 236.210938 799.203125 234.183594 798.421875 232.175781 797.585938 C 230.171875 796.753906 228.183594 795.871094 226.222656 794.941406 C 224.257812 794.011719 222.316406 793.035156 220.402344 792.007812 C 218.484375 790.984375 216.59375 789.910156 214.730469 788.792969 C 212.867188 787.675781 211.035156 786.511719 209.226562 785.304688 C 207.421875 784.097656 205.644531 782.84375 203.898438 781.550781 C 202.15625 780.253906 200.441406 778.917969 198.761719 777.539062 C 197.082031 776.160156 195.4375 774.742188 193.828125 773.28125 C 192.21875 771.820312 190.644531 770.324219 189.109375 768.789062 C 187.574219 767.25 186.074219 765.675781 184.617188 764.066406 C 183.15625 762.457031 181.738281 760.8125 180.359375 759.132812 C 178.980469 757.453125 177.644531 755.742188 176.347656 753.996094 C 175.054688 752.253906 173.800781 750.476562 172.59375 748.671875 C 171.386719 746.863281 170.222656 745.027344 169.105469 743.167969 C 167.988281 741.304688 166.917969 739.414062 165.894531 737.496094 C 164.867188 735.582031 163.890625 733.640625 162.960938 731.679688 C 162.03125 729.714844 161.148438 727.730469 160.316406 725.722656 C 159.484375 723.714844 158.699219 721.691406 157.96875 719.644531 C 157.234375 717.601562 156.550781 715.539062 155.917969 713.460938 C 155.289062 711.382812 154.707031 709.289062 154.175781 707.179688 C 153.648438 705.074219 153.167969 702.957031 152.742188 700.824219 C 152.316406 698.695312 151.945312 696.554688 151.625 694.40625 C 151.304688 692.257812 151.035156 690.101562 150.820312 687.941406 C 150.605469 685.777344 150.445312 683.613281 150.335938 681.441406 C 150.226562 679.273438 150.171875 677.101562 150.167969 674.929688 Z M 45.429688 1052.90625 C 45.433594 1049.464844 45.523438 1046.027344 45.695312 1042.59375 C 45.867188 1039.160156 46.125 1035.730469 46.464844 1032.308594 C 46.804688 1028.882812 47.230469 1025.472656 47.738281 1022.070312 C 48.246094 1018.667969 48.835938 1015.28125 49.511719 1011.910156 C 50.183594 1008.535156 50.941406 1005.183594 51.777344 1001.847656 C 52.617188 998.511719 53.539062 995.195312 54.539062 991.90625 C 55.539062 988.617188 56.621094 985.351562 57.78125 982.113281 C 58.941406 978.875 60.183594 975.667969 61.5 972.492188 C 62.820312 969.316406 64.214844 966.171875 65.6875 963.0625 C 67.160156 959.957031 68.707031 956.886719 70.332031 953.851562 C 71.957031 950.820312 73.652344 947.828125 75.421875 944.878906 C 77.191406 941.929688 79.03125 939.023438 80.945312 936.164062 C 82.855469 933.304688 84.839844 930.496094 86.890625 927.734375 C 88.9375 924.972656 91.054688 922.261719 93.238281 919.601562 C 95.421875 916.945312 97.667969 914.339844 99.980469 911.792969 C 102.289062 909.246094 104.664062 906.753906 107.09375 904.320312 C 109.527344 901.890625 112.019531 899.519531 114.570312 897.210938 C 117.117188 894.898438 119.722656 892.652344 122.382812 890.46875 C 125.042969 888.289062 127.753906 886.171875 130.515625 884.121094 C 133.277344 882.074219 136.089844 880.09375 138.953125 878.179688 C 141.8125 876.269531 144.71875 874.429688 147.667969 872.660156 C 150.617188 870.890625 153.609375 869.195312 156.644531 867.570312 C 159.679688 865.949219 162.75 864.402344 165.859375 862.929688 C 168.96875 861.457031 172.113281 860.0625 175.289062 858.746094 C 178.46875 857.425781 181.675781 856.1875 184.917969 855.027344 C 188.15625 853.863281 191.421875 852.785156 194.710938 851.785156 C 198.003906 850.78125 201.320312 849.863281 204.65625 849.023438 C 207.992188 848.1875 211.347656 847.429688 214.722656 846.757812 C 218.097656 846.082031 221.484375 845.492188 224.886719 844.984375 C 228.292969 844.476562 231.703125 844.050781 235.128906 843.710938 C 238.550781 843.371094 241.984375 843.113281 245.417969 842.941406 C 248.855469 842.769531 252.292969 842.683594 255.734375 842.679688 L 310.34375 842.679688 C 320.554688 842.65625 330.710938 843.386719 340.8125 844.867188 C 350.914062 846.34375 360.851562 848.558594 370.625 851.503906 C 380.398438 854.449219 389.90625 858.09375 399.140625 862.445312 C 408.378906 866.792969 417.246094 871.792969 425.742188 877.449219 C 420.902344 887.859375 416.644531 898.503906 412.96875 909.378906 C 409.289062 920.253906 406.214844 931.296875 403.742188 942.503906 C 401.269531 953.714844 399.414062 965.027344 398.175781 976.4375 C 396.9375 987.851562 396.324219 999.296875 396.335938 1010.773438 L 396.335938 1167.984375 L 169.75 1167.984375 L 169.75 1018.394531 C 169.75 1017.824219 169.722656 1017.253906 169.664062 1016.683594 C 169.609375 1016.113281 169.527344 1015.546875 169.414062 1014.988281 C 169.304688 1014.425781 169.164062 1013.871094 168.996094 1013.324219 C 168.832031 1012.777344 168.640625 1012.242188 168.421875 1011.710938 C 168.203125 1011.183594 167.957031 1010.667969 167.6875 1010.164062 C 167.417969 1009.660156 167.125 1009.167969 166.804688 1008.691406 C 166.488281 1008.21875 166.148438 1007.757812 165.785156 1007.316406 C 165.421875 1006.875 165.039062 1006.453125 164.632812 1006.046875 C 164.230469 1005.640625 163.804688 1005.257812 163.363281 1004.894531 C 162.921875 1004.535156 162.460938 1004.191406 161.988281 1003.875 C 161.511719 1003.558594 161.019531 1003.265625 160.515625 1002.996094 C 160.011719 1002.726562 159.496094 1002.480469 158.964844 1002.261719 C 158.4375 1002.042969 157.898438 1001.851562 157.351562 1001.683594 C 156.804688 1001.519531 156.25 1001.378906 155.6875 1001.269531 C 155.128906 1001.15625 154.5625 1001.074219 153.992188 1001.015625 C 153.425781 1000.960938 152.851562 1000.933594 152.28125 1000.933594 C 151.710938 1000.933594 151.136719 1000.960938 150.570312 1001.015625 C 150 1001.074219 149.433594 1001.15625 148.875 1001.269531 C 148.3125 1001.378906 147.757812 1001.519531 147.210938 1001.683594 C 146.664062 1001.851562 146.125 1002.042969 145.597656 1002.261719 C 145.066406 1002.480469 144.550781 1002.726562 144.046875 1002.996094 C 143.542969 1003.265625 143.050781 1003.558594 142.574219 1003.875 C 142.101562 1004.191406 141.640625 1004.535156 141.199219 1004.894531 C 140.757812 1005.257812 140.332031 1005.640625 139.929688 1006.046875 C 139.523438 1006.453125 139.140625 1006.875 138.777344 1007.316406 C 138.414062 1007.757812 138.074219 1008.21875 137.757812 1008.691406 C 137.4375 1009.167969 137.144531 1009.660156 136.875 1010.164062 C 136.605469 1010.667969 136.359375 1011.183594 136.140625 1011.710938 C 135.921875 1012.242188 135.730469 1012.777344 135.566406 1013.324219 C 135.398438 1013.871094 135.257812 1014.425781 135.148438 1014.988281 C 135.035156 1015.546875 134.953125 1016.113281 134.898438 1016.683594 C 134.839844 1017.253906 134.8125 1017.824219 134.8125 1018.394531 L 134.8125 1167.972656 L 45.429688 1167.972656 Z M 961.894531 1167.972656 L 939.835938 1167.972656 L 939.835938 965.277344 C 939.835938 964.707031 939.808594 964.136719 939.75 963.566406 C 939.695312 962.996094 939.613281 962.429688 939.5 961.871094 C 939.386719 961.308594 939.25 960.753906 939.082031 960.207031 C 938.917969 959.660156 938.726562 959.125 938.503906 958.59375 C 938.285156 958.066406 938.042969 957.550781 937.773438 957.046875 C 937.503906 956.542969 937.210938 956.050781 936.890625 955.574219 C 936.574219 955.101562 936.234375 954.640625 935.871094 954.199219 C 935.507812 953.757812 935.125 953.335938 934.71875 952.929688 C 934.316406 952.523438 933.890625 952.140625 933.449219 951.777344 C 933.007812 951.414062 932.546875 951.074219 932.070312 950.757812 C 931.597656 950.441406 931.105469 950.148438 930.601562 949.878906 C 930.097656 949.605469 929.582031 949.363281 929.050781 949.144531 C 928.523438 948.925781 927.984375 948.734375 927.4375 948.566406 C 926.890625 948.402344 926.335938 948.261719 925.773438 948.152344 C 925.214844 948.039062 924.648438 947.957031 924.078125 947.898438 C 923.507812 947.84375 922.9375 947.816406 922.367188 947.816406 C 921.792969 947.816406 921.222656 947.84375 920.65625 947.898438 C 920.085938 947.957031 919.519531 948.039062 918.957031 948.152344 C 918.398438 948.261719 917.84375 948.402344 917.296875 948.566406 C 916.75 948.734375 916.210938 948.925781 915.679688 949.144531 C 915.152344 949.363281 914.636719 949.605469 914.132812 949.878906 C 913.628906 950.148438 913.136719 950.441406 912.660156 950.757812 C 912.1875 951.074219 911.726562 951.414062 911.285156 951.777344 C 910.84375 952.140625 910.417969 952.523438 910.015625 952.929688 C 909.609375 953.335938 909.226562 953.757812 908.863281 954.199219 C 908.5 954.640625 908.160156 955.101562 907.839844 955.574219 C 907.523438 956.050781 907.230469 956.542969 906.960938 957.046875 C 906.691406 957.550781 906.445312 958.066406 906.226562 958.59375 C 906.007812 959.125 905.816406 959.660156 905.648438 960.207031 C 905.484375 960.753906 905.34375 961.308594 905.234375 961.871094 C 905.121094 962.429688 905.039062 962.996094 904.980469 963.566406 C 904.925781 964.136719 904.898438 964.707031 904.898438 965.277344 L 904.898438 1167.972656 L 595.117188 1167.972656 L 595.117188 965.277344 C 595.117188 964.707031 595.089844 964.136719 595.03125 963.566406 C 594.976562 962.996094 594.894531 962.429688 594.78125 961.871094 C 594.667969 961.308594 594.53125 960.753906 594.363281 960.207031 C 594.199219 959.660156 594.007812 959.125 593.785156 958.59375 C 593.566406 958.066406 593.324219 957.550781 593.054688 957.046875 C 592.785156 956.542969 592.492188 956.050781 592.171875 955.574219 C 591.855469 955.101562 591.515625 954.640625 591.152344 954.199219 C 590.789062 953.757812 590.40625 953.335938 590 952.929688 C 589.597656 952.523438 589.171875 952.140625 588.730469 951.777344 C 588.289062 951.414062 587.828125 951.074219 587.351562 950.757812 C 586.878906 950.441406 586.386719 950.148438 585.882812 949.878906 C 585.378906 949.605469 584.863281 949.363281 584.332031 949.144531 C 583.804688 948.925781 583.265625 948.734375 582.71875 948.566406 C 582.171875 948.402344 581.617188 948.261719 581.054688 948.152344 C 580.496094 948.039062 579.929688 947.957031 579.359375 947.898438 C 578.789062 947.84375 578.21875 947.816406 577.648438 947.816406 C 577.074219 947.816406 576.503906 947.84375 575.9375 947.898438 C 575.367188 947.957031 574.800781 948.039062 574.238281 948.152344 C 573.679688 948.261719 573.125 948.402344 572.578125 948.566406 C 572.03125 948.734375 571.492188 948.925781 570.960938 949.144531 C 570.433594 949.363281 569.917969 949.605469 569.414062 949.878906 C 568.910156 950.148438 568.417969 950.441406 567.941406 950.757812 C 567.46875 951.074219 567.007812 951.414062 566.566406 951.777344 C 566.125 952.140625 565.699219 952.523438 565.296875 952.929688 C 564.890625 953.335938 564.507812 953.757812 564.144531 954.199219 C 563.78125 954.640625 563.441406 955.101562 563.125 955.574219 C 562.804688 956.050781 562.511719 956.542969 562.242188 957.046875 C 561.972656 957.550781 561.726562 958.066406 561.507812 958.59375 C 561.289062 959.125 561.097656 959.660156 560.929688 960.207031 C 560.765625 960.753906 560.625 961.308594 560.515625 961.871094 C 560.402344 962.429688 560.320312 962.996094 560.261719 963.566406 C 560.207031 964.136719 560.179688 964.707031 560.179688 965.277344 L 560.179688 1167.972656 L 431.28125 1167.972656 L 431.28125 1010.761719 C 431.269531 999.585938 431.921875 988.449219 433.238281 977.347656 C 434.554688 966.25 436.527344 955.265625 439.15625 944.402344 C 441.785156 933.539062 445.050781 922.867188 448.953125 912.394531 C 452.855469 901.921875 457.367188 891.714844 462.488281 881.777344 C 463.292969 880.617188 463.945312 879.378906 464.453125 878.058594 C 467.449219 872.433594 470.632812 866.917969 474 861.511719 C 477.371094 856.101562 480.917969 850.8125 484.644531 845.644531 C 488.371094 840.476562 492.265625 835.4375 496.332031 830.53125 C 500.402344 825.625 504.628906 820.863281 509.019531 816.242188 C 513.40625 811.621094 517.945312 807.15625 522.636719 802.84375 C 527.328125 798.527344 532.160156 794.378906 537.132812 790.390625 C 542.101562 786.402344 547.203125 782.589844 552.433594 778.945312 C 557.660156 775.304688 563.007812 771.839844 568.472656 768.558594 C 573.933594 765.277344 579.503906 762.183594 585.175781 759.277344 C 590.847656 756.371094 596.609375 753.660156 602.46875 751.144531 C 608.324219 748.628906 614.257812 746.3125 620.269531 744.199219 C 626.28125 742.082031 632.359375 740.171875 638.5 738.464844 C 644.640625 736.761719 650.832031 735.265625 657.074219 733.980469 C 663.316406 732.691406 669.597656 731.617188 675.910156 730.753906 C 682.226562 729.890625 688.5625 729.242188 694.921875 728.808594 C 701.28125 728.375 707.648438 728.152344 714.019531 728.148438 L 785.992188 728.148438 C 792.367188 728.152344 798.734375 728.375 805.09375 728.808594 C 811.453125 729.242188 817.789062 729.890625 824.105469 730.753906 C 830.417969 731.617188 836.699219 732.695312 842.941406 733.980469 C 849.183594 735.269531 855.375 736.765625 861.515625 738.46875 C 867.660156 740.175781 873.734375 742.085938 879.746094 744.199219 C 885.761719 746.316406 891.695312 748.632812 897.550781 751.148438 C 903.40625 753.667969 909.171875 756.378906 914.84375 759.285156 C 920.515625 762.1875 926.082031 765.285156 931.546875 768.566406 C 937.007812 771.847656 942.355469 775.308594 947.585938 778.953125 C 952.8125 782.597656 957.914062 786.410156 962.886719 790.398438 C 967.855469 794.386719 972.6875 798.539062 977.378906 802.851562 C 982.070312 807.164062 986.609375 811.632812 991 816.253906 C 995.386719 820.875 999.617188 825.636719 1003.683594 830.542969 C 1007.75 835.449219 1011.644531 840.488281 1015.371094 845.65625 C 1019.097656 850.828125 1022.644531 856.117188 1026.015625 861.523438 C 1029.382812 866.933594 1032.566406 872.449219 1035.5625 878.074219 C 1036.066406 879.390625 1036.722656 880.632812 1037.527344 881.792969 C 1042.648438 891.730469 1047.160156 901.933594 1051.0625 912.410156 C 1054.964844 922.882812 1058.230469 933.554688 1060.859375 944.417969 C 1063.488281 955.28125 1065.460938 966.261719 1066.777344 977.363281 C 1068.09375 988.460938 1068.746094 999.601562 1068.730469 1010.777344 L 1068.730469 1167.988281 Z M 1454.585938 1167.972656 L 1365.214844 1167.972656 L 1365.214844 1018.394531 C 1365.214844 1017.824219 1365.1875 1017.253906 1365.132812 1016.683594 C 1365.078125 1016.113281 1364.992188 1015.546875 1364.882812 1014.988281 C 1364.769531 1014.425781 1364.628906 1013.871094 1364.464844 1013.324219 C 1364.296875 1012.777344 1364.105469 1012.242188 1363.886719 1011.710938 C 1363.667969 1011.183594 1363.421875 1010.667969 1363.152344 1010.164062 C 1362.882812 1009.660156 1362.589844 1009.167969 1362.273438 1008.691406 C 1361.953125 1008.21875 1361.613281 1007.757812 1361.25 1007.316406 C 1360.886719 1006.875 1360.503906 1006.453125 1360.101562 1006.046875 C 1359.695312 1005.640625 1359.273438 1005.257812 1358.832031 1004.894531 C 1358.386719 1004.535156 1357.929688 1004.191406 1357.453125 1003.875 C 1356.976562 1003.558594 1356.488281 1003.265625 1355.984375 1002.996094 C 1355.476562 1002.726562 1354.960938 1002.480469 1354.433594 1002.261719 C 1353.90625 1002.042969 1353.367188 1001.851562 1352.820312 1001.683594 C 1352.269531 1001.519531 1351.71875 1001.378906 1351.15625 1001.269531 C 1350.59375 1001.15625 1350.03125 1001.074219 1349.460938 1001.015625 C 1348.890625 1000.960938 1348.320312 1000.933594 1347.746094 1000.933594 C 1347.175781 1000.933594 1346.605469 1000.960938 1346.035156 1001.015625 C 1345.464844 1001.074219 1344.902344 1001.15625 1344.339844 1001.269531 C 1343.777344 1001.378906 1343.222656 1001.519531 1342.675781 1001.683594 C 1342.128906 1001.851562 1341.589844 1002.042969 1341.0625 1002.261719 C 1340.535156 1002.480469 1340.019531 1002.726562 1339.511719 1002.996094 C 1339.007812 1003.265625 1338.519531 1003.558594 1338.042969 1003.875 C 1337.566406 1004.191406 1337.109375 1004.535156 1336.664062 1004.894531 C 1336.222656 1005.257812 1335.800781 1005.640625 1335.394531 1006.046875 C 1334.992188 1006.453125 1334.605469 1006.875 1334.246094 1007.316406 C 1333.882812 1007.757812 1333.539062 1008.21875 1333.222656 1008.691406 C 1332.90625 1009.167969 1332.613281 1009.660156 1332.339844 1010.164062 C 1332.070312 1010.667969 1331.828125 1011.183594 1331.609375 1011.710938 C 1331.390625 1012.242188 1331.199219 1012.777344 1331.03125 1013.324219 C 1330.863281 1013.871094 1330.726562 1014.425781 1330.613281 1014.988281 C 1330.503906 1015.546875 1330.417969 1016.113281 1330.363281 1016.683594 C 1330.308594 1017.253906 1330.277344 1017.824219 1330.277344 1018.394531 L 1330.277344 1167.972656 L 1103.671875 1167.972656 L 1103.671875 1010.761719 C 1103.679688 999.285156 1103.066406 987.839844 1101.828125 976.425781 C 1100.589844 965.015625 1098.734375 953.703125 1096.265625 942.492188 C 1093.792969 931.285156 1090.714844 920.242188 1087.039062 909.367188 C 1083.363281 898.492188 1079.101562 887.847656 1074.265625 877.4375 C 1082.761719 871.785156 1091.628906 866.78125 1100.863281 862.433594 C 1110.101562 858.085938 1119.605469 854.441406 1129.382812 851.496094 C 1139.15625 848.554688 1149.09375 846.339844 1159.195312 844.863281 C 1169.296875 843.386719 1179.453125 842.65625 1189.660156 842.679688 L 1244.269531 842.679688 C 1247.710938 842.679688 1251.152344 842.769531 1254.585938 842.941406 C 1258.023438 843.113281 1261.453125 843.371094 1264.878906 843.710938 C 1268.300781 844.050781 1271.714844 844.476562 1275.117188 844.984375 C 1278.523438 845.492188 1281.910156 846.082031 1285.285156 846.753906 C 1288.660156 847.429688 1292.015625 848.183594 1295.351562 849.023438 C 1298.6875 849.859375 1302.003906 850.78125 1305.296875 851.78125 C 1308.585938 852.78125 1311.851562 853.863281 1315.089844 855.023438 C 1318.332031 856.183594 1321.539062 857.421875 1324.71875 858.742188 C 1327.894531 860.058594 1331.039062 861.453125 1334.148438 862.925781 C 1337.257812 864.398438 1340.332031 865.945312 1343.363281 867.570312 C 1346.398438 869.191406 1349.390625 870.886719 1352.34375 872.65625 C 1355.292969 874.425781 1358.199219 876.265625 1361.058594 878.179688 C 1363.917969 880.089844 1366.730469 882.070312 1369.496094 884.121094 C 1372.257812 886.167969 1374.96875 888.285156 1377.628906 890.46875 C 1380.289062 892.648438 1382.894531 894.894531 1385.441406 897.207031 C 1387.992188 899.515625 1390.484375 901.886719 1392.914062 904.320312 C 1395.347656 906.75 1397.722656 909.242188 1400.03125 911.789062 C 1402.34375 914.339844 1404.589844 916.941406 1406.773438 919.601562 C 1408.957031 922.257812 1411.074219 924.96875 1413.125 927.730469 C 1415.175781 930.492188 1417.15625 933.304688 1419.066406 936.164062 C 1420.980469 939.023438 1422.820312 941.925781 1424.589844 944.875 C 1426.363281 947.824219 1428.058594 950.816406 1429.679688 953.851562 C 1431.304688 956.882812 1432.851562 959.953125 1434.324219 963.0625 C 1435.796875 966.171875 1437.195312 969.3125 1438.511719 972.492188 C 1439.832031 975.667969 1441.070312 978.875 1442.230469 982.113281 C 1443.394531 985.351562 1444.472656 988.613281 1445.476562 991.90625 C 1446.476562 995.195312 1447.398438 998.507812 1448.234375 1001.84375 C 1449.074219 1005.179688 1449.832031 1008.535156 1450.503906 1011.90625 C 1451.179688 1015.28125 1451.769531 1018.667969 1452.277344 1022.070312 C 1452.785156 1025.472656 1453.210938 1028.882812 1453.550781 1032.308594 C 1453.890625 1035.730469 1454.148438 1039.160156 1454.320312 1042.59375 C 1454.492188 1046.027344 1454.582031 1049.464844 1454.585938 1052.90625 Z M 1454.585938 1167.972656 " fill-opacity="1" fill-rule="nonzero"/></g><path stroke-linecap="butt" transform="matrix(0.749008, -0.0385557, 0.0385557, 0.749008, 701.280909, 707.349471)" fill="none" stroke-linejoin="miter" d="M 0.00179232 2.000317 L 160.104058 2.00162 " stroke="#000000" stroke-width="4" stroke-opacity="1" stroke-miterlimit="4"/></svg>