<svg xmlns="http://www.w3.org/2000/svg" xmlns:xlink="http://www.w3.org/1999/xlink" width="2000" zoomAndPan="magnify" viewBox="0 0 1500 1499.999933" height="2000" preserveAspectRatio="xMidYMid meet" version="1.0"><defs><clipPath id="d2e78cb60b"><path d="M 33.097656 270 L 1467.097656 270 L 1467.097656 1230 L 33.097656 1230 Z M 33.097656 270 " clip-rule="nonzero"/></clipPath></defs><g clip-path="url(#d2e78cb60b)"><path fill="#000000" d="M 750.097656 1229.242188 C 279.894531 1229.242188 46.984375 785.945312 37.246094 767.078125 C 36.566406 765.75 35.960938 764.386719 35.441406 762.984375 C 34.921875 761.585938 34.484375 760.15625 34.132812 758.707031 C 33.78125 757.253906 33.519531 755.785156 33.339844 754.300781 C 33.164062 752.816406 33.078125 751.328125 33.078125 749.835938 C 33.078125 748.339844 33.164062 746.851562 33.339844 745.367188 C 33.519531 743.882812 33.78125 742.417969 34.132812 740.964844 C 34.484375 739.511719 34.921875 738.085938 35.441406 736.683594 C 35.960938 735.285156 36.566406 733.917969 37.246094 732.589844 C 46.984375 713.722656 279.894531 270.804688 750.097656 270.804688 C 1220.296875 270.804688 1453.285156 713.722656 1462.945312 732.589844 C 1463.628906 733.917969 1464.230469 735.285156 1464.75 736.683594 C 1465.269531 738.085938 1465.707031 739.511719 1466.058594 740.964844 C 1466.410156 742.417969 1466.675781 743.882812 1466.851562 745.367188 C 1467.027344 746.851562 1467.117188 748.339844 1467.117188 749.835938 C 1467.117188 751.328125 1467.027344 752.816406 1466.851562 754.300781 C 1466.675781 755.785156 1466.410156 757.253906 1466.058594 758.707031 C 1465.707031 760.15625 1465.269531 761.585938 1464.75 762.984375 C 1464.230469 764.386719 1463.628906 765.75 1462.945312 767.078125 C 1453.285156 785.945312 1220.371094 1229.242188 750.097656 1229.242188 Z M 114.15625 749.796875 C 161.402344 829.265625 376.351562 1153.777344 750.097656 1153.777344 C 1123.84375 1153.777344 1339.242188 829.265625 1386.039062 750.25 C 1338.789062 670.78125 1123.84375 346.269531 750.097656 346.269531 C 376.351562 346.269531 160.949219 670.78125 114.15625 749.796875 Z M 750.097656 1080.269531 C 744.6875 1080.269531 739.285156 1080.136719 733.882812 1079.871094 C 728.480469 1079.605469 723.089844 1079.210938 717.710938 1078.679688 C 712.328125 1078.148438 706.960938 1077.488281 701.613281 1076.695312 C 696.265625 1075.902344 690.9375 1074.976562 685.632812 1073.921875 C 680.328125 1072.867188 675.054688 1071.683594 669.808594 1070.367188 C 664.5625 1069.054688 659.355469 1067.613281 654.179688 1066.042969 C 649.003906 1064.472656 643.871094 1062.777344 638.78125 1060.957031 C 633.6875 1059.136719 628.644531 1057.191406 623.648438 1055.121094 C 618.652344 1053.050781 613.710938 1050.859375 608.820312 1048.546875 C 603.933594 1046.238281 599.105469 1043.804688 594.335938 1041.257812 C 589.566406 1038.707031 584.863281 1036.042969 580.222656 1033.265625 C 575.585938 1030.484375 571.019531 1027.59375 566.523438 1024.589844 C 562.027344 1021.585938 557.605469 1018.472656 553.261719 1015.25 C 548.917969 1012.03125 544.65625 1008.703125 540.476562 1005.273438 C 536.296875 1001.84375 532.203125 998.3125 528.199219 994.679688 C 524.191406 991.050781 520.273438 987.324219 516.453125 983.5 C 512.628906 979.675781 508.898438 975.761719 505.269531 971.753906 C 501.636719 967.746094 498.105469 963.65625 494.675781 959.476562 C 491.246094 955.292969 487.917969 951.035156 484.699219 946.691406 C 481.476562 942.347656 478.363281 937.925781 475.359375 933.433594 C 472.355469 928.9375 469.460938 924.367188 466.683594 919.730469 C 463.902344 915.09375 461.238281 910.390625 458.6875 905.621094 C 456.140625 900.851562 453.707031 896.023438 451.398438 891.136719 C 449.085938 886.246094 446.894531 881.304688 444.824219 876.308594 C 442.753906 871.316406 440.808594 866.269531 438.988281 861.179688 C 437.167969 856.089844 435.46875 850.957031 433.902344 845.78125 C 432.332031 840.609375 430.890625 835.398438 429.574219 830.152344 C 428.261719 824.90625 427.078125 819.632812 426.023438 814.328125 C 424.964844 809.027344 424.042969 803.699219 423.25 798.351562 C 422.457031 793.003906 421.792969 787.636719 421.265625 782.257812 C 420.734375 776.875 420.335938 771.484375 420.070312 766.085938 C 419.804688 760.683594 419.671875 755.28125 419.671875 749.871094 C 419.671875 744.464844 419.804688 739.0625 420.070312 733.660156 C 420.335938 728.261719 420.734375 722.871094 421.265625 717.488281 C 421.792969 712.105469 422.457031 706.742188 423.25 701.394531 C 424.042969 696.042969 424.964844 690.71875 426.023438 685.414062 C 427.078125 680.113281 428.261719 674.835938 429.574219 669.59375 C 430.890625 664.347656 432.332031 659.136719 433.902344 653.964844 C 435.46875 648.789062 437.167969 643.65625 438.988281 638.566406 C 440.808594 633.472656 442.753906 628.429688 444.824219 623.433594 C 446.894531 618.4375 449.085938 613.496094 451.398438 608.609375 C 453.707031 603.722656 456.140625 598.894531 458.6875 594.125 C 461.238281 589.355469 463.902344 584.652344 466.683594 580.015625 C 469.460938 575.375 472.355469 570.808594 475.359375 566.3125 C 478.363281 561.816406 481.476562 557.398438 484.699219 553.054688 C 487.917969 548.710938 491.246094 544.449219 494.675781 540.269531 C 498.105469 536.089844 501.636719 531.996094 505.269531 527.992188 C 508.898438 523.984375 512.628906 520.070312 516.453125 516.246094 C 520.273438 512.421875 524.191406 508.695312 528.199219 505.0625 C 532.203125 501.433594 536.296875 497.902344 540.476562 494.472656 C 544.65625 491.042969 548.917969 487.714844 553.261719 484.496094 C 557.605469 481.273438 562.027344 478.160156 566.523438 475.15625 C 571.019531 472.152344 575.585938 469.261719 580.222656 466.480469 C 584.863281 463.703125 589.566406 461.035156 594.335938 458.488281 C 599.105469 455.9375 603.933594 453.507812 608.820312 451.195312 C 613.710938 448.886719 618.652344 446.695312 623.648438 444.625 C 628.644531 442.554688 633.6875 440.609375 638.78125 438.789062 C 643.871094 436.96875 649.003906 435.273438 654.179688 433.703125 C 659.355469 432.132812 664.5625 430.691406 669.808594 429.375 C 675.054688 428.0625 680.332031 426.878906 685.632812 425.824219 C 690.9375 424.769531 696.265625 423.84375 701.613281 423.050781 C 706.960938 422.257812 712.328125 421.597656 717.710938 421.066406 C 723.089844 420.535156 728.480469 420.136719 733.882812 419.875 C 739.285156 419.609375 744.6875 419.476562 750.097656 419.476562 C 755.503906 419.476562 760.910156 419.609375 766.308594 419.875 C 771.710938 420.136719 777.101562 420.535156 782.484375 421.066406 C 787.867188 421.597656 793.230469 422.257812 798.578125 423.050781 C 803.929688 423.84375 809.253906 424.769531 814.558594 425.824219 C 819.863281 426.878906 825.136719 428.0625 830.382812 429.375 C 835.628906 430.691406 840.839844 432.132812 846.011719 433.703125 C 851.1875 435.273438 856.320312 436.96875 861.414062 438.789062 C 866.503906 440.609375 871.546875 442.554688 876.542969 444.625 C 881.539062 446.695312 886.480469 448.886719 891.371094 451.195312 C 896.257812 453.507812 901.085938 455.9375 905.855469 458.488281 C 910.625 461.035156 915.328125 463.703125 919.96875 466.480469 C 924.605469 469.261719 929.171875 472.152344 933.667969 475.15625 C 938.167969 478.160156 942.585938 481.273438 946.929688 484.496094 C 951.273438 487.714844 955.535156 491.042969 959.714844 494.472656 C 963.894531 497.902344 967.988281 501.433594 971.996094 505.0625 C 976.003906 508.695312 979.917969 512.421875 983.742188 516.246094 C 987.566406 520.070312 991.292969 523.984375 994.925781 527.992188 C 998.554688 531.996094 1002.085938 536.089844 1005.515625 540.269531 C 1008.949219 544.449219 1012.273438 548.710938 1015.496094 553.054688 C 1018.714844 557.398438 1021.828125 561.816406 1024.832031 566.3125 C 1027.835938 570.808594 1030.730469 575.375 1033.511719 580.015625 C 1036.289062 584.652344 1038.953125 589.355469 1041.503906 594.125 C 1044.054688 598.894531 1046.484375 603.722656 1048.796875 608.609375 C 1051.109375 613.496094 1053.296875 618.4375 1055.367188 623.433594 C 1057.4375 628.429688 1059.382812 633.472656 1061.203125 638.566406 C 1063.027344 643.65625 1064.722656 648.789062 1066.292969 653.964844 C 1067.863281 659.136719 1069.304688 664.347656 1070.617188 669.59375 C 1071.929688 674.835938 1073.117188 680.113281 1074.171875 685.414062 C 1075.226562 690.71875 1076.148438 696.042969 1076.945312 701.394531 C 1077.738281 706.742188 1078.398438 712.105469 1078.929688 717.488281 C 1079.457031 722.871094 1079.855469 728.261719 1080.121094 733.660156 C 1080.386719 739.0625 1080.519531 744.464844 1080.519531 749.871094 C 1080.515625 755.277344 1080.375 760.679688 1080.105469 766.078125 C 1079.832031 771.476562 1079.429688 776.867188 1078.894531 782.246094 C 1078.359375 787.625 1077.691406 792.988281 1076.894531 798.332031 C 1076.097656 803.679688 1075.167969 809.003906 1074.109375 814.304688 C 1073.050781 819.605469 1071.859375 824.875 1070.542969 830.117188 C 1069.226562 835.359375 1067.78125 840.570312 1066.207031 845.738281 C 1064.632812 850.910156 1062.9375 856.042969 1061.113281 861.128906 C 1059.285156 866.21875 1057.339844 871.257812 1055.265625 876.25 C 1053.195312 881.246094 1051.003906 886.183594 1048.6875 891.070312 C 1046.375 895.953125 1043.945312 900.78125 1041.394531 905.546875 C 1038.84375 910.3125 1036.175781 915.011719 1033.394531 919.648438 C 1030.617188 924.285156 1027.722656 928.847656 1024.71875 933.34375 C 1021.714844 937.835938 1018.601562 942.253906 1015.378906 946.59375 C 1012.15625 950.9375 1008.832031 955.195312 1005.402344 959.375 C 1001.972656 963.550781 998.441406 967.644531 994.8125 971.648438 C 991.179688 975.652344 987.453125 979.566406 983.632812 983.390625 C 979.808594 987.210938 975.894531 990.9375 971.890625 994.566406 C 967.882812 998.199219 963.792969 1001.726562 959.613281 1005.160156 C 955.433594 1008.589844 951.175781 1011.914062 946.832031 1015.132812 C 942.492188 1018.355469 938.074219 1021.46875 933.582031 1024.472656 C 929.085938 1027.476562 924.523438 1030.371094 919.886719 1033.148438 C 915.25 1035.929688 910.550781 1038.597656 905.78125 1041.144531 C 901.015625 1043.695312 896.191406 1046.128906 891.304688 1048.441406 C 886.417969 1050.753906 881.480469 1052.949219 876.484375 1055.019531 C 871.492188 1057.089844 866.453125 1059.039062 861.363281 1060.863281 C 856.273438 1062.6875 851.144531 1064.386719 845.972656 1065.957031 C 840.800781 1067.53125 835.589844 1068.976562 830.347656 1070.292969 C 825.105469 1071.613281 819.832031 1072.800781 814.53125 1073.859375 C 809.230469 1074.917969 803.90625 1075.847656 798.5625 1076.644531 C 793.214844 1077.441406 787.851562 1078.109375 782.472656 1078.644531 C 777.09375 1079.179688 771.703125 1079.582031 766.304688 1079.855469 C 760.90625 1080.125 755.503906 1080.265625 750.097656 1080.269531 Z M 750.097656 494.941406 C 745.925781 494.941406 741.753906 495.046875 737.585938 495.25 C 733.417969 495.453125 729.257812 495.761719 725.105469 496.171875 C 720.953125 496.578125 716.816406 497.089844 712.6875 497.703125 C 708.558594 498.3125 704.449219 499.027344 700.359375 499.839844 C 696.265625 500.65625 692.195312 501.570312 688.148438 502.582031 C 684.101562 503.597656 680.082031 504.707031 676.089844 505.921875 C 672.09375 507.132812 668.136719 508.4375 664.207031 509.84375 C 660.277344 511.25 656.386719 512.75 652.53125 514.347656 C 648.675781 515.945312 644.863281 517.636719 641.089844 519.417969 C 637.320312 521.203125 633.59375 523.078125 629.914062 525.042969 C 626.234375 527.011719 622.605469 529.066406 619.027344 531.210938 C 615.445312 533.355469 611.921875 535.589844 608.453125 537.90625 C 604.984375 540.222656 601.574219 542.625 598.222656 545.109375 C 594.871094 547.597656 591.582031 550.164062 588.359375 552.808594 C 585.132812 555.457031 581.972656 558.179688 578.882812 560.980469 C 575.789062 563.785156 572.769531 566.660156 569.820312 569.609375 C 566.867188 572.558594 563.992188 575.582031 561.191406 578.671875 C 558.390625 581.761719 555.664062 584.921875 553.015625 588.148438 C 550.371094 591.371094 547.804688 594.660156 545.320312 598.011719 C 542.832031 601.363281 540.429688 604.773438 538.113281 608.242188 C 535.796875 611.710938 533.5625 615.234375 531.417969 618.8125 C 529.273438 622.390625 527.21875 626.019531 525.25 629.699219 C 523.285156 633.378906 521.40625 637.105469 519.625 640.875 C 517.839844 644.648438 516.148438 648.460938 514.554688 652.316406 C 512.957031 656.167969 511.457031 660.0625 510.050781 663.988281 C 508.644531 667.917969 507.335938 671.878906 506.125 675.871094 C 504.914062 679.863281 503.800781 683.882812 502.785156 687.929688 C 501.773438 691.976562 500.859375 696.046875 500.046875 700.136719 C 499.230469 704.230469 498.519531 708.339844 497.90625 712.464844 C 497.292969 716.59375 496.78125 720.734375 496.375 724.886719 C 495.964844 729.039062 495.65625 733.195312 495.453125 737.363281 C 495.25 741.53125 495.144531 745.699219 495.144531 749.871094 C 495.144531 754.042969 495.25 758.214844 495.453125 762.382812 C 495.65625 766.546875 495.964844 770.707031 496.375 774.859375 C 496.78125 779.011719 497.292969 783.152344 497.90625 787.277344 C 498.519531 791.40625 499.230469 795.515625 500.046875 799.605469 C 500.859375 803.699219 501.773438 807.769531 502.785156 811.816406 C 503.800781 815.863281 504.914062 819.882812 506.125 823.875 C 507.335938 827.867188 508.644531 831.828125 510.050781 835.757812 C 511.457031 839.683594 512.957031 843.574219 514.554688 847.429688 C 516.148438 851.285156 517.839844 855.097656 519.625 858.871094 C 521.40625 862.640625 523.285156 866.367188 525.25 870.046875 C 527.21875 873.726562 529.273438 877.355469 531.417969 880.933594 C 533.5625 884.511719 535.796875 888.035156 538.113281 891.503906 C 540.429688 894.972656 542.832031 898.382812 545.320312 901.734375 C 547.804688 905.085938 550.371094 908.375 553.015625 911.597656 C 555.664062 914.824219 558.390625 917.980469 561.191406 921.074219 C 563.992188 924.164062 566.867188 927.183594 569.820312 930.136719 C 572.769531 933.085938 575.789062 935.960938 578.882812 938.761719 C 581.972656 941.566406 585.132812 944.289062 588.359375 946.9375 C 591.582031 949.582031 594.871094 952.148438 598.222656 954.632812 C 601.574219 957.121094 604.984375 959.519531 608.453125 961.839844 C 611.921875 964.15625 615.445312 966.386719 619.027344 968.535156 C 622.605469 970.679688 626.234375 972.734375 629.914062 974.699219 C 633.59375 976.667969 637.320312 978.542969 641.089844 980.328125 C 644.863281 982.109375 648.675781 983.800781 652.53125 985.398438 C 656.386719 986.992188 660.277344 988.496094 664.207031 989.902344 C 668.136719 991.304688 672.09375 992.613281 676.089844 993.824219 C 680.082031 995.035156 684.101562 996.148438 688.148438 997.164062 C 692.195312 998.175781 696.265625 999.089844 700.359375 999.902344 C 704.449219 1000.71875 708.558594 1001.429688 712.6875 1002.042969 C 716.816406 1002.65625 720.953125 1003.167969 725.105469 1003.574219 C 729.257812 1003.984375 733.417969 1004.289062 737.585938 1004.496094 C 741.753906 1004.699219 745.925781 1004.800781 750.097656 1004.800781 C 754.269531 1004.800781 758.4375 1004.699219 762.605469 1004.496094 C 766.773438 1004.289062 770.933594 1003.984375 775.085938 1003.574219 C 779.238281 1003.167969 783.378906 1002.65625 787.503906 1002.042969 C 791.632812 1001.429688 795.742188 1000.71875 799.835938 999.902344 C 803.925781 999.089844 807.996094 998.175781 812.042969 997.164062 C 816.089844 996.148438 820.113281 995.035156 824.105469 993.824219 C 828.097656 992.613281 832.058594 991.304688 835.988281 989.902344 C 839.914062 988.496094 843.808594 986.992188 847.660156 985.398438 C 851.515625 983.800781 855.328125 982.109375 859.101562 980.328125 C 862.875 978.542969 866.597656 976.667969 870.277344 974.699219 C 873.957031 972.734375 877.589844 970.679688 881.167969 968.535156 C 884.746094 966.386719 888.269531 964.15625 891.738281 961.839844 C 895.207031 959.519531 898.617188 957.121094 901.96875 954.632812 C 905.320312 952.148438 908.609375 949.582031 911.835938 946.9375 C 915.058594 944.289062 918.21875 941.566406 921.308594 938.761719 C 924.402344 935.960938 927.421875 933.085938 930.375 930.136719 C 933.324219 927.183594 936.199219 924.164062 939 921.074219 C 941.804688 917.980469 944.527344 914.824219 947.175781 911.597656 C 949.824219 908.375 952.386719 905.085938 954.875 901.734375 C 957.359375 898.382812 959.761719 894.972656 962.078125 891.503906 C 964.398438 888.035156 966.628906 884.511719 968.773438 880.933594 C 970.917969 877.355469 972.976562 873.726562 974.941406 870.046875 C 976.910156 866.367188 978.785156 862.640625 980.570312 858.871094 C 982.351562 855.097656 984.042969 851.285156 985.640625 847.429688 C 987.234375 843.574219 988.738281 839.683594 990.144531 835.757812 C 991.546875 831.828125 992.855469 827.867188 994.066406 823.875 C 995.28125 819.882812 996.390625 815.863281 997.40625 811.816406 C 998.417969 807.769531 999.332031 803.699219 1000.148438 799.605469 C 1000.960938 795.515625 1001.675781 791.40625 1002.285156 787.277344 C 1002.898438 783.152344 1003.410156 779.011719 1003.820312 774.859375 C 1004.226562 770.707031 1004.535156 766.546875 1004.738281 762.382812 C 1004.945312 758.214844 1005.046875 754.042969 1005.046875 749.871094 C 1005.042969 745.703125 1004.9375 741.53125 1004.730469 737.367188 C 1004.519531 733.203125 1004.210938 729.042969 1003.796875 724.890625 C 1003.386719 720.742188 1002.871094 716.601562 1002.257812 712.476562 C 1001.644531 708.351562 1000.925781 704.246094 1000.109375 700.152344 C 999.292969 696.0625 998.378906 691.996094 997.363281 687.949219 C 996.34375 683.90625 995.230469 679.886719 994.019531 675.894531 C 992.804688 671.90625 991.496094 667.945312 990.085938 664.019531 C 988.679688 660.09375 987.175781 656.203125 985.578125 652.351562 C 983.980469 648.496094 982.289062 644.6875 980.503906 640.917969 C 978.71875 637.144531 976.84375 633.421875 974.875 629.746094 C 972.90625 626.066406 970.851562 622.4375 968.707031 618.863281 C 966.558594 615.285156 964.328125 611.761719 962.011719 608.292969 C 959.691406 604.828125 957.289062 601.417969 954.804688 598.070312 C 952.320312 594.71875 949.753906 591.429688 947.105469 588.207031 C 944.460938 584.984375 941.734375 581.828125 938.933594 578.734375 C 936.132812 575.644531 933.257812 572.625 930.308594 569.675781 C 927.359375 566.726562 924.335938 563.851562 921.246094 561.050781 C 918.15625 558.25 915 555.523438 911.773438 552.878906 C 908.550781 550.230469 905.261719 547.667969 901.914062 545.179688 C 898.5625 542.695312 895.152344 540.292969 891.683594 537.976562 C 888.21875 535.65625 884.695312 533.425781 881.117188 531.28125 C 877.539062 529.136719 873.914062 527.078125 870.234375 525.109375 C 866.554688 523.144531 862.832031 521.269531 859.0625 519.484375 C 855.292969 517.699219 851.480469 516.007812 847.625 514.410156 C 843.773438 512.8125 839.882812 511.308594 835.957031 509.902344 C 832.03125 508.492188 828.070312 507.183594 824.078125 505.96875 C 820.089844 504.757812 816.070312 503.644531 812.023438 502.628906 C 807.976562 501.609375 803.910156 500.695312 799.820312 499.878906 C 795.726562 499.0625 791.621094 498.347656 787.492188 497.730469 C 783.367188 497.117188 779.230469 496.601562 775.078125 496.191406 C 770.929688 495.777344 766.769531 495.46875 762.601562 495.261719 C 758.4375 495.050781 754.269531 494.945312 750.097656 494.941406 Z M 750.097656 494.941406 " fill-opacity="1" fill-rule="nonzero"/></g></svg>