<svg xmlns="http://www.w3.org/2000/svg" xmlns:xlink="http://www.w3.org/1999/xlink" width="2000" zoomAndPan="magnify" viewBox="0 0 1500 1499.999933" height="2000" preserveAspectRatio="xMidYMid meet" version="1.0"><defs><clipPath id="1bf03133c8"><path d="M 234 29.636719 L 1266 29.636719 L 1266 1470.386719 L 234 1470.386719 Z M 234 29.636719 " clip-rule="nonzero"/></clipPath></defs><g clip-path="url(#1bf03133c8)"><path fill="#000000" d="M 750.175781 1470.386719 C 747.523438 1470.386719 744.898438 1470.109375 742.304688 1469.558594 C 739.710938 1469.007812 737.203125 1468.191406 734.777344 1467.117188 C 732.355469 1466.039062 730.070312 1464.71875 727.921875 1463.164062 C 725.773438 1461.605469 723.8125 1459.84375 722.035156 1457.875 C 702.085938 1435.808594 234.375 913.953125 234.375 545.273438 C 234.378906 536.835938 234.589844 528.40625 235.003906 519.980469 C 235.421875 511.550781 236.046875 503.140625 236.875 494.746094 C 237.707031 486.347656 238.742188 477.976562 239.980469 469.632812 C 241.222656 461.289062 242.667969 452.976562 244.316406 444.703125 C 245.964844 436.429688 247.816406 428.199219 249.871094 420.015625 C 251.921875 411.832031 254.175781 403.707031 256.628906 395.632812 C 259.078125 387.558594 261.730469 379.550781 264.574219 371.609375 C 267.417969 363.664062 270.457031 355.796875 273.691406 348.003906 C 276.921875 340.210938 280.34375 332.5 283.953125 324.875 C 287.5625 317.246094 291.359375 309.714844 295.339844 302.273438 C 299.320312 294.835938 303.480469 287.496094 307.820312 280.261719 C 312.160156 273.027344 316.675781 265.902344 321.367188 258.886719 C 326.054688 251.875 330.914062 244.980469 335.945312 238.203125 C 340.972656 231.425781 346.164062 224.777344 351.519531 218.257812 C 356.875 211.738281 362.386719 205.351562 368.054688 199.101562 C 373.726562 192.851562 379.542969 186.742188 385.511719 180.777344 C 391.480469 174.8125 397.59375 169 403.847656 163.335938 C 410.101562 157.667969 416.492188 152.160156 423.015625 146.808594 C 429.539062 141.457031 436.191406 136.269531 442.972656 131.246094 C 449.75 126.222656 456.648438 121.367188 463.667969 116.679688 C 470.6875 111.992188 477.816406 107.480469 485.054688 103.144531 C 492.292969 98.808594 499.636719 94.652344 507.078125 90.675781 C 514.523438 86.699219 522.058594 82.90625 529.6875 79.300781 C 537.316406 75.695312 545.03125 72.277344 552.828125 69.050781 C 560.625 65.820312 568.5 62.785156 576.445312 59.945312 C 584.390625 57.101562 592.402344 54.457031 600.480469 52.007812 C 608.554688 49.558594 616.6875 47.3125 624.875 45.261719 C 633.0625 43.210938 641.292969 41.363281 649.570312 39.71875 C 657.847656 38.074219 666.160156 36.632812 674.507812 35.394531 C 682.855469 34.15625 691.230469 33.125 699.628906 32.296875 C 708.027344 31.46875 716.441406 30.851562 724.871094 30.4375 C 733.300781 30.023438 741.738281 29.816406 750.175781 29.816406 C 758.617188 29.816406 767.050781 30.023438 775.480469 30.4375 C 783.910156 30.851562 792.324219 31.46875 800.722656 32.296875 C 809.121094 33.125 817.496094 34.15625 825.84375 35.394531 C 834.191406 36.632812 842.503906 38.074219 850.78125 39.71875 C 859.058594 41.363281 867.292969 43.210938 875.480469 45.261719 C 883.664062 47.3125 891.796875 49.558594 899.875 52.007812 C 907.949219 54.457031 915.960938 57.101562 923.90625 59.945312 C 931.855469 62.785156 939.726562 65.820312 947.523438 69.050781 C 955.320312 72.277344 963.035156 75.695312 970.664062 79.300781 C 978.292969 82.90625 985.832031 86.699219 993.273438 90.675781 C 1000.71875 94.652344 1008.058594 98.808594 1015.296875 103.144531 C 1022.539062 107.480469 1029.667969 111.992188 1036.683594 116.679688 C 1043.703125 121.367188 1050.601562 126.222656 1057.378906 131.246094 C 1064.160156 136.269531 1070.8125 141.457031 1077.335938 146.808594 C 1083.859375 152.160156 1090.25 157.667969 1096.503906 163.335938 C 1102.757812 169 1108.871094 174.8125 1114.839844 180.777344 C 1120.808594 186.742188 1126.628906 192.851562 1132.296875 199.101562 C 1137.964844 205.351562 1143.476562 211.738281 1148.832031 218.257812 C 1154.1875 224.777344 1159.378906 231.425781 1164.410156 238.203125 C 1169.4375 244.980469 1174.296875 251.875 1178.988281 258.886719 C 1183.675781 265.902344 1188.191406 273.027344 1192.535156 280.261719 C 1196.875 287.496094 1201.035156 294.835938 1205.015625 302.273438 C 1208.996094 309.714844 1212.789062 317.246094 1216.398438 324.875 C 1220.011719 332.5 1223.429688 340.210938 1226.664062 348.003906 C 1229.894531 355.796875 1232.933594 363.664062 1235.777344 371.609375 C 1238.625 379.550781 1241.273438 387.558594 1243.726562 395.632812 C 1246.175781 403.707031 1248.429688 411.832031 1250.484375 420.015625 C 1252.535156 428.199219 1254.386719 436.429688 1256.035156 444.703125 C 1257.683594 452.976562 1259.128906 461.289062 1260.371094 469.632812 C 1261.613281 477.976562 1262.648438 486.347656 1263.476562 494.746094 C 1264.308594 503.140625 1264.929688 511.550781 1265.347656 519.980469 C 1265.765625 528.40625 1265.972656 536.835938 1265.976562 545.273438 C 1265.976562 913.953125 798.265625 1435.808594 778.316406 1457.875 C 776.539062 1459.84375 774.578125 1461.605469 772.429688 1463.164062 C 770.285156 1464.71875 768 1466.039062 765.574219 1467.117188 C 763.152344 1468.191406 760.640625 1469.007812 758.046875 1469.558594 C 755.453125 1470.109375 752.828125 1470.386719 750.175781 1470.386719 Z M 750.175781 105.464844 C 742.976562 105.476562 735.785156 105.660156 728.597656 106.019531 C 721.40625 106.382812 714.234375 106.917969 707.070312 107.632812 C 699.90625 108.34375 692.765625 109.234375 685.648438 110.296875 C 678.53125 111.359375 671.441406 112.59375 664.382812 114.003906 C 657.324219 115.414062 650.304688 116.996094 643.324219 118.75 C 636.34375 120.503906 629.410156 122.429688 622.523438 124.523438 C 615.640625 126.617188 608.808594 128.878906 602.03125 131.308594 C 595.257812 133.734375 588.546875 136.328125 581.898438 139.085938 C 575.25 141.84375 568.671875 144.761719 562.167969 147.84375 C 555.664062 150.921875 549.238281 154.160156 542.890625 157.554688 C 536.542969 160.949219 530.285156 164.496094 524.113281 168.199219 C 517.941406 171.902344 511.863281 175.75 505.878906 179.75 C 499.894531 183.75 494.015625 187.894531 488.234375 192.179688 C 482.453125 196.46875 476.78125 200.894531 471.21875 205.460938 C 465.65625 210.027344 460.207031 214.726562 454.875 219.558594 C 449.542969 224.390625 444.332031 229.351562 439.242188 234.4375 C 434.152344 239.527344 429.191406 244.734375 424.355469 250.066406 C 419.523438 255.398438 414.820312 260.84375 410.253906 266.40625 C 405.6875 271.96875 401.257812 277.636719 396.96875 283.414062 C 392.679688 289.195312 388.535156 295.074219 384.535156 301.054688 C 380.535156 307.035156 376.683594 313.113281 372.980469 319.285156 C 369.277344 325.453125 365.730469 331.710938 362.332031 338.054688 C 358.9375 344.398438 355.699219 350.824219 352.617188 357.324219 C 349.539062 363.828125 346.617188 370.402344 343.859375 377.050781 C 341.101562 383.695312 338.507812 390.40625 336.078125 397.179688 C 333.648438 403.953125 331.386719 410.78125 329.292969 417.664062 C 327.195312 424.546875 325.273438 431.480469 323.515625 438.457031 C 321.761719 445.4375 320.179688 452.453125 318.769531 459.507812 C 317.359375 466.566406 316.121094 473.652344 315.058594 480.765625 C 313.996094 487.882812 313.109375 495.023438 312.394531 502.183594 C 311.683594 509.34375 311.144531 516.515625 310.785156 523.703125 C 310.421875 530.886719 310.238281 538.078125 310.226562 545.273438 C 310.226562 835.546875 649.0625 1255.640625 750.175781 1374.617188 C 851.289062 1255.640625 1190.125 835.546875 1190.125 545.273438 C 1190.117188 538.078125 1189.929688 530.886719 1189.570312 523.703125 C 1189.207031 516.515625 1188.671875 509.34375 1187.957031 502.183594 C 1187.246094 495.023438 1186.355469 487.882812 1185.292969 480.765625 C 1184.230469 473.652344 1182.992188 466.566406 1181.582031 459.507812 C 1180.171875 452.453125 1178.589844 445.4375 1176.835938 438.457031 C 1175.082031 431.480469 1173.15625 424.546875 1171.0625 417.664062 C 1168.964844 410.78125 1166.703125 403.953125 1164.273438 397.179688 C 1161.84375 390.40625 1159.25 383.695312 1156.492188 377.050781 C 1153.734375 370.402344 1150.816406 363.828125 1147.734375 357.324219 C 1144.652344 350.824219 1141.414062 344.398438 1138.019531 338.054688 C 1134.625 331.710938 1131.074219 325.453125 1127.371094 319.285156 C 1123.667969 313.113281 1119.816406 307.035156 1115.816406 301.054688 C 1111.816406 295.074219 1107.671875 289.195312 1103.382812 283.414062 C 1099.09375 277.636719 1094.664062 271.96875 1090.097656 266.40625 C 1085.53125 260.84375 1080.832031 255.398438 1075.996094 250.066406 C 1071.164062 244.734375 1066.199219 239.527344 1061.109375 234.4375 C 1056.019531 229.351562 1050.808594 224.390625 1045.476562 219.558594 C 1040.144531 214.726562 1034.695312 210.027344 1029.132812 205.460938 C 1023.570312 200.894531 1017.898438 196.46875 1012.117188 192.179688 C 1006.339844 187.894531 1000.457031 183.75 994.472656 179.75 C 988.488281 175.75 982.410156 171.902344 976.238281 168.199219 C 970.066406 164.496094 963.808594 160.949219 957.460938 157.554688 C 951.113281 154.160156 944.6875 150.921875 938.183594 147.84375 C 931.679688 144.761719 925.101562 141.84375 918.453125 139.085938 C 911.804688 136.328125 905.09375 133.734375 898.320312 131.308594 C 891.542969 128.878906 884.714844 126.617188 877.828125 124.523438 C 870.941406 122.429688 864.007812 120.503906 857.027344 118.75 C 850.046875 116.996094 843.027344 115.414062 835.96875 114.003906 C 828.910156 112.59375 821.824219 111.359375 814.703125 110.296875 C 807.585938 109.234375 800.445312 108.34375 793.28125 107.632812 C 786.121094 106.917969 778.945312 106.382812 771.753906 106.019531 C 764.566406 105.660156 757.375 105.476562 750.175781 105.464844 Z M 750.175781 753.804688 C 746.761719 753.804688 743.351562 753.71875 739.941406 753.554688 C 736.53125 753.386719 733.128906 753.132812 729.730469 752.800781 C 726.332031 752.464844 722.945312 752.046875 719.570312 751.546875 C 716.191406 751.046875 712.828125 750.460938 709.480469 749.796875 C 706.132812 749.132812 702.804688 748.382812 699.492188 747.554688 C 696.179688 746.726562 692.890625 745.816406 689.625 744.824219 C 686.355469 743.835938 683.117188 742.765625 679.902344 741.613281 C 676.6875 740.464844 673.503906 739.238281 670.351562 737.929688 C 667.195312 736.625 664.074219 735.242188 660.988281 733.78125 C 657.902344 732.324219 654.855469 730.789062 651.84375 729.179688 C 648.835938 727.570312 645.863281 725.890625 642.9375 724.136719 C 640.007812 722.382812 637.125 720.554688 634.285156 718.660156 C 631.449219 716.765625 628.65625 714.800781 625.914062 712.765625 C 623.171875 710.734375 620.484375 708.636719 617.84375 706.46875 C 615.207031 704.304688 612.621094 702.078125 610.089844 699.785156 C 607.5625 697.492188 605.089844 695.140625 602.675781 692.726562 C 600.261719 690.3125 597.910156 687.84375 595.617188 685.3125 C 593.324219 682.785156 591.09375 680.203125 588.929688 677.5625 C 586.761719 674.925781 584.664062 672.234375 582.628906 669.496094 C 580.597656 666.753906 578.632812 663.964844 576.734375 661.128906 C 574.839844 658.289062 573.011719 655.40625 571.257812 652.480469 C 569.503906 649.550781 567.820312 646.585938 566.210938 643.574219 C 564.601562 640.566406 563.066406 637.515625 561.609375 634.433594 C 560.148438 631.347656 558.765625 628.226562 557.457031 625.074219 C 556.152344 621.921875 554.925781 618.738281 553.773438 615.527344 C 552.625 612.3125 551.554688 609.074219 550.5625 605.808594 C 549.570312 602.542969 548.660156 599.253906 547.832031 595.941406 C 547.003906 592.632812 546.253906 589.304688 545.589844 585.957031 C 544.921875 582.609375 544.339844 579.246094 543.839844 575.871094 C 543.335938 572.496094 542.917969 569.109375 542.585938 565.714844 C 542.25 562.316406 542 558.914062 541.832031 555.507812 C 541.664062 552.097656 541.582031 548.6875 541.582031 545.273438 C 541.582031 541.863281 541.664062 538.449219 541.832031 535.042969 C 542 531.632812 542.25 528.230469 542.585938 524.835938 C 542.917969 521.4375 543.335938 518.050781 543.839844 514.675781 C 544.339844 511.300781 544.921875 507.9375 545.589844 504.59375 C 546.253906 501.246094 547.003906 497.917969 547.832031 494.605469 C 548.660156 491.296875 549.570312 488.007812 550.5625 484.742188 C 551.554688 481.476562 552.625 478.234375 553.773438 475.023438 C 554.925781 471.808594 556.152344 468.625 557.457031 465.472656 C 558.765625 462.320312 560.148438 459.203125 561.609375 456.117188 C 563.066406 453.03125 564.601562 449.984375 566.210938 446.972656 C 567.820312 443.964844 569.503906 440.996094 571.257812 438.070312 C 573.011719 435.140625 574.839844 432.257812 576.734375 429.421875 C 578.632812 426.582031 580.597656 423.792969 582.628906 421.054688 C 584.664062 418.3125 586.761719 415.621094 588.929688 412.984375 C 591.09375 410.347656 593.324219 407.761719 595.617188 405.234375 C 597.910156 402.707031 600.261719 400.234375 602.675781 397.820312 C 605.089844 395.410156 607.5625 393.054688 610.089844 390.765625 C 612.621094 388.472656 615.207031 386.242188 617.84375 384.078125 C 620.484375 381.914062 623.171875 379.816406 625.914062 377.78125 C 628.65625 375.75 631.449219 373.785156 634.285156 371.886719 C 637.125 369.992188 640.007812 368.167969 642.9375 366.414062 C 645.863281 364.65625 648.835938 362.976562 651.84375 361.367188 C 654.855469 359.757812 657.902344 358.226562 660.988281 356.765625 C 664.074219 355.304688 667.195312 353.925781 670.351562 352.617188 C 673.503906 351.3125 676.6875 350.085938 679.902344 348.933594 C 683.117188 347.785156 686.355469 346.714844 689.625 345.722656 C 692.890625 344.734375 696.179688 343.824219 699.492188 342.992188 C 702.804688 342.164062 706.132812 341.417969 709.480469 340.75 C 712.828125 340.085938 716.191406 339.503906 719.570312 339 C 722.945312 338.5 726.332031 338.082031 729.730469 337.75 C 733.128906 337.414062 736.53125 337.164062 739.941406 336.996094 C 743.351562 336.828125 746.761719 336.746094 750.175781 336.746094 C 753.589844 336.746094 757 336.828125 760.410156 336.996094 C 763.820312 337.164062 767.226562 337.414062 770.621094 337.75 C 774.019531 338.082031 777.40625 338.5 780.785156 339 C 784.160156 339.503906 787.523438 340.085938 790.871094 340.75 C 794.21875 341.417969 797.550781 342.164062 800.859375 342.992188 C 804.171875 343.824219 807.460938 344.734375 810.726562 345.722656 C 813.996094 346.714844 817.234375 347.785156 820.449219 348.933594 C 823.664062 350.085938 826.847656 351.3125 830.003906 352.617188 C 833.15625 353.925781 836.277344 355.304688 839.363281 356.765625 C 842.449219 358.226562 845.496094 359.757812 848.507812 361.367188 C 851.519531 362.976562 854.488281 364.65625 857.414062 366.414062 C 860.34375 368.167969 863.226562 369.992188 866.066406 371.886719 C 868.902344 373.785156 871.695312 375.75 874.4375 377.78125 C 877.179688 379.816406 879.867188 381.914062 882.507812 384.078125 C 885.148438 386.242188 887.730469 388.472656 890.261719 390.765625 C 892.789062 393.054688 895.261719 395.410156 897.675781 397.820312 C 900.089844 400.234375 902.441406 402.707031 904.734375 405.234375 C 907.027344 407.761719 909.257812 410.347656 911.421875 412.984375 C 913.589844 415.621094 915.6875 418.3125 917.722656 421.054688 C 919.753906 423.792969 921.71875 426.582031 923.617188 429.421875 C 925.515625 432.257812 927.339844 435.140625 929.09375 438.070312 C 930.851562 440.996094 932.53125 443.964844 934.140625 446.972656 C 935.75 449.984375 937.285156 453.03125 938.746094 456.117188 C 940.203125 459.203125 941.585938 462.320312 942.894531 465.472656 C 944.199219 468.625 945.429688 471.808594 946.578125 475.023438 C 947.730469 478.234375 948.800781 481.476562 949.789062 484.742188 C 950.78125 488.007812 951.691406 491.296875 952.519531 494.605469 C 953.351562 497.917969 954.097656 501.246094 954.765625 504.59375 C 955.429688 507.9375 956.011719 511.300781 956.515625 514.675781 C 957.015625 518.050781 957.433594 521.4375 957.769531 524.835938 C 958.101562 528.230469 958.351562 531.632812 958.519531 535.042969 C 958.6875 538.449219 958.773438 541.863281 958.773438 545.273438 C 958.769531 548.6875 958.679688 552.09375 958.511719 555.503906 C 958.339844 558.910156 958.085938 562.3125 957.746094 565.707031 C 957.410156 569.101562 956.988281 572.484375 956.484375 575.859375 C 955.980469 579.234375 955.394531 582.59375 954.726562 585.941406 C 954.058594 589.285156 953.308594 592.613281 952.476562 595.921875 C 951.644531 599.230469 950.730469 602.519531 949.738281 605.78125 C 948.746094 609.046875 947.675781 612.285156 946.523438 615.496094 C 945.371094 618.707031 944.140625 621.886719 942.832031 625.039062 C 941.523438 628.191406 940.140625 631.308594 938.679688 634.390625 C 937.21875 637.476562 935.683594 640.519531 934.074219 643.53125 C 932.464844 646.539062 930.78125 649.503906 929.027344 652.429688 C 927.269531 655.355469 925.445312 658.238281 923.546875 661.074219 C 921.652344 663.910156 919.683594 666.699219 917.652344 669.4375 C 915.617188 672.175781 913.519531 674.867188 911.351562 677.503906 C 909.1875 680.140625 906.960938 682.722656 904.667969 685.25 C 902.375 687.777344 900.023438 690.246094 897.609375 692.660156 C 895.195312 695.074219 892.726562 697.425781 890.195312 699.714844 C 887.667969 702.007812 885.085938 704.234375 882.445312 706.398438 C 879.808594 708.566406 877.121094 710.664062 874.378906 712.695312 C 871.636719 714.730469 868.847656 716.695312 866.011719 718.589844 C 863.175781 720.488281 860.292969 722.3125 857.367188 724.066406 C 854.441406 725.820312 851.472656 727.503906 848.460938 729.113281 C 845.453125 730.722656 842.40625 732.257812 839.320312 733.71875 C 836.238281 735.179688 833.121094 736.5625 829.96875 737.871094 C 826.816406 739.175781 823.632812 740.40625 820.417969 741.558594 C 817.207031 742.710938 813.96875 743.78125 810.703125 744.773438 C 807.4375 745.765625 804.148438 746.679688 800.839844 747.511719 C 797.53125 748.339844 794.203125 749.089844 790.855469 749.757812 C 787.507812 750.429688 784.148438 751.015625 780.773438 751.515625 C 777.398438 752.019531 774.011719 752.441406 770.613281 752.777344 C 767.21875 753.117188 763.816406 753.371094 760.410156 753.542969 C 757 753.710938 753.589844 753.800781 750.175781 753.804688 Z M 750.175781 412.574219 C 748.003906 412.574219 745.832031 412.625 743.664062 412.734375 C 741.492188 412.839844 739.328125 413 737.164062 413.210938 C 735.003906 413.425781 732.847656 413.691406 730.699219 414.011719 C 728.550781 414.328125 726.410156 414.699219 724.28125 415.125 C 722.148438 415.546875 720.03125 416.023438 717.921875 416.550781 C 715.816406 417.078125 713.722656 417.65625 711.644531 418.289062 C 709.5625 418.917969 707.5 419.597656 705.457031 420.332031 C 703.410156 421.0625 701.382812 421.84375 699.378906 422.675781 C 697.371094 423.507812 695.386719 424.386719 693.421875 425.3125 C 691.457031 426.242188 689.515625 427.21875 687.601562 428.242188 C 685.6875 429.265625 683.796875 430.335938 681.933594 431.453125 C 680.070312 432.570312 678.234375 433.730469 676.429688 434.9375 C 674.621094 436.144531 672.847656 437.394531 671.101562 438.6875 C 669.355469 439.980469 667.644531 441.316406 665.964844 442.695312 C 664.285156 444.074219 662.640625 445.492188 661.03125 446.949219 C 659.421875 448.40625 657.847656 449.90625 656.3125 451.441406 C 654.777344 452.976562 653.277344 454.546875 651.820312 456.15625 C 650.359375 457.765625 648.941406 459.410156 647.566406 461.089844 C 646.1875 462.769531 644.851562 464.480469 643.554688 466.222656 C 642.261719 467.96875 641.011719 469.742188 639.804688 471.550781 C 638.597656 473.355469 637.4375 475.191406 636.320312 477.050781 C 635.203125 478.914062 634.132812 480.804688 633.109375 482.71875 C 632.082031 484.636719 631.105469 486.574219 630.179688 488.539062 C 629.25 490.5 628.367188 492.484375 627.539062 494.492188 C 626.707031 496.5 625.925781 498.523438 625.191406 500.570312 C 624.460938 502.613281 623.78125 504.675781 623.148438 506.753906 C 622.519531 508.832031 621.9375 510.925781 621.410156 513.03125 C 620.882812 515.136719 620.40625 517.253906 619.984375 519.386719 C 619.558594 521.515625 619.1875 523.65625 618.871094 525.804688 C 618.550781 527.953125 618.285156 530.105469 618.074219 532.265625 C 617.859375 534.429688 617.699219 536.59375 617.59375 538.761719 C 617.488281 540.933594 617.433594 543.101562 617.433594 545.273438 C 617.433594 547.445312 617.488281 549.617188 617.59375 551.785156 C 617.699219 553.953125 617.859375 556.121094 618.074219 558.28125 C 618.285156 560.441406 618.550781 562.597656 618.871094 564.746094 C 619.1875 566.894531 619.558594 569.03125 619.984375 571.164062 C 620.40625 573.292969 620.882812 575.410156 621.410156 577.519531 C 621.9375 579.625 622.519531 581.71875 623.148438 583.796875 C 623.78125 585.875 624.460938 587.933594 625.191406 589.980469 C 625.925781 592.023438 626.707031 594.050781 627.539062 596.054688 C 628.367188 598.0625 629.25 600.046875 630.179688 602.011719 C 631.105469 603.972656 632.082031 605.914062 633.109375 607.828125 C 634.132812 609.746094 635.203125 611.632812 636.320312 613.496094 C 637.4375 615.359375 638.597656 617.191406 639.804688 619 C 641.011719 620.804688 642.261719 622.578125 643.554688 624.324219 C 644.851562 626.066406 646.1875 627.78125 647.566406 629.457031 C 648.941406 631.136719 650.359375 632.78125 651.820312 634.390625 C 653.277344 636 654.777344 637.570312 656.3125 639.109375 C 657.847656 640.644531 659.421875 642.140625 661.03125 643.597656 C 662.640625 645.058594 664.285156 646.476562 665.964844 647.851562 C 667.644531 649.230469 669.355469 650.566406 671.101562 651.859375 C 672.847656 653.152344 674.621094 654.402344 676.429688 655.609375 C 678.234375 656.816406 680.070312 657.980469 681.933594 659.09375 C 683.796875 660.210938 685.6875 661.28125 687.601562 662.304688 C 689.515625 663.328125 691.457031 664.304688 693.421875 665.234375 C 695.386719 666.164062 697.371094 667.042969 699.378906 667.875 C 701.382812 668.703125 703.410156 669.484375 705.457031 670.21875 C 707.5 670.949219 709.5625 671.628906 711.644531 672.261719 C 713.722656 672.890625 715.816406 673.46875 717.921875 673.996094 C 720.03125 674.527344 722.148438 675 724.28125 675.425781 C 726.410156 675.847656 728.550781 676.21875 730.699219 676.539062 C 732.847656 676.855469 735.003906 677.125 737.164062 677.335938 C 739.328125 677.550781 741.492188 677.707031 743.664062 677.816406 C 745.832031 677.921875 748.003906 677.976562 750.175781 677.976562 C 752.347656 677.976562 754.519531 677.921875 756.691406 677.816406 C 758.859375 677.707031 761.023438 677.550781 763.1875 677.335938 C 765.347656 677.125 767.503906 676.855469 769.652344 676.539062 C 771.800781 676.21875 773.941406 675.847656 776.074219 675.425781 C 778.203125 675 780.324219 674.527344 782.429688 673.996094 C 784.539062 673.46875 786.628906 672.890625 788.710938 672.261719 C 790.789062 671.628906 792.851562 670.949219 794.894531 670.21875 C 796.941406 669.484375 798.96875 668.703125 800.972656 667.875 C 802.980469 667.042969 804.96875 666.164062 806.929688 665.234375 C 808.894531 664.304688 810.835938 663.328125 812.75 662.304688 C 814.667969 661.28125 816.554688 660.210938 818.417969 659.09375 C 820.28125 657.980469 822.117188 656.816406 823.925781 655.609375 C 825.730469 654.402344 827.507812 653.152344 829.25 651.859375 C 830.996094 650.566406 832.707031 649.230469 834.386719 647.851562 C 836.066406 646.476562 837.710938 645.058594 839.320312 643.597656 C 840.929688 642.140625 842.503906 640.644531 844.039062 639.109375 C 845.574219 637.570312 847.074219 636 848.53125 634.390625 C 849.992188 632.78125 851.410156 631.136719 852.789062 629.457031 C 854.164062 627.78125 855.503906 626.066406 856.796875 624.324219 C 858.089844 622.578125 859.339844 620.804688 860.546875 619 C 861.753906 617.191406 862.917969 615.359375 864.035156 613.496094 C 865.148438 611.632812 866.222656 609.746094 867.246094 607.828125 C 868.269531 605.914062 869.246094 603.972656 870.175781 602.011719 C 871.101562 600.046875 871.984375 598.0625 872.8125 596.054688 C 873.644531 594.050781 874.425781 592.023438 875.160156 589.980469 C 875.890625 587.933594 876.574219 585.875 877.203125 583.796875 C 877.832031 581.71875 878.414062 579.625 878.941406 577.519531 C 879.46875 575.410156 879.945312 573.292969 880.367188 571.164062 C 880.792969 569.03125 881.164062 566.894531 881.480469 564.746094 C 881.800781 562.597656 882.066406 560.441406 882.28125 558.28125 C 882.492188 556.121094 882.652344 553.953125 882.757812 551.785156 C 882.867188 549.617188 882.917969 547.445312 882.917969 545.273438 C 882.917969 543.101562 882.859375 540.933594 882.75 538.765625 C 882.644531 536.597656 882.480469 534.433594 882.265625 532.273438 C 882.050781 530.113281 881.785156 527.957031 881.460938 525.808594 C 881.140625 523.664062 880.769531 521.523438 880.34375 519.394531 C 879.917969 517.265625 879.441406 515.148438 878.910156 513.042969 C 878.382812 510.9375 877.800781 508.847656 877.167969 506.769531 C 876.539062 504.691406 875.855469 502.632812 875.121094 500.589844 C 874.390625 498.546875 873.605469 496.519531 872.773438 494.515625 C 871.941406 492.511719 871.0625 490.527344 870.132812 488.5625 C 869.203125 486.601562 868.226562 484.664062 867.199219 482.75 C 866.175781 480.835938 865.105469 478.945312 863.988281 477.085938 C 862.871094 475.222656 861.707031 473.390625 860.5 471.585938 C 859.292969 469.78125 858.042969 468.007812 856.75 466.261719 C 855.457031 464.519531 854.121094 462.808594 852.742188 461.128906 C 851.363281 459.453125 849.945312 457.808594 848.488281 456.199219 C 847.027344 454.59375 845.53125 453.019531 843.996094 451.484375 C 842.460938 449.949219 840.886719 448.453125 839.277344 446.996094 C 837.667969 445.535156 836.023438 444.121094 834.347656 442.742188 C 832.667969 441.363281 830.957031 440.027344 829.210938 438.734375 C 827.46875 437.441406 825.695312 436.191406 823.886719 434.984375 C 822.082031 433.777344 820.25 432.617188 818.386719 431.5 C 816.523438 430.382812 814.636719 429.3125 812.722656 428.289062 C 810.804688 427.261719 808.867188 426.285156 806.902344 425.355469 C 804.941406 424.429688 802.957031 423.546875 800.949219 422.714844 C 798.945312 421.882812 796.921875 421.101562 794.875 420.367188 C 792.832031 419.636719 790.769531 418.953125 788.691406 418.320312 C 786.613281 417.691406 784.523438 417.109375 782.417969 416.582031 C 780.308594 416.050781 778.191406 415.574219 776.0625 415.148438 C 773.933594 414.722656 771.792969 414.351562 769.644531 414.03125 C 767.5 413.710938 765.34375 413.441406 763.183594 413.226562 C 761.019531 413.011719 758.855469 412.847656 756.6875 412.742188 C 754.519531 412.632812 752.347656 412.574219 750.175781 412.574219 Z M 750.175781 412.574219 " fill-opacity="1" fill-rule="nonzero"/></g></svg>