<svg xmlns="http://www.w3.org/2000/svg" xmlns:xlink="http://www.w3.org/1999/xlink" width="2000" zoomAndPan="magnify" viewBox="0 0 1500 1499.999933" height="2000" preserveAspectRatio="xMidYMid meet" version="1.0"><defs><clipPath id="b0be56abe2"><path d="M 27.363281 232.410156 L 1472.613281 232.410156 L 1472.613281 1267 L 27.363281 1267 Z M 27.363281 232.410156 " clip-rule="nonzero"/></clipPath></defs><path stroke-linecap="butt" transform="matrix(0.748525, -0.0470179, 0.0470179, 0.748525, 1391.109634, 1197.887109)" fill="none" stroke-linejoin="miter" d="M -0.000611828 1.998164 L 43.642427 1.999797 " stroke="#000000" stroke-width="4" stroke-opacity="1" stroke-miterlimit="4"/><g clip-path="url(#b0be56abe2)"><path fill="#100f0d" d="M 180.699219 1220.453125 C 159.65625 1220.453125 139.578125 1214.402344 122.371094 1203.171875 L 534.371094 781.097656 L 667.148438 916.128906 C 689.003906 938.359375 718.199219 950.601562 749.371094 950.613281 C 749.386719 950.613281 749.386719 950.613281 749.398438 950.613281 C 780.539062 950.613281 809.734375 938.390625 831.578125 916.1875 L 964.699219 781.066406 L 1377.546875 1203.21875 C 1360.367188 1214.417969 1340.304688 1220.453125 1319.277344 1220.453125 Z M 89.855469 1170.089844 C 79.335938 1153.277344 73.660156 1133.808594 73.660156 1113.464844 L 73.660156 385.972656 C 73.660156 365.507812 79.367188 345.933594 90.007812 329.089844 L 501.875 748.011719 Z M 180.699219 278.984375 L 1319.277344 278.984375 C 1340.214844 278.984375 1360.203125 284.945312 1377.320312 296.054688 L 948.246094 731.699219 L 798.535156 883.648438 C 785.476562 896.929688 768.011719 904.25 749.398438 904.25 C 749.386719 904.25 749.386719 904.25 749.386719 904.25 C 730.742188 904.25 713.277344 896.914062 700.21875 883.632812 L 550.855469 731.714844 L 122.597656 296.097656 C 139.746094 284.960938 159.746094 278.984375 180.699219 278.984375 Z M 997.242188 748.011719 L 1409.925781 329.015625 C 1420.597656 345.902344 1426.316406 365.492188 1426.316406 385.972656 L 1426.316406 1113.464844 C 1426.316406 1133.824219 1420.640625 1153.308594 1410.058594 1170.148438 Z M 1428.097656 277.941406 C 1428.097656 277.941406 1428.097656 277.925781 1428.097656 277.925781 C 1428.082031 277.925781 1428.082031 277.910156 1428.070312 277.910156 C 1428.070312 277.898438 1428.070312 277.898438 1428.054688 277.882812 C 1428.054688 277.882812 1428.039062 277.867188 1428.023438 277.851562 C 1399.054688 248.691406 1360.441406 232.621094 1319.277344 232.621094 L 180.699219 232.621094 C 139.503906 232.621094 100.847656 248.722656 71.847656 277.957031 C 71.832031 277.972656 71.820312 277.988281 71.804688 278.003906 C 43.109375 306.828125 27.289062 345.179688 27.289062 385.972656 L 27.289062 1113.464844 C 27.289062 1154.183594 43.0625 1192.488281 71.683594 1221.34375 C 71.757812 1221.417969 71.832031 1221.496094 71.910156 1221.570312 C 71.925781 1221.585938 71.9375 1221.601562 71.953125 1221.628906 C 71.96875 1221.644531 72 1221.660156 72.015625 1221.675781 C 101.027344 1250.773438 139.59375 1266.816406 180.699219 1266.816406 L 1319.277344 1266.816406 C 1360.414062 1266.816406 1398.996094 1250.773438 1427.960938 1221.675781 C 1427.960938 1221.660156 1427.976562 1221.660156 1427.992188 1221.644531 C 1428.007812 1221.644531 1428.007812 1221.628906 1428.023438 1221.617188 C 1428.097656 1221.539062 1428.175781 1221.480469 1428.25 1221.40625 C 1456.914062 1192.515625 1472.6875 1154.183594 1472.6875 1113.464844 L 1472.6875 385.972656 C 1472.6875 345.164062 1456.855469 306.800781 1428.097656 277.941406 " fill-opacity="1" fill-rule="nonzero"/></g></svg>