<svg xmlns="http://www.w3.org/2000/svg" xmlns:xlink="http://www.w3.org/1999/xlink" width="2000" zoomAndPan="magnify" viewBox="0 0 1500 1499.999933" height="2000" preserveAspectRatio="xMidYMid meet" version="1.0"><defs><clipPath id="eaca682ca2"><path d="M 0 62.8125 L 1500 62.8125 L 1500 1437.5625 L 0 1437.5625 Z M 0 62.8125 " clip-rule="nonzero"/></clipPath></defs><path stroke-linecap="butt" transform="matrix(0.737028, -0.138887, 0.138887, 0.737028, 749.722121, 799.824751)" fill="none" stroke-linejoin="miter" d="M 0.000614407 1.997494 L 44.323627 2.002318 " stroke="#000000" stroke-width="4" stroke-opacity="1" stroke-miterlimit="4"/><g clip-path="url(#eaca682ca2)"><path fill="#000000" d="M 1163.496094 1407.027344 C 1167.039062 1411.445312 1170.582031 1415.105469 1174.035156 1417.566406 Z M 498.363281 1163.972656 C 511.242188 1152.292969 632.140625 1035.839844 765.929688 906.941406 L 1116.269531 1256.949219 C 1101.773438 1302.3125 1112.445312 1354.152344 1148.261719 1389.972656 L 1195.492188 1437.203125 L 1381.019531 1251.675781 L 1333.789062 1204.445312 C 1297.46875 1168.121094 1244.664062 1157.671875 1198.859375 1173.085938 L 850.699219 825.253906 C 994.019531 687.179688 1129.472656 556.8125 1143.269531 544.570312 C 1152.132812 553.0625 1166.328125 552.941406 1175.042969 544.230469 L 1195.390625 523.882812 L 1234.839844 521.511719 C 1344.402344 639.785156 1434.773438 757.78125 1499.828125 864.023438 C 1490.507812 746.621094 1407.03125 585.546875 1270.199219 433.628906 C 1285.625 420.335938 1301.097656 407.085938 1316.601562 393.882812 C 1280.011719 357.292969 1243.40625 320.703125 1206.832031 284.113281 C 1193.730469 299.628906 1180.554688 315.160156 1167.277344 330.707031 C 1015.300781 193.757812 854.152344 110.207031 736.691406 100.882812 C 843.972656 166.578125 963.253906 258.105469 1082.699219 369.105469 L 1079.914062 402.242188 L 1056.484375 425.671875 C 1047.652344 434.503906 1047.652344 448.96875 1056.484375 457.800781 L 1056.707031 458.023438 C 1051.402344 464.039062 920.1875 600.277344 775.667969 750.296875 L 444.285156 419.238281 L 409.339844 384.296875 L 503.917969 289.714844 C 486.402344 272.199219 297.527344 82.597656 296.859375 83.25 C 233.105469 53.371094 127.160156 56.484375 27.347656 91.101562 C -5.089844 185.859375 -9.269531 279.609375 19.199219 360.910156 C 88.109375 429.835938 157.035156 498.761719 225.949219 567.671875 L 326.113281 467.523438 L 418.675781 560.101562 L 418.691406 560.042969 L 693.996094 835.078125 C 541.160156 993.707031 396.789062 1143.566406 391.097656 1149.9375 C 318.183594 1219.886719 243.507812 1289.878906 167.023438 1359.933594 C 192.78125 1385.6875 218.539062 1411.445312 244.308594 1437.203125 C 327.730469 1344.417969 412.421875 1253.347656 498.363281 1163.972656 Z M 498.363281 1163.972656 " fill-opacity="1" fill-rule="evenodd"/></g></svg>