<svg xmlns="http://www.w3.org/2000/svg" xmlns:xlink="http://www.w3.org/1999/xlink" width="2000" zoomAndPan="magnify" viewBox="0 0 1500 1499.999933" height="2000" preserveAspectRatio="xMidYMid meet" version="1.0"><defs><clipPath id="640ef973fb"><path d="M 42.167969 42.167969 L 1458 42.167969 L 1458 1458 L 42.167969 1458 Z M 42.167969 42.167969 " clip-rule="nonzero"/></clipPath></defs><path stroke-linecap="butt" transform="matrix(-0.748115, 0.0531332, -0.0531332, -0.748115, 1452.86182, 1196.776749)" fill="none" stroke-linejoin="miter" d="M 0.00226036 1.999182 L 38.620026 2.000658 " stroke="#000000" stroke-width="4" stroke-opacity="1" stroke-miterlimit="4"/><g clip-path="url(#640ef973fb)"><path fill="#000000" d="M 258.355469 52.765625 L 352.367188 42.539062 C 369.917969 40.628906 386.84375 44.394531 401.207031 52.722656 C 415.558594 61.03125 427.253906 73.882812 434.351562 90.117188 L 553.148438 362.082031 C 558.878906 375.203125 561.011719 388.945312 559.617188 402.382812 C 558.210938 415.882812 553.300781 428.902344 544.984375 440.566406 C 503.171875 499.226562 449.632812 543.757812 384.375 574.136719 C 414.449219 634.460938 446.253906 689.136719 480.722656 739.113281 C 519.382812 795.167969 561.445312 845.285156 608.25 890.804688 L 608.734375 891.296875 C 654.25 938.085938 704.371094 980.144531 760.425781 1018.816406 C 810.402344 1053.292969 865.078125 1085.09375 925.40625 1115.164062 C 938.691406 1086.597656 954.683594 1060.289062 973.371094 1036.25 C 997.363281 1005.363281 1025.902344 978.121094 1058.96875 954.550781 C 1070.636719 946.242188 1083.664062 941.320312 1097.160156 939.917969 C 1110.601562 938.527344 1124.320312 940.652344 1137.457031 946.390625 L 1409.421875 1065.191406 C 1425.65625 1072.277344 1438.503906 1083.976562 1446.820312 1098.328125 C 1455.144531 1112.6875 1458.910156 1129.617188 1457 1147.167969 L 1446.765625 1241.1875 C 1445.207031 1255.546875 1441.691406 1268.878906 1436.089844 1281.503906 C 1430.421875 1294.253906 1422.890625 1305.816406 1413.347656 1316.5 C 1406.84375 1323.804688 1399.871094 1331.09375 1392.5 1338.328125 C 1272.6875 1455.996094 1114.636719 1479.382812 949.027344 1439.511719 C 787.308594 1400.589844 618.394531 1300.917969 472.144531 1170.445312 C 447.332031 1148.316406 422.875 1124.96875 398.9375 1100.601562 C 374.574219 1076.671875 351.214844 1052.195312 329.085938 1027.390625 C 198.613281 881.132812 98.953125 712.214844 60.023438 550.507812 C 20.15625 384.898438 43.546875 226.855469 161.207031 107.027344 C 167.910156 100.207031 175.199219 93.277344 183.035156 86.28125 L 183.035156 86.179688 C 193.722656 76.644531 205.289062 69.113281 218.027344 63.453125 C 230.652344 57.84375 243.992188 54.328125 258.355469 52.765625 Z M 357.691406 92.546875 L 263.679688 102.773438 C 254.308594 103.789062 245.914062 105.953125 238.308594 109.328125 C 230.832031 112.652344 223.625 117.449219 216.507812 123.796875 L 216.460938 123.742188 C 209.929688 129.5625 203.453125 135.753906 197.046875 142.273438 C 93.125 248.109375 72.914062 389.640625 108.855469 538.886719 C 145.71875 692.035156 241.261719 853.308594 366.699219 993.921875 C 388.675781 1018.550781 411.277344 1042.28125 434.332031 1064.914062 L 434.628906 1065.210938 C 457.261719 1088.261719 480.984375 1110.863281 505.613281 1132.832031 C 646.222656 1258.265625 807.5 1353.824219 960.648438 1390.683594 C 1109.898438 1426.621094 1251.425781 1406.425781 1357.265625 1302.488281 C 1363.265625 1296.59375 1369.429688 1290.109375 1375.734375 1283.035156 C 1382.085938 1275.917969 1386.890625 1268.703125 1390.214844 1261.226562 C 1393.59375 1253.628906 1395.746094 1245.234375 1396.761719 1235.867188 L 1406.988281 1141.847656 C 1407.71875 1135.144531 1406.347656 1128.796875 1403.304688 1123.535156 C 1400.257812 1118.273438 1395.449219 1113.9375 1389.339844 1111.269531 L 1117.367188 992.46875 C 1112.3125 990.261719 1107.167969 989.421875 1102.277344 989.925781 C 1097.4375 990.425781 1092.597656 992.308594 1088.105469 995.511719 C 1059.265625 1016.074219 1034.265625 1039.960938 1013.136719 1067.15625 C 992.019531 1094.339844 974.800781 1124.789062 961.550781 1158.472656 L 960.757812 1160.148438 C 954.785156 1172.648438 939.785156 1177.941406 927.289062 1171.964844 C 854.996094 1137.292969 790.328125 1100.488281 731.875 1060.167969 C 673.179688 1019.675781 620.664062 975.621094 572.949219 926.597656 C 523.914062 878.875 479.859375 826.355469 439.371094 767.664062 C 399.339844 709.632812 362.789062 645.480469 328.328125 573.828125 C 327.742188 572.796875 327.222656 571.714844 326.789062 570.582031 C 321.734375 557.644531 328.121094 543.046875 341.058594 537.996094 C 408.476562 511.457031 462.8125 469.253906 504.03125 411.429688 C 507.238281 406.9375 509.109375 402.101562 509.617188 397.261719 C 510.121094 392.371094 509.28125 387.222656 507.074219 382.167969 L 388.269531 110.203125 C 385.59375 104.082031 381.269531 99.285156 375.996094 96.238281 C 370.738281 93.183594 364.394531 91.820312 357.691406 92.546875 Z M 357.691406 92.546875 " fill-opacity="1" fill-rule="evenodd"/></g></svg>