<svg xmlns="http://www.w3.org/2000/svg" xmlns:xlink="http://www.w3.org/1999/xlink" width="2000" zoomAndPan="magnify" viewBox="0 0 1500 1499.999933" height="2000" preserveAspectRatio="xMidYMid meet" version="1.0"><defs><clipPath id="b2b5ede2f6"><path d="M 106 1155 L 314 1155 L 314 1362.949219 L 106 1362.949219 Z M 106 1155 " clip-rule="nonzero"/></clipPath><clipPath id="e9067cbca8"><path d="M 447 1155 L 655 1155 L 655 1362.949219 L 447 1362.949219 Z M 447 1155 " clip-rule="nonzero"/></clipPath><clipPath id="428d385ed0"><path d="M 1016 1155 L 1225 1155 L 1225 1362.949219 L 1016 1362.949219 Z M 1016 1155 " clip-rule="nonzero"/></clipPath><clipPath id="840257082f"><path d="M 16.242188 1058 L 1003 1058 L 1003 1241 L 16.242188 1241 Z M 16.242188 1058 " clip-rule="nonzero"/></clipPath><clipPath id="f30f574835"><path d="M 1444 990 L 1483.992188 990 L 1483.992188 1098 L 1444 1098 Z M 1444 990 " clip-rule="nonzero"/></clipPath><clipPath id="40a34369d3"><path d="M 1038 588 L 1483.992188 588 L 1483.992188 1241 L 1038 1241 Z M 1038 588 " clip-rule="nonzero"/></clipPath></defs><path stroke-linecap="butt" transform="matrix(0.75, -0.000000000000001302, 0.000000000000001302, 0.75, 749.999969, 748.499916)" fill="none" stroke-linejoin="miter" d="M 0.0000416667 2.000113 L 65.442756 2.000113 " stroke="#000000" stroke-width="4" stroke-opacity="1" stroke-miterlimit="4"/><g clip-path="url(#b2b5ede2f6)"><path fill="#0a0a0a" d="M 210.386719 1155.394531 C 153.242188 1155.394531 106.773438 1201.84375 106.773438 1258.964844 C 106.773438 1316.085938 153.242188 1362.535156 210.386719 1362.535156 C 267.53125 1362.535156 314 1316.085938 314 1258.964844 C 314 1201.84375 267.53125 1155.394531 210.386719 1155.394531 Z M 210.386719 1336.773438 C 167.46875 1336.773438 132.550781 1301.867188 132.550781 1258.96875 C 132.550781 1216.066406 167.46875 1181.164062 210.386719 1181.164062 C 253.308594 1181.164062 288.222656 1216.070312 288.222656 1258.96875 C 288.226562 1301.867188 253.308594 1336.773438 210.386719 1336.773438 Z M 210.386719 1336.773438 " fill-opacity="1" fill-rule="nonzero"/></g><path fill="#0a0a0a" d="M 252.132812 1258.964844 C 252.132812 1260.332031 252.066406 1261.695312 251.929688 1263.054688 C 251.796875 1264.414062 251.597656 1265.765625 251.332031 1267.105469 C 251.0625 1268.445312 250.730469 1269.769531 250.335938 1271.078125 C 249.9375 1272.386719 249.476562 1273.671875 248.953125 1274.933594 C 248.433594 1276.195312 247.847656 1277.429688 247.203125 1278.636719 C 246.558594 1279.839844 245.855469 1281.011719 245.097656 1282.148438 C 244.335938 1283.285156 243.523438 1284.378906 242.65625 1285.4375 C 241.789062 1286.492188 240.871094 1287.503906 239.90625 1288.46875 C 238.9375 1289.4375 237.925781 1290.355469 236.871094 1291.21875 C 235.8125 1292.085938 234.714844 1292.902344 233.578125 1293.660156 C 232.441406 1294.417969 231.269531 1295.121094 230.066406 1295.765625 C 228.859375 1296.410156 227.625 1296.992188 226.363281 1297.515625 C 225.097656 1298.039062 223.8125 1298.5 222.503906 1298.894531 C 221.195312 1299.292969 219.871094 1299.625 218.53125 1299.890625 C 217.191406 1300.15625 215.839844 1300.359375 214.480469 1300.492188 C 213.117188 1300.625 211.753906 1300.691406 210.386719 1300.691406 C 209.019531 1300.691406 207.65625 1300.625 206.296875 1300.492188 C 204.933594 1300.359375 203.582031 1300.15625 202.242188 1299.890625 C 200.902344 1299.625 199.578125 1299.292969 198.269531 1298.894531 C 196.960938 1298.5 195.675781 1298.039062 194.410156 1297.515625 C 193.148438 1296.992188 191.914062 1296.410156 190.707031 1295.765625 C 189.503906 1295.121094 188.332031 1294.417969 187.195312 1293.660156 C 186.058594 1292.902344 184.960938 1292.085938 183.902344 1291.222656 C 182.847656 1290.355469 181.835938 1289.4375 180.867188 1288.472656 C 179.902344 1287.503906 178.984375 1286.492188 178.117188 1285.4375 C 177.25 1284.378906 176.4375 1283.285156 175.675781 1282.148438 C 174.917969 1281.011719 174.214844 1279.839844 173.570312 1278.636719 C 172.925781 1277.429688 172.34375 1276.195312 171.820312 1274.933594 C 171.296875 1273.671875 170.835938 1272.386719 170.4375 1271.078125 C 170.042969 1269.769531 169.710938 1268.445312 169.441406 1267.105469 C 169.175781 1265.765625 168.976562 1264.414062 168.84375 1263.054688 C 168.707031 1261.695312 168.640625 1260.332031 168.640625 1258.964844 C 168.640625 1257.597656 168.707031 1256.234375 168.84375 1254.875 C 168.976562 1253.515625 169.175781 1252.164062 169.441406 1250.824219 C 169.710938 1249.484375 170.042969 1248.160156 170.4375 1246.851562 C 170.835938 1245.542969 171.296875 1244.257812 171.820312 1242.996094 C 172.34375 1241.734375 172.925781 1240.5 173.570312 1239.292969 C 174.214844 1238.089844 174.917969 1236.917969 175.675781 1235.78125 C 176.4375 1234.644531 177.25 1233.550781 178.117188 1232.492188 C 178.984375 1231.4375 179.902344 1230.425781 180.867188 1229.457031 C 181.835938 1228.492188 182.847656 1227.574219 183.902344 1226.707031 C 184.960938 1225.84375 186.058594 1225.027344 187.195312 1224.269531 C 188.332031 1223.511719 189.503906 1222.808594 190.707031 1222.164062 C 191.914062 1221.519531 193.148438 1220.9375 194.410156 1220.414062 C 195.675781 1219.890625 196.960938 1219.429688 198.269531 1219.035156 C 199.578125 1218.636719 200.902344 1218.304688 202.242188 1218.039062 C 203.582031 1217.773438 204.933594 1217.574219 206.296875 1217.4375 C 207.65625 1217.304688 209.019531 1217.238281 210.386719 1217.238281 C 211.753906 1217.238281 213.117188 1217.304688 214.480469 1217.4375 C 215.839844 1217.574219 217.191406 1217.773438 218.53125 1218.039062 C 219.871094 1218.304688 221.195312 1218.636719 222.503906 1219.035156 C 223.8125 1219.429688 225.097656 1219.890625 226.363281 1220.414062 C 227.625 1220.9375 228.859375 1221.519531 230.066406 1222.164062 C 231.269531 1222.808594 232.441406 1223.511719 233.578125 1224.269531 C 234.714844 1225.027344 235.8125 1225.84375 236.871094 1226.710938 C 237.925781 1227.574219 238.9375 1228.492188 239.90625 1229.460938 C 240.871094 1230.425781 241.789062 1231.4375 242.65625 1232.492188 C 243.523438 1233.550781 244.335938 1234.644531 245.097656 1235.78125 C 245.855469 1236.917969 246.558594 1238.089844 247.203125 1239.292969 C 247.847656 1240.5 248.433594 1241.734375 248.953125 1242.996094 C 249.476562 1244.257812 249.9375 1245.542969 250.335938 1246.851562 C 250.730469 1248.160156 251.0625 1249.484375 251.332031 1250.824219 C 251.597656 1252.164062 251.796875 1253.515625 251.929688 1254.875 C 252.066406 1256.234375 252.132812 1257.597656 252.132812 1258.964844 Z M 252.132812 1258.964844 " fill-opacity="1" fill-rule="nonzero"/><g clip-path="url(#e9067cbca8)"><path fill="#0a0a0a" d="M 551.070312 1155.394531 C 493.925781 1155.394531 447.453125 1201.84375 447.453125 1258.964844 C 447.453125 1316.085938 493.925781 1362.535156 551.070312 1362.535156 C 608.214844 1362.535156 654.683594 1316.085938 654.683594 1258.964844 C 654.683594 1201.84375 608.214844 1155.394531 551.070312 1155.394531 Z M 551.070312 1336.773438 C 508.148438 1336.773438 473.230469 1301.867188 473.230469 1258.96875 C 473.230469 1216.066406 508.148438 1181.164062 551.070312 1181.164062 C 593.988281 1181.164062 628.90625 1216.070312 628.90625 1258.96875 C 628.90625 1301.867188 593.988281 1336.773438 551.070312 1336.773438 Z M 551.070312 1336.773438 " fill-opacity="1" fill-rule="nonzero"/></g><path fill="#0a0a0a" d="M 592.816406 1258.964844 C 592.816406 1260.332031 592.746094 1261.695312 592.613281 1263.054688 C 592.480469 1264.414062 592.28125 1265.765625 592.011719 1267.105469 C 591.746094 1268.445312 591.414062 1269.769531 591.015625 1271.078125 C 590.621094 1272.386719 590.160156 1273.671875 589.636719 1274.933594 C 589.113281 1276.195312 588.53125 1277.429688 587.886719 1278.636719 C 587.242188 1279.839844 586.539062 1281.011719 585.78125 1282.148438 C 585.019531 1283.285156 584.207031 1284.378906 583.339844 1285.4375 C 582.472656 1286.492188 581.554688 1287.503906 580.585938 1288.46875 C 579.621094 1289.4375 578.609375 1290.355469 577.550781 1291.21875 C 576.496094 1292.085938 575.398438 1292.902344 574.261719 1293.660156 C 573.125 1294.417969 571.953125 1295.121094 570.746094 1295.765625 C 569.542969 1296.410156 568.308594 1296.992188 567.042969 1297.515625 C 565.78125 1298.039062 564.496094 1298.5 563.1875 1298.894531 C 561.878906 1299.292969 560.554688 1299.625 559.214844 1299.890625 C 557.871094 1300.15625 556.523438 1300.359375 555.160156 1300.492188 C 553.800781 1300.625 552.4375 1300.691406 551.070312 1300.691406 C 549.703125 1300.691406 548.339844 1300.625 546.976562 1300.492188 C 545.617188 1300.359375 544.265625 1300.15625 542.925781 1299.890625 C 541.585938 1299.625 540.257812 1299.292969 538.949219 1298.894531 C 537.644531 1298.5 536.355469 1298.039062 535.09375 1297.515625 C 533.832031 1296.992188 532.597656 1296.410156 531.390625 1295.765625 C 530.183594 1295.121094 529.011719 1294.417969 527.875 1293.660156 C 526.738281 1292.902344 525.644531 1292.085938 524.585938 1291.222656 C 523.527344 1290.355469 522.515625 1289.4375 521.550781 1288.472656 C 520.582031 1287.503906 519.667969 1286.492188 518.800781 1285.4375 C 517.933594 1284.378906 517.117188 1283.285156 516.359375 1282.148438 C 515.597656 1281.011719 514.898438 1279.839844 514.253906 1278.636719 C 513.609375 1277.429688 513.023438 1276.195312 512.5 1274.933594 C 511.976562 1273.671875 511.519531 1272.386719 511.121094 1271.078125 C 510.722656 1269.769531 510.390625 1268.445312 510.125 1267.105469 C 509.859375 1265.765625 509.660156 1264.414062 509.523438 1263.054688 C 509.390625 1261.695312 509.324219 1260.332031 509.324219 1258.964844 C 509.324219 1257.597656 509.390625 1256.234375 509.523438 1254.875 C 509.660156 1253.515625 509.859375 1252.164062 510.125 1250.824219 C 510.390625 1249.484375 510.722656 1248.160156 511.121094 1246.851562 C 511.519531 1245.542969 511.976562 1244.257812 512.5 1242.996094 C 513.023438 1241.734375 513.609375 1240.5 514.253906 1239.292969 C 514.898438 1238.089844 515.597656 1236.917969 516.359375 1235.78125 C 517.117188 1234.644531 517.933594 1233.550781 518.800781 1232.492188 C 519.667969 1231.4375 520.582031 1230.425781 521.550781 1229.457031 C 522.515625 1228.492188 523.527344 1227.574219 524.585938 1226.707031 C 525.644531 1225.84375 526.738281 1225.027344 527.875 1224.269531 C 529.011719 1223.511719 530.183594 1222.808594 531.390625 1222.164062 C 532.597656 1221.519531 533.832031 1220.9375 535.09375 1220.414062 C 536.355469 1219.890625 537.644531 1219.429688 538.949219 1219.035156 C 540.257812 1218.636719 541.585938 1218.304688 542.925781 1218.039062 C 544.265625 1217.773438 545.617188 1217.574219 546.976562 1217.4375 C 548.339844 1217.304688 549.703125 1217.238281 551.070312 1217.238281 C 552.4375 1217.238281 553.800781 1217.304688 555.160156 1217.4375 C 556.523438 1217.574219 557.871094 1217.773438 559.214844 1218.039062 C 560.554688 1218.304688 561.878906 1218.636719 563.1875 1219.035156 C 564.496094 1219.429688 565.78125 1219.890625 567.042969 1220.414062 C 568.308594 1220.9375 569.542969 1221.519531 570.75 1222.164062 C 571.953125 1222.808594 573.125 1223.511719 574.261719 1224.269531 C 575.398438 1225.027344 576.496094 1225.84375 577.550781 1226.710938 C 578.609375 1227.574219 579.621094 1228.492188 580.589844 1229.460938 C 581.554688 1230.425781 582.472656 1231.4375 583.339844 1232.492188 C 584.207031 1233.550781 585.019531 1234.644531 585.78125 1235.78125 C 586.539062 1236.917969 587.242188 1238.089844 587.886719 1239.292969 C 588.53125 1240.5 589.113281 1241.734375 589.636719 1242.996094 C 590.160156 1244.257812 590.621094 1245.542969 591.015625 1246.851562 C 591.414062 1248.160156 591.746094 1249.484375 592.011719 1250.824219 C 592.28125 1252.164062 592.480469 1253.515625 592.613281 1254.875 C 592.746094 1256.234375 592.816406 1257.597656 592.816406 1258.964844 Z M 592.816406 1258.964844 " fill-opacity="1" fill-rule="nonzero"/><g clip-path="url(#428d385ed0)"><path fill="#0a0a0a" d="M 1120.484375 1155.394531 C 1063.335938 1155.394531 1016.867188 1201.84375 1016.867188 1258.964844 C 1016.867188 1316.085938 1063.335938 1362.535156 1120.484375 1362.535156 C 1177.628906 1362.535156 1224.097656 1316.085938 1224.097656 1258.964844 C 1224.097656 1201.84375 1177.628906 1155.394531 1120.484375 1155.394531 Z M 1120.484375 1336.773438 C 1077.5625 1336.773438 1042.644531 1301.867188 1042.644531 1258.96875 C 1042.644531 1216.066406 1077.5625 1181.164062 1120.484375 1181.164062 C 1163.402344 1181.164062 1198.320312 1216.070312 1198.320312 1258.96875 C 1198.320312 1301.867188 1163.402344 1336.773438 1120.484375 1336.773438 Z M 1120.484375 1336.773438 " fill-opacity="1" fill-rule="nonzero"/></g><path fill="#0a0a0a" d="M 1162.226562 1258.964844 C 1162.226562 1260.332031 1162.160156 1261.695312 1162.027344 1263.054688 C 1161.894531 1264.414062 1161.691406 1265.765625 1161.425781 1267.105469 C 1161.160156 1268.445312 1160.828125 1269.769531 1160.429688 1271.078125 C 1160.035156 1272.386719 1159.574219 1273.671875 1159.050781 1274.933594 C 1158.527344 1276.195312 1157.945312 1277.429688 1157.300781 1278.636719 C 1156.65625 1279.839844 1155.953125 1281.011719 1155.191406 1282.148438 C 1154.433594 1283.285156 1153.621094 1284.378906 1152.753906 1285.4375 C 1151.886719 1286.492188 1150.96875 1287.503906 1150 1288.46875 C 1149.035156 1289.4375 1148.023438 1290.355469 1146.964844 1291.21875 C 1145.910156 1292.085938 1144.8125 1292.902344 1143.675781 1293.660156 C 1142.539062 1294.417969 1141.367188 1295.121094 1140.160156 1295.765625 C 1138.957031 1296.410156 1137.722656 1296.992188 1136.457031 1297.515625 C 1135.195312 1298.039062 1133.910156 1298.5 1132.601562 1298.894531 C 1131.292969 1299.292969 1129.96875 1299.625 1128.625 1299.890625 C 1127.285156 1300.15625 1125.933594 1300.359375 1124.574219 1300.492188 C 1123.214844 1300.625 1121.851562 1300.691406 1120.484375 1300.691406 C 1119.117188 1300.691406 1117.75 1300.625 1116.390625 1300.492188 C 1115.03125 1300.359375 1113.679688 1300.15625 1112.339844 1299.890625 C 1110.996094 1299.625 1109.671875 1299.292969 1108.363281 1298.894531 C 1107.054688 1298.5 1105.769531 1298.039062 1104.507812 1297.515625 C 1103.242188 1296.992188 1102.007812 1296.410156 1100.804688 1295.765625 C 1099.597656 1295.121094 1098.425781 1294.417969 1097.289062 1293.660156 C 1096.152344 1292.902344 1095.054688 1292.085938 1094 1291.222656 C 1092.941406 1290.355469 1091.929688 1289.4375 1090.964844 1288.472656 C 1089.996094 1287.503906 1089.082031 1286.492188 1088.210938 1285.4375 C 1087.34375 1284.378906 1086.53125 1283.285156 1085.773438 1282.148438 C 1085.011719 1281.011719 1084.3125 1279.839844 1083.667969 1278.636719 C 1083.023438 1277.429688 1082.4375 1276.195312 1081.914062 1274.933594 C 1081.390625 1273.671875 1080.929688 1272.386719 1080.535156 1271.078125 C 1080.136719 1269.769531 1079.804688 1268.445312 1079.539062 1267.105469 C 1079.273438 1265.765625 1079.070312 1264.414062 1078.9375 1263.054688 C 1078.804688 1261.695312 1078.738281 1260.332031 1078.738281 1258.964844 C 1078.738281 1257.597656 1078.804688 1256.234375 1078.9375 1254.875 C 1079.070312 1253.515625 1079.273438 1252.164062 1079.539062 1250.824219 C 1079.804688 1249.484375 1080.136719 1248.160156 1080.535156 1246.851562 C 1080.929688 1245.542969 1081.390625 1244.257812 1081.914062 1242.996094 C 1082.4375 1241.734375 1083.023438 1240.5 1083.667969 1239.292969 C 1084.3125 1238.089844 1085.011719 1236.917969 1085.773438 1235.78125 C 1086.53125 1234.644531 1087.34375 1233.550781 1088.210938 1232.492188 C 1089.082031 1231.4375 1089.996094 1230.425781 1090.964844 1229.457031 C 1091.929688 1228.492188 1092.941406 1227.574219 1094 1226.707031 C 1095.054688 1225.84375 1096.152344 1225.027344 1097.289062 1224.269531 C 1098.425781 1223.511719 1099.597656 1222.808594 1100.804688 1222.164062 C 1102.007812 1221.519531 1103.242188 1220.9375 1104.507812 1220.414062 C 1105.769531 1219.890625 1107.054688 1219.429688 1108.363281 1219.035156 C 1109.671875 1218.636719 1110.996094 1218.304688 1112.339844 1218.039062 C 1113.679688 1217.773438 1115.03125 1217.574219 1116.390625 1217.4375 C 1117.75 1217.304688 1119.117188 1217.238281 1120.484375 1217.238281 C 1121.851562 1217.238281 1123.214844 1217.304688 1124.574219 1217.4375 C 1125.933594 1217.574219 1127.285156 1217.773438 1128.625 1218.039062 C 1129.96875 1218.304688 1131.292969 1218.636719 1132.601562 1219.035156 C 1133.910156 1219.429688 1135.195312 1219.890625 1136.457031 1220.414062 C 1137.722656 1220.9375 1138.957031 1221.519531 1140.160156 1222.164062 C 1141.367188 1222.808594 1142.539062 1223.511719 1143.675781 1224.269531 C 1144.8125 1225.027344 1145.910156 1225.84375 1146.964844 1226.710938 C 1148.023438 1227.574219 1149.035156 1228.492188 1150 1229.460938 C 1150.96875 1230.425781 1151.886719 1231.4375 1152.753906 1232.492188 C 1153.621094 1233.550781 1154.433594 1234.644531 1155.191406 1235.78125 C 1155.953125 1236.917969 1156.65625 1238.089844 1157.300781 1239.292969 C 1157.945312 1240.5 1158.527344 1241.734375 1159.050781 1242.996094 C 1159.574219 1244.257812 1160.035156 1245.542969 1160.429688 1246.851562 C 1160.828125 1248.160156 1161.160156 1249.484375 1161.425781 1250.824219 C 1161.691406 1252.164062 1161.894531 1253.515625 1162.027344 1254.875 C 1162.160156 1256.234375 1162.226562 1257.597656 1162.226562 1258.964844 Z M 1162.226562 1258.964844 " fill-opacity="1" fill-rule="nonzero"/><g clip-path="url(#840257082f)"><path fill="#0a0a0a" d="M 1002.191406 1058.109375 L 1002.191406 1184.738281 C 991.664062 1201.425781 984.59375 1220.515625 981.917969 1240.929688 L 689.628906 1240.929688 C 680.726562 1172.414062 621.988281 1119.320312 551.066406 1119.320312 C 480.117188 1119.320312 421.40625 1172.410156 412.5 1240.929688 L 348.949219 1240.929688 C 340.046875 1172.414062 281.304688 1119.320312 210.382812 1119.320312 C 139.460938 1119.320312 80.722656 1172.410156 71.820312 1240.929688 L 16.574219 1240.929688 C 16.421875 1240.75 16.242188 1240.355469 16.242188 1239.726562 L 16.242188 1059.28125 C 16.242188 1058.652344 16.421875 1058.289062 16.574219 1058.109375 Z M 1002.191406 1058.109375 " fill-opacity="1" fill-rule="nonzero"/></g><g clip-path="url(#f30f574835)"><path fill="#0a0a0a" d="M 1483.992188 990.976562 L 1483.992188 1097.914062 L 1453.011719 1097.914062 C 1448.140625 1097.914062 1444.171875 1093.949219 1444.171875 1089.078125 L 1444.171875 999.816406 C 1444.171875 994.917969 1448.140625 990.980469 1453.011719 990.980469 L 1483.992188 990.980469 Z M 1483.992188 990.976562 " fill-opacity="1" fill-rule="nonzero"/></g><g clip-path="url(#40a34369d3)"><path fill="#0a0a0a" d="M 1453.011719 954.902344 L 1483.992188 954.902344 L 1483.992188 839.15625 C 1483.992188 833.082031 1482.851562 827.160156 1480.621094 821.539062 L 1403.445312 627.535156 C 1393.9375 603.605469 1371.171875 588.152344 1345.425781 588.152344 L 1069.019531 588.152344 C 1052.054688 588.152344 1038.28125 601.953125 1038.28125 618.910156 L 1038.28125 1146.105469 C 1061.351562 1129.269531 1089.773438 1119.320312 1120.484375 1119.320312 C 1191.40625 1119.320312 1250.144531 1172.410156 1259.046875 1240.929688 L 1453.253906 1240.929688 C 1470.1875 1240.929688 1483.992188 1227.15625 1483.992188 1210.203125 L 1483.992188 1133.992188 L 1453.011719 1133.992188 C 1428.230469 1133.992188 1408.078125 1113.851562 1408.078125 1089.078125 L 1408.078125 999.820312 C 1408.078125 975.042969 1428.230469 954.902344 1453.011719 954.902344 Z M 1388.347656 909.386719 C 1377.636719 924.113281 1361.910156 932.59375 1345.1875 932.59375 L 1158.167969 932.59375 C 1126.921875 932.59375 1101.472656 902.773438 1101.472656 866.09375 L 1101.472656 703.238281 C 1101.472656 666.5625 1126.917969 636.738281 1158.167969 636.738281 L 1281.964844 636.738281 C 1311.859375 636.738281 1338.117188 658.050781 1348.886719 691.0625 L 1398.152344 842.191406 C 1405.609375 865.039062 1401.851562 890.804688 1388.347656 909.386719 Z M 1388.347656 909.386719 " fill-opacity="1" fill-rule="nonzero"/></g><path fill="#0a0a0a" d="M 1359.140625 888.191406 C 1356.375 891.980469 1351.710938 896.519531 1345.1875 896.519531 L 1158.167969 896.519531 C 1147.011719 896.519531 1137.566406 882.570312 1137.566406 866.09375 L 1137.566406 703.238281 C 1137.566406 686.734375 1147.011719 672.8125 1158.167969 672.8125 L 1281.964844 672.8125 C 1295.949219 672.8125 1308.734375 684.355469 1314.570312 702.246094 L 1363.835938 853.347656 C 1367.714844 865.25 1365.847656 878.929688 1359.140625 888.191406 Z M 1359.140625 888.191406 " fill-opacity="1" fill-rule="nonzero"/><path fill="#0a0a0a" d="M 797.761719 821.929688 L 797.761719 1022.03125 L 737.304688 1022.03125 L 737.304688 839.394531 Z M 797.761719 821.929688 " fill-opacity="1" fill-rule="nonzero"/><path fill="#0a0a0a" d="M 958.277344 515.761719 L 939.390625 560.617188 L 870.453125 724.191406 L 851.65625 768.808594 L 810.601562 780.652344 C 810.507812 780.679688 810.386719 780.742188 810.238281 780.773438 L 715.167969 808.25 C 714.746094 808.371094 714.292969 808.492188 713.871094 808.613281 L 661.808594 823.644531 L 637.324219 813.332031 L 846.148438 333.789062 L 864.914062 341.695312 Z M 958.277344 515.761719 " fill-opacity="1" fill-rule="nonzero"/><path fill="#0a0a0a" d="M 376.710938 137.410156 L 174.507812 617.195312 L 164.914062 603.667969 C 164.582031 603.125 164.191406 602.582031 163.769531 602.074219 L 20.394531 399.53125 L 32.183594 371.484375 L 32.246094 371.363281 L 32.367188 371.09375 L 101.238281 207.699219 L 113.238281 179.257812 Z M 376.710938 137.410156 " fill-opacity="1" fill-rule="nonzero"/><path fill="#0a0a0a" d="M 228.34375 680.300781 L 228.34375 1022.03125 L 167.890625 1022.03125 L 167.890625 654.835938 L 176.671875 658.53125 Z M 228.34375 680.300781 " fill-opacity="1" fill-rule="nonzero"/><path fill="#0a0a0a" d="M 812.886719 319.773438 L 604.03125 799.320312 L 253.488281 651.742188 C 253.460938 651.710938 253.398438 651.710938 253.367188 651.679688 L 207.320312 632.285156 L 410.429688 150.335938 Z M 812.886719 319.773438 " fill-opacity="1" fill-rule="nonzero"/></svg>