<svg xmlns="http://www.w3.org/2000/svg" xmlns:xlink="http://www.w3.org/1999/xlink" width="2000" zoomAndPan="magnify" viewBox="0 0 1500 1499.999933" height="2000" preserveAspectRatio="xMidYMid meet" version="1.0"><defs><clipPath id="ffd2110298"><path d="M 270 144.546875 L 1230 144.546875 L 1230 1355.796875 L 270 1355.796875 Z M 270 144.546875 " clip-rule="nonzero"/></clipPath><clipPath id="c2a63d6e24"><path d="M 49 144.546875 L 427 144.546875 L 427 1355.796875 L 49 1355.796875 Z M 49 144.546875 " clip-rule="nonzero"/></clipPath><clipPath id="1a16bd34cc"><path d="M 1073 144.546875 L 1451 144.546875 L 1451 1355.796875 L 1073 1355.796875 Z M 1073 144.546875 " clip-rule="nonzero"/></clipPath></defs><g clip-path="url(#ffd2110298)"><path fill="#000000" d="M 471.945312 144.546875 C 564.617188 144.546875 657.285156 144.546875 749.953125 144.546875 C 842.621094 144.546875 935.292969 144.546875 1028.640625 144.546875 C 1049.765625 270.648438 1073.613281 417.199219 1102.230469 589.648438 C 1136.300781 795.5 1177.867188 1045.65625 1229.652344 1355.796875 C 1069.523438 1355.796875 910.082031 1355.796875 749.953125 1355.796875 C 590.507812 1355.796875 430.382812 1355.796875 270.9375 1355.796875 C 322.722656 1045.65625 364.289062 795.5 398.355469 589.648438 C 426.976562 417.199219 451.503906 270.648438 472.628906 144.546875 Z M 471.945312 144.546875 " fill-opacity="1" fill-rule="evenodd"/></g><path fill="#ffffff" d="M 699.53125 1177.894531 C 732.917969 1177.894531 766.308594 1177.894531 799.695312 1177.894531 C 798.332031 1094.054688 796.96875 1014.984375 795.605469 941.367188 C 764.945312 941.367188 734.28125 941.367188 704.300781 941.367188 C 702.9375 1015.667969 701.574219 1094.734375 700.210938 1177.894531 Z M 699.53125 1177.894531 " fill-opacity="1" fill-rule="evenodd"/><path fill="#ffffff" d="M 706.34375 817.996094 C 735.644531 817.996094 764.261719 817.996094 793.5625 817.996094 C 792.199219 754.601562 791.519531 694.621094 790.15625 638.046875 C 763.582031 638.046875 736.324219 638.046875 709.75 638.046875 C 708.390625 694.621094 707.707031 755.285156 706.34375 817.996094 Z M 706.34375 817.996094 " fill-opacity="1" fill-rule="evenodd"/><path fill="#ffffff" d="M 711.796875 543.300781 C 737.6875 543.300781 762.898438 543.300781 788.792969 543.300781 C 788.113281 493.539062 786.75 446.507812 786.066406 401.519531 C 762.21875 401.519531 738.371094 401.519531 714.523438 401.519531 C 713.839844 446.507812 712.476562 493.539062 711.796875 543.300781 Z M 711.796875 543.300781 " fill-opacity="1" fill-rule="evenodd"/><path fill="#ffffff" d="M 715.882812 325.859375 C 739.050781 325.859375 761.539062 325.859375 784.703125 325.859375 C 784.023438 286.324219 783.34375 248.15625 782.660156 211.347656 C 760.855469 211.347656 739.734375 211.347656 717.929688 211.347656 C 717.246094 248.15625 716.566406 285.644531 715.882812 325.859375 Z M 715.882812 325.859375 " fill-opacity="1" fill-rule="evenodd"/><g clip-path="url(#c2a63d6e24)"><path fill="#000000" d="M 426.292969 144.546875 C 398.355469 144.546875 371.101562 144.546875 343.164062 144.546875 C 312.503906 270.648438 277.070312 417.199219 235.503906 589.648438 C 185.765625 795.5 124.4375 1045.65625 49.484375 1355.796875 C 97.183594 1355.796875 144.878906 1355.796875 192.578125 1355.796875 C 252.539062 1045.65625 300.917969 795.5 340.4375 589.648438 C 373.828125 417.199219 401.765625 270.648438 426.292969 144.546875 Z M 426.292969 144.546875 " fill-opacity="1" fill-rule="evenodd"/></g><g clip-path="url(#1a16bd34cc)"><path fill="#000000" d="M 1156.742188 144.546875 C 1128.804688 144.546875 1100.867188 144.546875 1073.613281 144.546875 C 1098.144531 270.648438 1126.082031 417.199219 1159.46875 589.648438 C 1198.988281 795.5 1247.367188 1045.65625 1307.328125 1355.796875 C 1355.027344 1355.796875 1402.722656 1355.796875 1450.421875 1355.796875 C 1375.46875 1045.65625 1314.144531 795.5 1264.402344 589.648438 C 1222.835938 417.199219 1186.722656 270.648438 1156.0625 144.546875 Z M 1156.742188 144.546875 " fill-opacity="1" fill-rule="evenodd"/></g><path stroke-linecap="butt" transform="matrix(0.75, 0, 0, 0.75, 533.597795, 1111.70098)" fill="none" stroke-linejoin="miter" d="M -0.000185519 1.997652 L 117.426908 1.997652 " stroke="#000000" stroke-width="4" stroke-opacity="1" stroke-miterlimit="4"/></svg>