<svg xmlns="http://www.w3.org/2000/svg" xmlns:xlink="http://www.w3.org/1999/xlink" width="800" zoomAndPan="magnify" viewBox="0 0 600 599.999999" height="800" preserveAspectRatio="xMidYMid meet" version="1.0"><defs><clipPath id="8a80ac99fc"><path d="M 61.183594 11 L 537 11 L 537 591.363281 L 61.183594 591.363281 Z M 61.183594 11 " clip-rule="nonzero"/></clipPath></defs><g clip-path="url(#8a80ac99fc)"><path fill="#ffffff" d="M 298.675781 591.386719 C 284.113281 591.386719 272.308594 579.578125 272.308594 565.015625 L 272.308594 101.277344 L 106.363281 267.222656 C 96.0625 277.523438 79.375 277.523438 69.074219 267.222656 C 63.925781 262.070312 61.347656 255.324219 61.347656 248.578125 C 61.347656 241.832031 63.925781 235.082031 69.074219 229.933594 L 280.03125 18.976562 C 290.332031 8.675781 307.019531 8.675781 317.320312 18.976562 L 528.28125 229.933594 C 538.582031 240.234375 538.582031 256.921875 528.28125 267.222656 C 517.980469 277.523438 501.292969 277.523438 490.992188 267.222656 L 325.046875 101.277344 L 325.046875 565.015625 C 325.046875 579.578125 313.238281 591.386719 298.675781 591.386719 Z M 298.675781 591.386719 " fill-opacity="1" fill-rule="nonzero"/></g></svg>