<svg xmlns="http://www.w3.org/2000/svg" xmlns:xlink="http://www.w3.org/1999/xlink" width="800" zoomAndPan="magnify" viewBox="0 0 600 599.999999" height="800" preserveAspectRatio="xMidYMid meet" version="1.0"><defs><clipPath id="076d61caae"><path d="M 61.183594 11 L 537 11 L 537 591.363281 L 61.183594 591.363281 Z M 61.183594 11 " clip-rule="nonzero"/></clipPath></defs><g clip-path="url(#076d61caae)"><path fill="#000000" d="M 298.742188 591.363281 C 284.183594 591.363281 272.378906 579.554688 272.378906 564.992188 L 272.378906 101.273438 L 106.480469 267.210938 C 96.183594 277.511719 79.5 277.511719 69.199219 267.210938 C 64.050781 262.0625 61.476562 255.316406 61.476562 248.566406 C 61.476562 241.820312 64.050781 235.074219 69.199219 229.925781 L 280.101562 18.972656 C 290.402344 8.675781 307.082031 8.675781 317.382812 18.972656 L 528.28125 229.925781 C 538.582031 240.226562 538.582031 256.910156 528.28125 267.210938 C 517.984375 277.511719 501.300781 277.511719 491.003906 267.210938 L 325.105469 101.273438 L 325.105469 564.992188 C 325.105469 579.554688 313.300781 591.363281 298.742188 591.363281 Z M 298.742188 591.363281 " fill-opacity="1" fill-rule="nonzero"/></g></svg>