<svg xmlns="http://www.w3.org/2000/svg" xmlns:xlink="http://www.w3.org/1999/xlink" width="2000" zoomAndPan="magnify" viewBox="0 0 1500 1499.999933" height="2000" preserveAspectRatio="xMidYMid meet" version="1.0"><defs><clipPath id="f749532177"><path d="M 45.246094 45.246094 L 1454.496094 45.246094 L 1454.496094 1454.496094 L 45.246094 1454.496094 Z M 45.246094 45.246094 " clip-rule="nonzero"/></clipPath></defs><g clip-path="url(#f749532177)"><path fill="#ffc107" d="M 749.996094 45.246094 C 360.777344 45.246094 45.246094 360.777344 45.246094 749.996094 C 45.246094 1139.210938 360.777344 1454.742188 749.996094 1454.742188 C 1139.210938 1454.742188 1454.742188 1139.210938 1454.742188 749.996094 C 1454.742188 360.777344 1139.210938 45.246094 749.996094 45.246094 Z M 1202.46875 1202.46875 C 1143.695312 1261.246094 1075.25 1307.421875 999.050781 1339.644531 C 920.203125 1372.992188 836.394531 1389.90625 749.996094 1389.90625 C 663.59375 1389.90625 579.785156 1372.992188 500.9375 1339.644531 C 424.738281 1307.421875 356.292969 1261.273438 297.519531 1202.46875 C 238.742188 1143.695312 192.566406 1075.25 160.34375 999.050781 C 126.996094 920.203125 110.082031 836.394531 110.082031 749.996094 C 110.082031 663.59375 126.996094 579.785156 160.34375 500.9375 C 192.566406 424.738281 238.714844 356.292969 297.519531 297.519531 C 356.292969 238.742188 424.738281 192.566406 500.9375 160.34375 C 579.785156 126.996094 663.59375 110.082031 749.996094 110.082031 C 836.394531 110.082031 920.203125 126.996094 999.050781 160.34375 C 1075.25 192.566406 1143.695312 238.714844 1202.46875 297.519531 C 1261.246094 356.292969 1307.421875 424.738281 1339.644531 500.9375 C 1372.992188 579.785156 1389.90625 663.59375 1389.90625 749.996094 C 1389.90625 836.394531 1372.992188 920.203125 1339.644531 999.050781 C 1307.421875 1075.25 1261.273438 1143.695312 1202.46875 1202.46875 Z M 1202.46875 1202.46875 " fill-opacity="1" fill-rule="nonzero"/></g><path fill="#ffc107" d="M 1091.457031 403.34375 C 1080.378906 393.195312 1063.183594 393.925781 1053.007812 405.007812 L 627.59375 869.097656 L 447.121094 686.398438 C 434.070312 673.175781 412.730469 673.035156 399.507812 686.117188 L 310.457031 774.070312 C 298.957031 785.429688 298.84375 803.976562 310.203125 815.507812 L 607.746094 1116.71875 C 621.308594 1130.445312 643.605469 1130.023438 656.65625 1115.816406 L 1190.632812 533.296875 C 1201.371094 521.597656 1200.582031 503.390625 1188.855469 492.648438 L 1091.429688 403.34375 Z M 1091.457031 403.34375 " fill-opacity="1" fill-rule="nonzero"/></svg>